G04*
G04 #@! TF.GenerationSoftware,Altium Limited,Altium Designer,20.0.13 (296)*
G04*
G04 Layer_Physical_Order=1*
G04 Layer_Color=255*
%FSLAX44Y44*%
%MOMM*%
G71*
G01*
G75*
%ADD10C,0.2000*%
%ADD12C,0.5000*%
%ADD14C,0.2540*%
%ADD39R,2.0000X1.8000*%
%ADD40R,1.0000X0.7000*%
%ADD41R,0.5000X0.2300*%
%ADD42R,0.2300X0.5000*%
%ADD43R,0.6000X0.9000*%
%ADD44R,0.9000X0.6000*%
%ADD45R,0.9000X0.7000*%
%ADD46R,1.4000X2.8000*%
%ADD47R,1.8000X2.0000*%
%ADD48R,3.2000X2.0000*%
%ADD49R,2.5000X0.8000*%
%ADD50C,2.0000*%
%ADD51C,0.7000*%
%ADD52C,1.0000*%
%ADD53C,0.6000*%
%ADD54R,3.3020X1.5200*%
%ADD55R,6.5000X3.2750*%
%ADD56R,3.7750X5.9050*%
%ADD57R,3.9750X5.9250*%
%ADD58R,1.5000X1.5000*%
%ADD59C,1.5000*%
%ADD60O,1.2000X2.0000*%
%ADD61O,1.2000X2.7000*%
%ADD62C,0.7100*%
%ADD63R,2.0000X2.0000*%
%ADD64C,2.5000*%
%ADD65R,2.0000X2.0000*%
%ADD66C,2.0000*%
%ADD67C,2.2000*%
%ADD68R,2.2000X2.2000*%
%ADD69C,6.0000*%
%ADD70C,0.8000*%
G36*
X1706393Y936393D02*
X1707474Y935670D01*
X1708750Y935416D01*
X1755869D01*
X1790612Y900673D01*
X1790126Y899500D01*
X1787508D01*
X1784633Y900691D01*
X1781500Y901104D01*
X1728513D01*
X1685294Y944323D01*
X1686000Y945379D01*
X1686106Y945335D01*
X1689500Y944888D01*
X1692894Y945335D01*
X1696056Y946645D01*
X1696104Y946681D01*
X1706393Y936393D01*
D02*
G37*
G36*
X1651100Y969702D02*
Y945000D01*
X1653312D01*
X1653409Y944267D01*
X1654618Y941348D01*
X1656541Y938841D01*
X1662279Y933104D01*
X1661717Y931965D01*
X1660500Y932125D01*
X1656715Y931627D01*
X1653187Y930166D01*
X1650159Y927841D01*
X1647834Y924813D01*
X1646373Y921285D01*
X1645875Y917500D01*
X1646373Y913715D01*
X1647834Y910187D01*
X1649353Y908208D01*
Y905793D01*
X1649766Y902661D01*
X1650975Y899742D01*
X1652898Y897235D01*
X1710191Y839941D01*
X1712698Y838018D01*
X1715617Y836809D01*
X1718750Y836396D01*
X1782000D01*
X1782000Y836396D01*
X1822500D01*
X1825633Y836809D01*
X1828552Y838018D01*
X1831059Y839941D01*
X1852263Y861146D01*
X1862635D01*
X1863161Y859876D01*
X1851393Y848108D01*
X1850670Y847026D01*
X1850416Y845750D01*
Y826800D01*
X1847250D01*
Y816800D01*
X1860250D01*
Y826800D01*
X1857084D01*
Y844369D01*
X1868131Y855416D01*
X1936346D01*
X1937230Y854146D01*
X1937211Y854050D01*
Y794800D01*
X1937366Y794020D01*
X1937808Y793358D01*
X1938470Y792916D01*
X1939250Y792761D01*
X1966500D01*
Y789750D01*
X1973500D01*
X1980500D01*
Y792566D01*
X1980999Y792905D01*
X1981770Y793015D01*
X1988950Y785835D01*
X1988500Y784750D01*
X1988500D01*
Y773750D01*
X2002500D01*
Y775861D01*
X2003256Y776011D01*
X2004062Y776550D01*
X2015500D01*
Y786550D01*
X2002500D01*
Y785838D01*
X2000744Y785489D01*
X1999770Y784838D01*
X1997762D01*
Y785072D01*
X1997508Y786348D01*
X1996785Y787430D01*
X1992928Y791288D01*
X1993414Y792461D01*
X2002500D01*
Y792150D01*
X2015500D01*
Y792461D01*
X2017000D01*
Y792150D01*
X2030000D01*
Y794302D01*
X2030039Y794500D01*
Y797326D01*
X2031213Y797812D01*
X2040646Y788379D01*
Y681264D01*
X2008441Y649059D01*
X2006518Y646552D01*
X2005309Y643633D01*
X2004896Y640500D01*
Y581250D01*
X2005000Y580463D01*
Y569250D01*
X2016213D01*
X2017000Y569146D01*
X2017787Y569250D01*
X2029000D01*
Y580463D01*
X2029104Y581250D01*
Y635487D01*
X2061308Y667691D01*
X2062876Y669735D01*
X2064146Y669304D01*
X2064146Y507514D01*
X2008441Y451809D01*
X2006518Y449302D01*
X2005309Y446383D01*
X2004896Y443250D01*
Y367354D01*
X1942263D01*
X1849301Y460316D01*
X1854124Y465140D01*
X1865750D01*
Y462700D01*
X1884750D01*
Y481700D01*
X1865750D01*
Y479260D01*
X1851200D01*
X1849373Y479020D01*
X1847670Y478315D01*
X1846208Y477192D01*
X1839316Y470301D01*
X1792604Y517013D01*
Y604146D01*
X1882750D01*
X1885883Y604559D01*
X1888802Y605768D01*
X1891308Y607691D01*
X1921808Y638191D01*
X1923732Y640698D01*
X1924941Y643617D01*
X1925354Y646750D01*
Y699750D01*
X1925250Y700537D01*
Y710750D01*
X1918051D01*
X1916383Y711441D01*
X1913250Y711853D01*
X1910117Y711441D01*
X1908449Y710750D01*
X1901250D01*
Y700537D01*
X1901146Y699750D01*
Y651763D01*
X1882950Y633567D01*
X1881572Y633985D01*
X1881402Y634841D01*
X1880076Y636826D01*
X1878091Y638152D01*
X1875750Y638618D01*
X1873409Y638152D01*
X1871424Y636826D01*
X1870762Y635834D01*
X1865721D01*
X1864464Y635584D01*
X1812926D01*
X1803225Y645284D01*
X1803367Y646000D01*
X1802902Y648341D01*
X1801576Y650326D01*
X1799591Y651652D01*
X1797250Y652117D01*
X1794909Y651652D01*
X1793874Y650960D01*
X1792604Y651639D01*
Y805284D01*
X1792191Y808417D01*
X1790982Y811336D01*
X1789059Y813843D01*
X1777343Y825558D01*
X1774836Y827482D01*
X1771917Y828691D01*
X1768784Y829103D01*
X1712513D01*
X1638309Y903308D01*
X1638309Y903308D01*
X1635802Y905232D01*
X1632883Y906441D01*
X1629750Y906853D01*
X1626617Y906441D01*
X1625154Y905835D01*
X1623994Y906994D01*
X1622506Y907989D01*
X1620750Y908338D01*
X1603587D01*
X1603229Y909608D01*
X1606367Y911531D01*
X1610197Y914803D01*
X1613469Y918633D01*
X1616100Y922927D01*
X1618028Y927581D01*
X1619204Y932479D01*
X1619599Y937500D01*
X1619204Y942521D01*
X1618028Y947419D01*
X1616100Y952073D01*
X1613469Y956367D01*
X1610197Y960197D01*
X1606367Y963469D01*
X1602073Y966100D01*
X1597419Y968028D01*
X1595736Y968432D01*
X1595886Y969702D01*
X1651100Y969702D01*
D02*
G37*
G36*
X1809112Y969702D02*
X1809262Y968432D01*
X1807581Y968028D01*
X1802927Y966100D01*
X1798633Y963469D01*
X1794803Y960197D01*
X1791531Y956367D01*
X1788900Y952073D01*
X1786972Y947419D01*
X1785796Y942521D01*
X1785401Y937500D01*
X1785796Y932479D01*
X1786972Y927581D01*
X1788437Y924045D01*
X1787360Y923326D01*
X1765578Y945107D01*
X1764497Y945830D01*
X1763221Y946084D01*
X1748212D01*
X1747781Y947354D01*
X1749572Y948728D01*
X1751655Y951444D01*
X1752965Y954606D01*
X1753313Y957250D01*
X1740300D01*
Y958750D01*
X1753313D01*
X1752965Y961394D01*
X1751655Y964556D01*
X1749572Y967272D01*
X1748060Y968432D01*
X1748491Y969702D01*
X1809112Y969702D01*
D02*
G37*
G36*
X2069110Y969701D02*
X2069260Y968431D01*
X2067581Y968028D01*
X2062927Y966100D01*
X2058633Y963469D01*
X2054803Y960197D01*
X2051531Y956367D01*
X2048900Y952073D01*
X2046972Y947419D01*
X2045796Y942521D01*
X2045401Y937500D01*
X2045796Y932479D01*
X2046972Y927581D01*
X2048900Y922927D01*
X2051531Y918633D01*
X2054803Y914803D01*
X2058633Y911531D01*
X2062927Y908900D01*
X2067581Y906972D01*
X2072479Y905796D01*
X2077500Y905401D01*
X2082521Y905796D01*
X2087419Y906972D01*
X2092073Y908900D01*
X2096367Y911531D01*
X2100197Y914803D01*
X2103469Y918633D01*
X2106100Y922927D01*
X2108028Y927581D01*
X2108432Y929264D01*
X2109702Y929114D01*
X2109702Y840822D01*
X2108432Y840569D01*
X2108232Y841052D01*
X2107250Y842332D01*
Y844500D01*
X2105082D01*
X2103802Y845482D01*
X2100883Y846691D01*
X2097750Y847104D01*
X2059263D01*
X2053104Y853263D01*
Y875534D01*
X2052691Y878667D01*
X2051482Y881586D01*
X2049559Y884093D01*
X2037843Y895808D01*
X2035336Y897732D01*
X2032417Y898941D01*
X2029284Y899353D01*
X2013000D01*
X2009867Y898941D01*
X2008199Y898250D01*
X2002776D01*
X2002290Y899423D01*
X2002809Y899941D01*
X2004732Y902448D01*
X2005941Y905367D01*
X2006354Y908500D01*
Y912737D01*
X2008763Y915146D01*
X2013000D01*
X2016133Y915559D01*
X2017801Y916250D01*
X2025000D01*
Y926463D01*
X2025104Y927250D01*
X2025000Y928037D01*
Y938250D01*
X2017801D01*
X2016133Y938941D01*
X2013000Y939354D01*
X2003750D01*
X2000617Y938941D01*
X1997698Y937732D01*
X1995191Y935808D01*
X1985692Y926309D01*
X1983768Y923802D01*
X1982559Y920883D01*
X1982146Y917750D01*
Y913513D01*
X1980361Y911728D01*
X1979158Y912321D01*
X1979320Y913550D01*
Y920300D01*
X1971251D01*
Y921050D01*
X1970501D01*
Y936520D01*
X1969163Y936344D01*
X1967217Y935538D01*
X1965546Y934256D01*
X1964263Y932585D01*
X1963457Y930638D01*
X1963220Y928839D01*
X1962463Y928528D01*
X1961912Y928511D01*
X1961752Y928750D01*
X1959917Y929977D01*
X1958501Y930258D01*
Y924749D01*
X1957001D01*
Y930258D01*
X1955585Y929977D01*
X1953750Y928750D01*
X1953251D01*
X1951415Y929977D01*
X1949250Y930407D01*
X1947084Y929977D01*
X1945961Y929226D01*
X1945000Y928848D01*
X1944039Y929226D01*
X1942916Y929977D01*
X1940751Y930407D01*
X1938585Y929977D01*
X1936750Y928750D01*
X1936251D01*
X1934415Y929977D01*
X1932249Y930407D01*
X1930084Y929977D01*
X1928961Y929226D01*
X1928000Y928848D01*
X1927039Y929226D01*
X1925916Y929977D01*
X1923751Y930407D01*
X1921585Y929977D01*
X1919749Y928750D01*
X1919250D01*
X1917415Y929977D01*
X1915249Y930407D01*
X1913084Y929977D01*
X1911961Y929226D01*
X1911000Y928848D01*
X1910039Y929226D01*
X1908916Y929977D01*
X1906750Y930407D01*
X1904585Y929977D01*
X1902749Y928750D01*
X1902250D01*
X1900414Y929977D01*
X1898999Y930258D01*
Y924749D01*
X1897499D01*
Y930258D01*
X1896084Y929977D01*
X1894248Y928750D01*
X1894088Y928511D01*
X1893537Y928528D01*
X1892780Y928839D01*
X1892543Y930638D01*
X1891737Y932585D01*
X1890455Y934256D01*
X1888783Y935538D01*
X1886837Y936344D01*
X1885499Y936520D01*
Y921050D01*
Y905580D01*
X1886837Y905756D01*
X1888783Y906562D01*
X1890455Y907844D01*
X1891660Y909416D01*
X1892079Y909437D01*
X1892993Y909228D01*
X1893021Y909086D01*
X1894248Y907250D01*
X1896084Y906023D01*
X1897499Y905742D01*
Y911251D01*
X1898999D01*
Y905742D01*
X1899873Y905915D01*
X1900085Y905871D01*
X1900976Y905220D01*
X1901143Y904982D01*
Y894000D01*
X1901349Y892964D01*
X1901559Y891368D01*
X1902768Y888449D01*
X1904691Y885942D01*
X1907198Y884018D01*
X1910117Y882809D01*
X1913250Y882397D01*
X1969412D01*
Y873433D01*
X1968348Y871841D01*
X1967882Y869500D01*
X1968348Y867159D01*
X1969674Y865174D01*
X1971659Y863848D01*
X1974000Y863382D01*
X1976341Y863848D01*
X1978326Y865174D01*
X1979652Y867159D01*
X1980117Y869500D01*
X1979652Y871841D01*
X1978588Y873433D01*
Y882397D01*
X1980250D01*
X1983383Y882809D01*
X1986302Y884018D01*
X1988809Y885942D01*
X1999827Y896960D01*
X2001000Y896474D01*
Y888037D01*
X2000896Y887250D01*
X2001000Y886463D01*
Y876250D01*
X2008199D01*
X2009867Y875559D01*
X2013000Y875146D01*
X2024271D01*
X2028896Y870521D01*
Y856706D01*
X2028000Y855589D01*
X2019750D01*
Y855800D01*
X2001750D01*
Y855589D01*
X1990250D01*
X1989470Y855434D01*
X1988808Y854992D01*
X1988556Y854615D01*
X1987385Y854694D01*
X1987235Y854749D01*
X1987080Y855526D01*
X1986358Y856608D01*
X1981858Y861107D01*
X1980776Y861830D01*
X1979500Y862084D01*
X1892997D01*
X1892566Y863354D01*
X1894308Y864691D01*
X1896232Y867198D01*
X1897441Y870117D01*
X1897854Y873250D01*
X1897441Y876383D01*
X1896232Y879302D01*
X1894308Y881808D01*
X1891802Y883732D01*
X1888883Y884941D01*
X1885750Y885354D01*
X1847250D01*
X1844117Y884941D01*
X1841198Y883732D01*
X1838692Y881808D01*
X1817487Y860603D01*
X1782000D01*
X1782000Y860604D01*
X1723763D01*
X1673560Y910807D01*
Y911140D01*
X1674627Y913715D01*
X1675125Y917500D01*
X1674965Y918717D01*
X1676104Y919279D01*
X1714942Y880442D01*
X1717448Y878518D01*
X1720367Y877309D01*
X1723500Y876896D01*
X1781500D01*
X1784633Y877309D01*
X1785094Y877500D01*
X1794000D01*
Y895626D01*
X1795173Y896112D01*
X1802491Y888794D01*
X1802383Y888250D01*
X1802848Y885909D01*
X1804174Y883924D01*
X1806159Y882598D01*
X1808500Y882132D01*
X1810841Y882598D01*
X1812274Y883556D01*
X1813431Y883427D01*
X1813773Y883146D01*
X1814924Y881424D01*
X1816909Y880098D01*
X1819250Y879632D01*
X1821591Y880098D01*
X1823576Y881424D01*
X1824902Y883409D01*
X1825367Y885750D01*
X1824902Y888091D01*
X1823576Y890076D01*
X1821591Y891402D01*
X1819250Y891868D01*
X1818890Y891796D01*
X1803326Y907360D01*
X1804045Y908437D01*
X1807581Y906972D01*
X1812479Y905796D01*
X1817500Y905401D01*
X1822521Y905796D01*
X1827419Y906972D01*
X1832073Y908900D01*
X1836367Y911531D01*
X1840197Y914803D01*
X1843469Y918633D01*
X1846100Y922927D01*
X1848028Y927581D01*
X1849204Y932479D01*
X1849599Y937500D01*
X1849204Y942521D01*
X1848028Y947419D01*
X1846100Y952073D01*
X1843469Y956367D01*
X1840197Y960197D01*
X1836367Y963469D01*
X1832073Y966100D01*
X1827419Y968028D01*
X1825738Y968432D01*
X1825888Y969702D01*
X2069110Y969701D01*
D02*
G37*
G36*
X1610236Y778681D02*
X1610366Y778028D01*
X1611089Y776946D01*
X1659915Y728120D01*
Y688887D01*
X1611897D01*
X1611891Y688933D01*
X1610682Y691852D01*
X1608759Y694359D01*
X1606252Y696282D01*
X1603333Y697491D01*
X1600535Y697859D01*
Y699140D01*
X1603333Y699509D01*
X1606252Y700718D01*
X1608759Y702642D01*
X1610682Y705148D01*
X1611891Y708067D01*
X1612304Y711200D01*
X1611891Y714333D01*
X1610682Y717252D01*
X1608759Y719759D01*
X1606252Y721682D01*
X1603333Y722891D01*
X1600535Y723260D01*
Y724540D01*
X1603333Y724909D01*
X1606252Y726118D01*
X1608759Y728042D01*
X1610682Y730548D01*
X1611891Y733467D01*
X1612304Y736600D01*
X1611891Y739733D01*
X1610682Y742652D01*
X1608759Y745158D01*
X1606252Y747082D01*
X1603333Y748291D01*
X1600535Y748660D01*
Y749940D01*
X1603333Y750309D01*
X1606252Y751518D01*
X1608759Y753441D01*
X1610682Y755948D01*
X1611891Y758867D01*
X1612304Y762000D01*
X1611891Y765133D01*
X1610682Y768052D01*
X1608759Y770558D01*
X1606252Y772482D01*
X1603333Y773691D01*
X1600535Y774060D01*
Y775340D01*
X1603333Y775709D01*
X1606252Y776918D01*
X1608759Y778841D01*
X1608878Y778998D01*
X1610236Y778681D01*
D02*
G37*
G36*
X1631626Y583409D02*
Y556249D01*
X1630453Y555762D01*
X1612178Y574038D01*
X1611096Y574760D01*
X1609820Y575014D01*
X1609252Y576284D01*
X1610682Y578148D01*
X1611891Y581067D01*
X1612205Y583450D01*
X1600200D01*
Y584950D01*
X1612205D01*
X1611891Y587333D01*
X1610682Y590252D01*
X1608975Y592476D01*
X1609395Y593746D01*
X1621289D01*
X1631626Y583409D01*
D02*
G37*
G36*
X1659915Y680620D02*
X1659906Y680576D01*
Y625471D01*
X1659863Y625250D01*
Y551300D01*
X1656250D01*
Y546300D01*
X1654250D01*
Y551300D01*
X1648750D01*
X1648604Y552510D01*
Y615330D01*
X1648350Y616606D01*
X1647628Y617687D01*
X1610765Y654550D01*
X1611891Y657267D01*
X1612304Y660400D01*
X1611891Y663533D01*
X1610682Y666452D01*
X1608759Y668959D01*
X1606252Y670882D01*
X1603333Y672091D01*
X1600535Y672459D01*
Y673740D01*
X1603333Y674109D01*
X1606252Y675318D01*
X1608759Y677242D01*
X1610682Y679748D01*
X1611706Y682219D01*
X1659915D01*
Y680620D01*
D02*
G37*
G36*
X1706166Y592619D02*
Y534631D01*
X1702190Y530656D01*
X1700920D01*
X1700163Y531413D01*
X1699171Y532076D01*
X1698000Y532309D01*
X1697750Y533553D01*
Y535750D01*
X1684750D01*
Y525750D01*
X1686441D01*
Y521999D01*
X1684525Y520083D01*
X1683600Y519250D01*
X1678235D01*
X1677749Y520423D01*
X1681913Y524587D01*
X1682576Y525579D01*
X1682809Y526750D01*
X1682809Y526750D01*
Y527442D01*
X1682830Y527474D01*
X1683084Y528750D01*
Y602012D01*
X1684076Y602674D01*
X1685402Y604659D01*
X1685867Y607000D01*
X1685402Y609341D01*
X1684076Y611326D01*
X1682091Y612652D01*
X1679750Y613117D01*
X1677409Y612652D01*
X1675424Y611326D01*
X1674098Y609341D01*
X1673633Y607000D01*
X1674098Y604659D01*
X1675424Y602674D01*
X1676416Y602012D01*
Y551300D01*
X1673250D01*
Y546300D01*
X1671250D01*
Y551300D01*
X1666531D01*
Y621916D01*
X1676869D01*
X1706166Y592619D01*
D02*
G37*
G36*
X1618151Y898106D02*
X1618059Y897883D01*
X1617646Y894750D01*
X1618059Y891617D01*
X1619268Y888698D01*
X1621192Y886191D01*
X1698941Y808441D01*
X1701448Y806518D01*
X1704367Y805309D01*
X1707500Y804896D01*
X1763771D01*
X1768396Y800271D01*
Y616250D01*
Y512000D01*
X1768809Y508867D01*
X1770018Y505948D01*
X1771942Y503442D01*
X1827191Y448191D01*
X1856212Y419171D01*
X1855586Y418001D01*
X1855000Y418117D01*
X1852659Y417652D01*
X1851067Y416588D01*
X1646900D01*
X1628088Y435401D01*
Y483000D01*
X1627739Y484756D01*
X1626744Y486244D01*
X1610787Y502202D01*
X1611891Y504867D01*
X1612304Y508000D01*
X1611891Y511133D01*
X1610682Y514052D01*
X1608759Y516558D01*
X1606252Y518482D01*
X1603333Y519691D01*
X1600535Y520060D01*
Y521340D01*
X1603333Y521709D01*
X1606050Y522835D01*
X1619166Y509719D01*
Y498750D01*
X1619420Y497474D01*
X1620143Y496393D01*
X1656116Y460419D01*
Y453500D01*
X1654450D01*
Y440500D01*
X1664450D01*
Y453500D01*
X1662784D01*
Y461800D01*
X1662530Y463076D01*
X1661808Y464157D01*
X1625834Y500131D01*
Y511100D01*
X1625580Y512376D01*
X1624857Y513457D01*
X1610765Y527550D01*
X1611891Y530267D01*
X1612304Y533400D01*
X1611891Y536533D01*
X1610682Y539452D01*
X1608759Y541959D01*
X1606252Y543882D01*
X1603333Y545091D01*
X1600535Y545460D01*
Y546740D01*
X1603333Y547109D01*
X1606252Y548318D01*
X1608759Y550242D01*
X1610682Y552748D01*
X1611891Y555667D01*
X1612304Y558800D01*
X1611891Y561933D01*
X1611067Y563922D01*
X1612144Y564641D01*
X1627166Y549619D01*
Y520750D01*
X1627420Y519474D01*
X1628143Y518392D01*
X1641393Y505142D01*
X1642474Y504420D01*
X1643750Y504166D01*
X1645750D01*
X1647026Y504420D01*
X1647058Y504441D01*
X1650200D01*
Y495750D01*
Y482850D01*
X1657300D01*
Y481850D01*
X1659450D01*
Y486350D01*
Y490850D01*
X1659200D01*
Y491450D01*
Y495750D01*
Y500050D01*
Y504350D01*
Y508650D01*
Y511250D01*
X1674600D01*
Y508650D01*
Y504350D01*
Y500050D01*
Y495750D01*
Y495600D01*
X1683600D01*
Y495841D01*
X1688950D01*
Y489750D01*
X1698950D01*
Y502750D01*
X1693741D01*
X1693019Y504020D01*
X1693270Y504441D01*
X1699250D01*
X1699250Y504441D01*
X1700420Y504674D01*
X1701413Y505337D01*
X1703513Y507437D01*
X1704550Y508000D01*
X1708550D01*
Y514500D01*
Y521000D01*
X1704809D01*
Y523844D01*
X1711857Y530893D01*
X1712580Y531974D01*
X1712834Y533250D01*
Y594000D01*
X1712580Y595276D01*
X1711857Y596357D01*
X1680607Y627607D01*
X1679526Y628330D01*
X1678250Y628584D01*
X1666575D01*
Y680541D01*
X1666583Y680585D01*
Y729501D01*
X1666329Y730777D01*
X1665607Y731858D01*
X1616781Y780685D01*
Y882000D01*
X1616527Y883276D01*
X1615804Y884358D01*
X1612171Y887991D01*
X1612304Y889000D01*
X1611891Y892133D01*
X1610682Y895052D01*
X1608759Y897559D01*
X1608236Y897959D01*
X1608645Y899162D01*
X1617446D01*
X1618151Y898106D01*
D02*
G37*
G36*
X1556972Y927581D02*
X1558900Y922927D01*
X1561531Y918633D01*
X1564803Y914803D01*
X1568633Y911531D01*
X1572927Y908900D01*
X1577581Y906972D01*
X1579868Y906423D01*
X1580212Y905201D01*
X1579056Y904044D01*
X1578061Y902556D01*
X1577752Y901000D01*
X1562800D01*
Y877000D01*
X1567740D01*
Y873308D01*
X1566241Y872159D01*
X1564318Y869652D01*
X1563109Y866733D01*
X1562696Y863600D01*
X1563109Y860467D01*
X1564318Y857548D01*
X1566241Y855042D01*
X1568748Y853118D01*
X1571667Y851909D01*
X1574465Y851541D01*
Y850259D01*
X1571667Y849891D01*
X1568748Y848682D01*
X1566241Y846758D01*
X1564318Y844252D01*
X1563109Y841333D01*
X1562795Y838950D01*
X1574800D01*
Y837450D01*
X1562795D01*
X1563109Y835067D01*
X1564318Y832148D01*
X1566241Y829641D01*
X1568748Y827718D01*
X1571667Y826509D01*
X1574465Y826141D01*
Y824859D01*
X1571667Y824491D01*
X1568748Y823282D01*
X1566241Y821358D01*
X1564318Y818852D01*
X1563109Y815933D01*
X1562696Y812800D01*
X1563109Y809667D01*
X1564318Y806748D01*
X1566241Y804241D01*
X1568748Y802318D01*
X1571667Y801109D01*
X1574465Y800741D01*
Y799460D01*
X1571667Y799091D01*
X1568748Y797882D01*
X1566241Y795958D01*
X1564318Y793452D01*
X1563109Y790533D01*
X1562696Y787400D01*
X1563109Y784267D01*
X1564318Y781348D01*
X1566241Y778841D01*
X1568748Y776918D01*
X1571667Y775709D01*
X1574465Y775340D01*
Y774060D01*
X1571667Y773691D01*
X1568748Y772482D01*
X1566241Y770558D01*
X1564318Y768052D01*
X1563109Y765133D01*
X1562696Y762000D01*
X1563109Y758867D01*
X1564318Y755948D01*
X1566241Y753441D01*
X1568748Y751518D01*
X1571667Y750309D01*
X1574465Y749940D01*
Y748660D01*
X1571667Y748291D01*
X1568748Y747082D01*
X1566241Y745158D01*
X1564318Y742652D01*
X1563109Y739733D01*
X1562795Y737350D01*
X1574800D01*
Y735850D01*
X1562795D01*
X1563109Y733467D01*
X1564318Y730548D01*
X1566241Y728042D01*
X1568748Y726118D01*
X1571667Y724909D01*
X1574465Y724540D01*
Y723260D01*
X1571667Y722891D01*
X1568748Y721682D01*
X1566241Y719759D01*
X1564318Y717252D01*
X1563109Y714333D01*
X1562696Y711200D01*
X1563109Y708067D01*
X1564318Y705148D01*
X1566241Y702642D01*
X1568748Y700718D01*
X1571667Y699509D01*
X1574465Y699140D01*
Y697859D01*
X1571667Y697491D01*
X1568748Y696282D01*
X1566241Y694359D01*
X1564318Y691852D01*
X1563109Y688933D01*
X1562696Y685800D01*
X1563109Y682667D01*
X1564318Y679748D01*
X1566241Y677242D01*
X1568748Y675318D01*
X1571667Y674109D01*
X1574465Y673740D01*
Y672459D01*
X1571667Y672091D01*
X1568748Y670882D01*
X1566241Y668959D01*
X1564318Y666452D01*
X1563109Y663533D01*
X1562795Y661150D01*
X1574800D01*
Y659650D01*
X1562795D01*
X1563109Y657267D01*
X1564318Y654348D01*
X1566241Y651842D01*
X1568748Y649918D01*
X1571667Y648709D01*
X1574465Y648341D01*
Y647059D01*
X1571667Y646691D01*
X1568748Y645482D01*
X1566241Y643559D01*
X1564318Y641052D01*
X1563109Y638133D01*
X1562696Y635000D01*
X1563109Y631867D01*
X1564318Y628948D01*
X1566241Y626441D01*
X1568748Y624518D01*
X1571667Y623309D01*
X1574465Y622940D01*
Y621660D01*
X1571667Y621291D01*
X1568748Y620082D01*
X1566241Y618158D01*
X1564318Y615652D01*
X1563109Y612733D01*
X1562696Y609600D01*
X1563109Y606467D01*
X1564318Y603548D01*
X1566241Y601041D01*
X1568748Y599118D01*
X1571667Y597909D01*
X1574465Y597541D01*
Y596259D01*
X1571667Y595891D01*
X1568748Y594682D01*
X1566241Y592758D01*
X1564318Y590252D01*
X1563109Y587333D01*
X1562696Y584200D01*
X1563109Y581067D01*
X1564318Y578148D01*
X1566241Y575642D01*
X1568748Y573718D01*
X1571667Y572509D01*
X1574465Y572141D01*
Y570859D01*
X1571667Y570491D01*
X1568748Y569282D01*
X1566241Y567359D01*
X1564318Y564852D01*
X1563109Y561933D01*
X1562696Y558800D01*
X1563109Y555667D01*
X1564318Y552748D01*
X1566241Y550242D01*
X1568748Y548318D01*
X1571667Y547109D01*
X1574465Y546740D01*
Y545460D01*
X1571667Y545091D01*
X1568748Y543882D01*
X1566241Y541959D01*
X1564318Y539452D01*
X1563109Y536533D01*
X1562795Y534150D01*
X1574800D01*
Y532650D01*
X1562795D01*
X1563109Y530267D01*
X1564318Y527348D01*
X1566241Y524841D01*
X1568748Y522918D01*
X1571667Y521709D01*
X1574465Y521340D01*
Y520060D01*
X1571667Y519691D01*
X1568748Y518482D01*
X1566241Y516558D01*
X1564318Y514052D01*
X1563109Y511133D01*
X1562696Y508000D01*
X1563109Y504867D01*
X1564318Y501948D01*
X1566241Y499441D01*
X1568748Y497518D01*
X1571667Y496309D01*
X1574465Y495941D01*
Y494660D01*
X1571667Y494291D01*
X1568748Y493082D01*
X1566241Y491158D01*
X1564318Y488652D01*
X1563109Y485733D01*
X1562795Y483350D01*
X1574800D01*
Y481850D01*
X1562795D01*
X1563109Y479467D01*
X1564318Y476548D01*
X1566241Y474041D01*
X1568748Y472118D01*
X1571667Y470909D01*
X1574465Y470541D01*
Y469259D01*
X1571667Y468891D01*
X1568748Y467682D01*
X1566241Y465759D01*
X1564318Y463252D01*
X1563109Y460333D01*
X1562696Y457200D01*
X1563109Y454067D01*
X1564318Y451148D01*
X1566241Y448642D01*
X1568748Y446718D01*
X1571667Y445509D01*
X1574465Y445140D01*
Y443859D01*
X1571667Y443491D01*
X1568748Y442282D01*
X1566241Y440359D01*
X1564318Y437852D01*
X1563109Y434933D01*
X1562696Y431800D01*
X1563109Y428667D01*
X1564318Y425748D01*
X1566241Y423242D01*
X1568748Y421318D01*
X1571667Y420109D01*
X1574465Y419740D01*
Y418460D01*
X1571667Y418091D01*
X1568748Y416882D01*
X1566241Y414958D01*
X1564318Y412452D01*
X1563109Y409533D01*
X1562696Y406400D01*
X1563109Y403267D01*
X1564318Y400348D01*
X1566241Y397841D01*
X1568748Y395918D01*
X1571667Y394709D01*
X1574800Y394296D01*
X1577933Y394709D01*
X1580852Y395918D01*
X1583358Y397841D01*
X1585282Y400348D01*
X1586491Y403267D01*
X1586859Y406065D01*
X1588141D01*
X1588509Y403267D01*
X1589718Y400348D01*
X1591642Y397841D01*
X1594148Y395918D01*
X1597067Y394709D01*
X1599450Y394395D01*
Y406400D01*
X1600200D01*
Y407150D01*
X1612205D01*
X1611891Y409533D01*
X1610682Y412452D01*
X1608759Y414958D01*
X1606252Y416882D01*
X1603333Y418091D01*
X1600535Y418460D01*
Y419740D01*
X1603333Y420109D01*
X1606252Y421318D01*
X1608759Y423242D01*
X1610682Y425748D01*
X1611379Y427431D01*
X1612700Y427301D01*
X1612761Y426994D01*
X1613756Y425506D01*
X1638756Y400506D01*
X1640244Y399511D01*
X1642000Y399162D01*
X1863100D01*
X1929006Y333256D01*
X1930494Y332261D01*
X1932250Y331912D01*
X2034000D01*
X2035756Y332261D01*
X2037244Y333256D01*
X2041994Y338006D01*
X2042989Y339494D01*
X2043338Y341250D01*
Y393349D01*
X2102213Y452225D01*
X2104091Y452598D01*
X2106076Y453924D01*
X2107402Y455909D01*
X2107867Y458250D01*
X2107402Y460591D01*
X2106076Y462576D01*
X2104091Y463902D01*
X2101750Y464367D01*
X2099409Y463902D01*
X2097424Y462576D01*
X2096098Y460591D01*
X2095725Y458713D01*
X2035506Y398494D01*
X2034511Y397006D01*
X2034162Y395250D01*
Y343150D01*
X2032099Y341088D01*
X1934151D01*
X1932303Y342936D01*
X1933022Y344012D01*
X1934117Y343559D01*
X1937250Y343146D01*
X2017000D01*
X2017787Y343250D01*
X2029000D01*
Y354463D01*
X2029104Y355250D01*
Y438237D01*
X2084809Y493941D01*
X2086219Y495779D01*
X2087576Y495462D01*
X2087761Y494534D01*
X2088756Y493046D01*
X2096543Y485258D01*
X2096098Y484591D01*
X2095632Y482250D01*
X2096098Y479909D01*
X2097424Y477924D01*
X2099409Y476598D01*
X2101750Y476132D01*
X2104091Y476598D01*
X2106076Y477924D01*
X2107402Y479909D01*
X2107867Y482250D01*
X2107402Y484591D01*
X2106338Y486183D01*
Y486540D01*
X2105989Y488296D01*
X2104994Y489784D01*
X2096588Y498190D01*
Y625350D01*
X2100463Y629225D01*
X2102341Y629598D01*
X2104326Y630924D01*
X2105652Y632909D01*
X2106118Y635250D01*
X2105652Y637591D01*
X2104326Y639576D01*
X2102341Y640902D01*
X2100000Y641368D01*
X2097659Y640902D01*
X2095674Y639576D01*
X2094348Y637591D01*
X2093975Y635713D01*
X2089624Y631362D01*
X2088354Y631888D01*
Y649648D01*
X2088720Y649835D01*
X2089624Y649985D01*
X2090975Y648225D01*
X2092959Y646702D01*
X2095270Y645745D01*
X2097000Y645517D01*
Y655000D01*
X2097750D01*
Y655750D01*
X2107233D01*
X2107005Y657480D01*
X2106048Y659791D01*
X2104525Y661776D01*
X2102541Y663298D01*
X2100230Y664256D01*
X2099440Y664360D01*
Y665640D01*
X2100230Y665744D01*
X2102541Y666702D01*
X2104525Y668224D01*
X2106048Y670209D01*
X2107005Y672520D01*
X2107332Y675000D01*
X2107005Y677480D01*
X2106048Y679791D01*
X2104525Y681775D01*
X2102541Y683298D01*
X2100230Y684256D01*
X2099440Y684360D01*
Y685640D01*
X2100230Y685745D01*
X2102541Y686702D01*
X2104525Y688225D01*
X2106048Y690209D01*
X2107005Y692520D01*
X2107332Y695000D01*
X2107005Y697480D01*
X2106048Y699791D01*
X2104525Y701776D01*
X2102541Y703298D01*
X2100230Y704256D01*
X2099440Y704360D01*
Y705640D01*
X2100230Y705745D01*
X2102541Y706702D01*
X2104525Y708225D01*
X2106048Y710209D01*
X2107005Y712520D01*
X2107332Y715000D01*
X2107005Y717480D01*
X2106048Y719791D01*
X2104525Y721776D01*
X2102541Y723298D01*
X2100230Y724256D01*
X2099440Y724360D01*
Y725640D01*
X2100230Y725744D01*
X2102541Y726702D01*
X2104525Y728225D01*
X2106048Y730209D01*
X2107005Y732520D01*
X2107332Y735000D01*
X2107005Y737480D01*
X2106048Y739791D01*
X2104525Y741776D01*
X2102541Y743298D01*
X2100230Y744256D01*
X2099440Y744360D01*
Y745640D01*
X2100230Y745745D01*
X2102541Y746702D01*
X2104525Y748225D01*
X2106048Y750209D01*
X2107005Y752520D01*
X2107332Y755000D01*
X2107005Y757480D01*
X2106048Y759791D01*
X2104525Y761776D01*
X2102541Y763298D01*
X2100230Y764256D01*
X2099440Y764360D01*
Y765640D01*
X2100230Y765744D01*
X2102541Y766702D01*
X2104525Y768224D01*
X2106048Y770209D01*
X2107005Y772520D01*
X2107332Y775000D01*
X2107005Y777480D01*
X2106048Y779791D01*
X2104525Y781775D01*
X2102541Y783298D01*
X2100230Y784256D01*
X2099440Y784360D01*
Y785640D01*
X2100230Y785745D01*
X2102541Y786702D01*
X2104525Y788225D01*
X2106048Y790209D01*
X2107005Y792520D01*
X2107332Y795000D01*
X2107005Y797480D01*
X2106048Y799791D01*
X2104525Y801776D01*
X2102541Y803298D01*
X2100230Y804256D01*
X2099440Y804360D01*
Y805640D01*
X2100230Y805744D01*
X2102541Y806702D01*
X2104525Y808224D01*
X2106048Y810209D01*
X2107005Y812520D01*
X2107332Y815000D01*
X2107005Y817480D01*
X2106048Y819791D01*
X2104525Y821775D01*
X2103114Y822859D01*
X2103299Y824310D01*
X2103802Y824518D01*
X2105082Y825500D01*
X2107250D01*
Y827668D01*
X2108232Y828948D01*
X2108432Y829431D01*
X2109702Y829178D01*
X2109701Y365890D01*
X2108431Y365739D01*
X2108028Y367419D01*
X2106100Y372073D01*
X2103469Y376367D01*
X2100197Y380197D01*
X2096367Y383469D01*
X2092073Y386100D01*
X2087419Y388028D01*
X2082521Y389204D01*
X2077500Y389599D01*
X2072479Y389204D01*
X2067581Y388028D01*
X2062927Y386100D01*
X2058633Y383469D01*
X2054803Y380197D01*
X2051531Y376367D01*
X2048900Y372073D01*
X2046972Y367419D01*
X2045796Y362521D01*
X2045401Y357500D01*
X2045796Y352479D01*
X2046972Y347581D01*
X2048900Y342927D01*
X2051531Y338633D01*
X2054803Y334803D01*
X2058633Y331531D01*
X2062927Y328900D01*
X2067581Y326972D01*
X2069264Y326568D01*
X2069114Y325298D01*
X1825888Y325298D01*
X1825738Y326568D01*
X1827419Y326972D01*
X1832073Y328900D01*
X1836367Y331531D01*
X1840197Y334803D01*
X1843469Y338633D01*
X1846100Y342927D01*
X1848028Y347581D01*
X1849204Y352479D01*
X1849599Y357500D01*
X1849204Y362521D01*
X1848028Y367419D01*
X1846100Y372073D01*
X1843469Y376367D01*
X1840197Y380197D01*
X1836367Y383469D01*
X1832073Y386100D01*
X1827419Y388028D01*
X1822521Y389204D01*
X1817500Y389599D01*
X1812479Y389204D01*
X1807581Y388028D01*
X1802927Y386100D01*
X1798633Y383469D01*
X1794803Y380197D01*
X1791531Y376367D01*
X1788900Y372073D01*
X1786972Y367419D01*
X1785796Y362521D01*
X1785401Y357500D01*
X1785796Y352479D01*
X1786972Y347581D01*
X1788900Y342927D01*
X1791531Y338633D01*
X1794803Y334803D01*
X1798633Y331531D01*
X1802927Y328900D01*
X1807581Y326972D01*
X1809262Y326568D01*
X1809112Y325298D01*
X1595889Y325299D01*
X1595739Y326569D01*
X1597419Y326972D01*
X1602073Y328900D01*
X1606367Y331531D01*
X1610197Y334803D01*
X1613469Y338633D01*
X1616100Y342927D01*
X1618028Y347581D01*
X1619204Y352479D01*
X1619599Y357500D01*
X1619204Y362521D01*
X1618028Y367419D01*
X1616100Y372073D01*
X1613469Y376367D01*
X1610197Y380197D01*
X1606367Y383469D01*
X1602073Y386100D01*
X1597419Y388028D01*
X1592521Y389204D01*
X1587500Y389599D01*
X1582479Y389204D01*
X1577581Y388028D01*
X1572927Y386100D01*
X1568633Y383469D01*
X1564803Y380197D01*
X1561531Y376367D01*
X1558900Y372073D01*
X1556972Y367419D01*
X1556568Y365736D01*
X1555298Y365886D01*
X1555299Y929111D01*
X1556569Y929261D01*
X1556972Y927581D01*
D02*
G37*
%LPC*%
G36*
X1751250Y932026D02*
Y918250D01*
X1765026D01*
X1764627Y921285D01*
X1763166Y924813D01*
X1760842Y927841D01*
X1757813Y930166D01*
X1754285Y931627D01*
X1751250Y932026D01*
D02*
G37*
G36*
X1749750Y932026D02*
X1746715Y931627D01*
X1743188Y930166D01*
X1740159Y927841D01*
X1737834Y924813D01*
X1736373Y921285D01*
X1735974Y918250D01*
X1749750D01*
Y932026D01*
D02*
G37*
G36*
X1765026Y916750D02*
X1751250D01*
Y902974D01*
X1754285Y903373D01*
X1757813Y904834D01*
X1760842Y907159D01*
X1763166Y910187D01*
X1764627Y913715D01*
X1765026Y916750D01*
D02*
G37*
G36*
X1749750D02*
X1735974D01*
X1736373Y913715D01*
X1737834Y910187D01*
X1740159Y907159D01*
X1743188Y904834D01*
X1746715Y903373D01*
X1749750Y902974D01*
Y916750D01*
D02*
G37*
G36*
X1877750Y844582D02*
X1875270Y844256D01*
X1872959Y843298D01*
X1870975Y841776D01*
X1869452Y839791D01*
X1868495Y837480D01*
X1868168Y835000D01*
X1868495Y832520D01*
X1869452Y830209D01*
X1870975Y828225D01*
X1872959Y826702D01*
X1875270Y825745D01*
X1876060Y825640D01*
Y824360D01*
X1875270Y824256D01*
X1872959Y823298D01*
X1870975Y821776D01*
X1869452Y819791D01*
X1868495Y817480D01*
X1868168Y815000D01*
X1868495Y812520D01*
X1869098Y811063D01*
X1861423Y803388D01*
X1860250Y803874D01*
Y811200D01*
X1847250D01*
Y809934D01*
X1842250D01*
Y812500D01*
X1829250D01*
X1828334Y813355D01*
Y814589D01*
X1828080Y815865D01*
X1827357Y816947D01*
X1825870Y818435D01*
X1824788Y819157D01*
X1823512Y819411D01*
X1821250D01*
Y822000D01*
X1808250D01*
Y820665D01*
X1800569D01*
X1799841Y821152D01*
X1797500Y821618D01*
X1795159Y821152D01*
X1793174Y819826D01*
X1791848Y817841D01*
X1791382Y815500D01*
X1791848Y813159D01*
X1793174Y811174D01*
X1795159Y809848D01*
X1797500Y809382D01*
X1799841Y809848D01*
X1801826Y811174D01*
X1802036Y811489D01*
X1808250D01*
Y811000D01*
X1821250D01*
X1821666Y809902D01*
Y804098D01*
X1821250Y803000D01*
X1820396Y803000D01*
X1815750D01*
Y797500D01*
Y792000D01*
X1820710D01*
X1821250Y792000D01*
X1822367Y791631D01*
X1822643Y791220D01*
X1826008Y787855D01*
X1825550Y786750D01*
X1825550D01*
Y773750D01*
X1835121D01*
Y729836D01*
X1802170Y696885D01*
X1801000Y697117D01*
X1798659Y696652D01*
X1796674Y695326D01*
X1795348Y693341D01*
X1794883Y691000D01*
X1795348Y688659D01*
X1796674Y686674D01*
X1798659Y685348D01*
X1801000Y684883D01*
X1802712Y685223D01*
X1803338Y684053D01*
X1802170Y682885D01*
X1801000Y683118D01*
X1798659Y682652D01*
X1796674Y681326D01*
X1795348Y679341D01*
X1794883Y677000D01*
X1795348Y674659D01*
X1796674Y672674D01*
X1798659Y671348D01*
X1799414Y671198D01*
Y669903D01*
X1799409Y669902D01*
X1797424Y668576D01*
X1796098Y666591D01*
X1795632Y664250D01*
X1796098Y661909D01*
X1797424Y659924D01*
X1799409Y658598D01*
X1801750Y658132D01*
X1804091Y658598D01*
X1806076Y659924D01*
X1807402Y661909D01*
X1807867Y664250D01*
X1807635Y665420D01*
X1855358Y713142D01*
X1856080Y714224D01*
X1856334Y715500D01*
Y748869D01*
X1869502Y762037D01*
X1869582Y762047D01*
X1870033Y761529D01*
X1870279Y760869D01*
X1869452Y759791D01*
X1868495Y757480D01*
X1868168Y755000D01*
X1868495Y752520D01*
X1869452Y750209D01*
X1870975Y748225D01*
X1872959Y746702D01*
X1875270Y745745D01*
X1876060Y745640D01*
Y744360D01*
X1875270Y744256D01*
X1872959Y743298D01*
X1870975Y741776D01*
X1869452Y739791D01*
X1868495Y737480D01*
X1868168Y735000D01*
X1868495Y732520D01*
X1869452Y730209D01*
X1870975Y728225D01*
X1872959Y726702D01*
X1875270Y725744D01*
X1876060Y725640D01*
Y724360D01*
X1875270Y724256D01*
X1872959Y723298D01*
X1870975Y721776D01*
X1869452Y719791D01*
X1868495Y717480D01*
X1868168Y715000D01*
X1868495Y712520D01*
X1869452Y710209D01*
X1870975Y708225D01*
X1872959Y706702D01*
X1875270Y705745D01*
X1876060Y705640D01*
Y704360D01*
X1875270Y704256D01*
X1872959Y703298D01*
X1870975Y701776D01*
X1869452Y699791D01*
X1868495Y697480D01*
X1868168Y695000D01*
X1868495Y692520D01*
X1869452Y690209D01*
X1870975Y688225D01*
X1872959Y686702D01*
X1875270Y685745D01*
X1876060Y685640D01*
Y684360D01*
X1875270Y684256D01*
X1872959Y683298D01*
X1870975Y681776D01*
X1869452Y679791D01*
X1868495Y677480D01*
X1868168Y675000D01*
X1868495Y672520D01*
X1869452Y670209D01*
X1870975Y668225D01*
X1872959Y666702D01*
X1875270Y665745D01*
X1875079Y664500D01*
X1868250D01*
Y658334D01*
X1823000D01*
X1821724Y658080D01*
X1820643Y657357D01*
X1815920Y652635D01*
X1814750Y652868D01*
X1812409Y652402D01*
X1810424Y651076D01*
X1809098Y649091D01*
X1808633Y646750D01*
X1809098Y644409D01*
X1810424Y642424D01*
X1812409Y641098D01*
X1814750Y640632D01*
X1817091Y641098D01*
X1819076Y642424D01*
X1820402Y644409D01*
X1820867Y646750D01*
X1820635Y647920D01*
X1824381Y651666D01*
X1868250D01*
Y645500D01*
X1887250D01*
Y664500D01*
X1880421D01*
X1880230Y665745D01*
X1882541Y666702D01*
X1884525Y668225D01*
X1886048Y670209D01*
X1887005Y672520D01*
X1887332Y675000D01*
X1887005Y677480D01*
X1886048Y679791D01*
X1884525Y681776D01*
X1882541Y683298D01*
X1880230Y684256D01*
X1879440Y684360D01*
Y685640D01*
X1880230Y685745D01*
X1882541Y686702D01*
X1884525Y688225D01*
X1886048Y690209D01*
X1887005Y692520D01*
X1887332Y695000D01*
X1887005Y697480D01*
X1886048Y699791D01*
X1884525Y701776D01*
X1882541Y703298D01*
X1880230Y704256D01*
X1879440Y704360D01*
Y705640D01*
X1880230Y705745D01*
X1882541Y706702D01*
X1884525Y708225D01*
X1886048Y710209D01*
X1887005Y712520D01*
X1887332Y715000D01*
X1887005Y717480D01*
X1886048Y719791D01*
X1884525Y721776D01*
X1882541Y723298D01*
X1880230Y724256D01*
X1879440Y724360D01*
Y725640D01*
X1880230Y725744D01*
X1882541Y726702D01*
X1884525Y728225D01*
X1886048Y730209D01*
X1887005Y732520D01*
X1887332Y735000D01*
X1887005Y737480D01*
X1886048Y739791D01*
X1884525Y741776D01*
X1882541Y743298D01*
X1880230Y744256D01*
X1879440Y744360D01*
Y745640D01*
X1880230Y745745D01*
X1882541Y746702D01*
X1884525Y748225D01*
X1886048Y750209D01*
X1887005Y752520D01*
X1887332Y755000D01*
X1887005Y757480D01*
X1886048Y759791D01*
X1884525Y761776D01*
X1882541Y763298D01*
X1880230Y764256D01*
X1879440Y764360D01*
Y765640D01*
X1880230Y765744D01*
X1882541Y766702D01*
X1884525Y768224D01*
X1886048Y770209D01*
X1887005Y772520D01*
X1887332Y775000D01*
X1887005Y777480D01*
X1886048Y779791D01*
X1884525Y781775D01*
X1882541Y783298D01*
X1880230Y784256D01*
X1879440Y784360D01*
Y785640D01*
X1880230Y785745D01*
X1882541Y786702D01*
X1884525Y788225D01*
X1886048Y790209D01*
X1887005Y792520D01*
X1887332Y795000D01*
X1887005Y797480D01*
X1886048Y799791D01*
X1884525Y801776D01*
X1882541Y803298D01*
X1880230Y804256D01*
X1879440Y804360D01*
Y805640D01*
X1880230Y805745D01*
X1882541Y806702D01*
X1884525Y808225D01*
X1886048Y810209D01*
X1887005Y812520D01*
X1887332Y815000D01*
X1887005Y817480D01*
X1886048Y819791D01*
X1884525Y821776D01*
X1882541Y823298D01*
X1880230Y824256D01*
X1879440Y824360D01*
Y825640D01*
X1880230Y825745D01*
X1882541Y826702D01*
X1884525Y828225D01*
X1886048Y830209D01*
X1887005Y832520D01*
X1887332Y835000D01*
X1887005Y837480D01*
X1886048Y839791D01*
X1884525Y841776D01*
X1882541Y843298D01*
X1880230Y844256D01*
X1877750Y844582D01*
D02*
G37*
G36*
X1813750Y803000D02*
X1808250D01*
Y798500D01*
X1813750D01*
Y803000D01*
D02*
G37*
G36*
Y796500D02*
X1808250D01*
Y792000D01*
X1813750D01*
Y796500D01*
D02*
G37*
G36*
X2030000Y786550D02*
X2024500D01*
Y784550D01*
X2028000D01*
Y782550D01*
X2030000D01*
Y786550D01*
D02*
G37*
G36*
X2022500D02*
X2017000D01*
Y782550D01*
X2019000D01*
Y784550D01*
X2022500D01*
Y786550D01*
D02*
G37*
G36*
X1819950Y786750D02*
X1815950D01*
Y781250D01*
X1819950D01*
Y786750D01*
D02*
G37*
G36*
X1813950D02*
X1809950D01*
Y781250D01*
X1813950D01*
Y786750D01*
D02*
G37*
G36*
X2030000Y780550D02*
X2028000D01*
Y776550D01*
X2030000D01*
Y780550D01*
D02*
G37*
G36*
X2019000D02*
X2017000D01*
Y776550D01*
X2019000D01*
Y780550D01*
D02*
G37*
G36*
X1819950Y779250D02*
X1815950D01*
Y773750D01*
X1819950D01*
Y779250D01*
D02*
G37*
G36*
X1813950D02*
X1809950D01*
Y773750D01*
X1813950D01*
Y779250D01*
D02*
G37*
G36*
X1980500Y787750D02*
X1973500D01*
X1966500D01*
Y783250D01*
Y773750D01*
X1969891D01*
Y769652D01*
X1968718Y769166D01*
X1962000Y775884D01*
Y776800D01*
X1938000D01*
Y774947D01*
X1937961Y774750D01*
Y751604D01*
X1913500D01*
X1910367Y751191D01*
X1909302Y750750D01*
X1901250D01*
Y728750D01*
X1908095D01*
X1910367Y727809D01*
X1913500Y727396D01*
X1937961D01*
Y711800D01*
X1938116Y711020D01*
X1938558Y710358D01*
X1939220Y709916D01*
X1940000Y709761D01*
X2005000D01*
X2005780Y709916D01*
X2006442Y710358D01*
X2006884Y711020D01*
X2007039Y711800D01*
Y744550D01*
X2006884Y745330D01*
X2006442Y745992D01*
X2006842Y747252D01*
X2015500D01*
X2015992Y747350D01*
X2021750D01*
X2021750Y757350D01*
X2015992D01*
X2015500Y757448D01*
X1988848D01*
Y758750D01*
X1988460Y760701D01*
X1987355Y762355D01*
X1980087Y769623D01*
Y773750D01*
X1980500D01*
Y783250D01*
Y787750D01*
D02*
G37*
G36*
X2011000Y741750D02*
X2009000D01*
Y737750D01*
X2011000D01*
Y741750D01*
D02*
G37*
G36*
Y735750D02*
X2009000D01*
Y731750D01*
X2011000D01*
Y735750D01*
D02*
G37*
G36*
X1940000Y692550D02*
X1938000D01*
Y681550D01*
X1940000D01*
Y692550D01*
D02*
G37*
G36*
X1974000Y670550D02*
X1957000D01*
Y668550D01*
X1974000D01*
Y670550D01*
D02*
G37*
G36*
X1940000Y679550D02*
X1938000D01*
Y668550D01*
X1955000D01*
Y670550D01*
X1940000D01*
X1940000Y679550D01*
D02*
G37*
G36*
X1889000Y593250D02*
X1877750D01*
Y582000D01*
X1889000D01*
Y593250D01*
D02*
G37*
G36*
X1876250D02*
X1865000D01*
Y582000D01*
X1876250D01*
Y593250D01*
D02*
G37*
G36*
X2052250Y590117D02*
X2049909Y589652D01*
X2047924Y588326D01*
X2046598Y586341D01*
X2046133Y584000D01*
X2046241Y583456D01*
X1920869Y458084D01*
X1879738D01*
X1879076Y459076D01*
X1877091Y460402D01*
X1874750Y460868D01*
X1872409Y460402D01*
X1870424Y459076D01*
X1869098Y457091D01*
X1868633Y454750D01*
X1869098Y452409D01*
X1870424Y450424D01*
X1872409Y449098D01*
X1874750Y448633D01*
X1877091Y449098D01*
X1879076Y450424D01*
X1879738Y451416D01*
X1922250D01*
X1923526Y451670D01*
X1924608Y452393D01*
X2050455Y578240D01*
X2052250Y577882D01*
X2054591Y578348D01*
X2056576Y579674D01*
X2057902Y581659D01*
X2058367Y584000D01*
X2057902Y586341D01*
X2056576Y588326D01*
X2054591Y589652D01*
X2052250Y590117D01*
D02*
G37*
G36*
X1889000Y580500D02*
X1877750D01*
Y569250D01*
X1889000D01*
Y580500D01*
D02*
G37*
G36*
X1876250D02*
X1865000D01*
Y569250D01*
X1876250D01*
Y580500D01*
D02*
G37*
G36*
X1933350Y627362D02*
X1929956Y626915D01*
X1928600Y626354D01*
X1922466D01*
X1919333Y625941D01*
X1916414Y624732D01*
X1913907Y622808D01*
X1901441Y610343D01*
X1899518Y607836D01*
X1898309Y604917D01*
X1897897Y601784D01*
Y581250D01*
X1898000Y580463D01*
Y569250D01*
X1909213D01*
X1910000Y569146D01*
X1910787Y569250D01*
X1922000D01*
Y580463D01*
X1922104Y581250D01*
Y596771D01*
X1927479Y602146D01*
X1928600D01*
X1929956Y601585D01*
X1933350Y601138D01*
X1936744Y601585D01*
X1939906Y602895D01*
X1942622Y604978D01*
X1944480Y607400D01*
X1945750Y607059D01*
Y601250D01*
X1967167D01*
X1971896Y596521D01*
Y581250D01*
X1972000Y580463D01*
Y569250D01*
X1983213D01*
X1984000Y569146D01*
X1984787Y569250D01*
X1996000D01*
Y580463D01*
X1996104Y581250D01*
Y601534D01*
X1995691Y604667D01*
X1994482Y607586D01*
X1992558Y610093D01*
X1979843Y622808D01*
X1977336Y624732D01*
X1974417Y625941D01*
X1971750Y626292D01*
Y627250D01*
X1945750D01*
Y621441D01*
X1944480Y621100D01*
X1942622Y623522D01*
X1939906Y625606D01*
X1936744Y626915D01*
X1933350Y627362D01*
D02*
G37*
G36*
X1876000Y557883D02*
Y549150D01*
X1884733D01*
X1884505Y550880D01*
X1883548Y553191D01*
X1882025Y555175D01*
X1880041Y556698D01*
X1877730Y557655D01*
X1876000Y557883D01*
D02*
G37*
G36*
X1874500Y557883D02*
X1872770Y557655D01*
X1870459Y556698D01*
X1868474Y555175D01*
X1866952Y553191D01*
X1865995Y550880D01*
X1865767Y549150D01*
X1874500D01*
Y557883D01*
D02*
G37*
G36*
Y547650D02*
X1865767D01*
X1865995Y545920D01*
X1866952Y543609D01*
X1868474Y541624D01*
X1870459Y540102D01*
X1872770Y539145D01*
X1874500Y538917D01*
Y547650D01*
D02*
G37*
G36*
X1884733D02*
X1876000D01*
Y538917D01*
X1877730Y539145D01*
X1880041Y540102D01*
X1882025Y541624D01*
X1883548Y543609D01*
X1884505Y545920D01*
X1884733Y547650D01*
D02*
G37*
G36*
X1833980Y589098D02*
X1831639Y588632D01*
X1829654Y587306D01*
X1828328Y585321D01*
X1827862Y582980D01*
X1828328Y580639D01*
X1829654Y578654D01*
X1830646Y577992D01*
Y527020D01*
X1830900Y525744D01*
X1831622Y524663D01*
X1852392Y503893D01*
X1853474Y503170D01*
X1854750Y502916D01*
X1863619D01*
X1866129Y500406D01*
X1865995Y500080D01*
X1865668Y497600D01*
X1865995Y495120D01*
X1866952Y492809D01*
X1868474Y490825D01*
X1870459Y489302D01*
X1872770Y488344D01*
X1875250Y488018D01*
X1877730Y488344D01*
X1880041Y489302D01*
X1882025Y490825D01*
X1883548Y492809D01*
X1884505Y495120D01*
X1884832Y497600D01*
X1884505Y500080D01*
X1883548Y502391D01*
X1882025Y504375D01*
X1880041Y505898D01*
X1877730Y506856D01*
X1875250Y507182D01*
X1872770Y506856D01*
X1870459Y505898D01*
X1870237Y505728D01*
X1867357Y508607D01*
X1867165Y508736D01*
Y510264D01*
X1867357Y510392D01*
X1871313Y514348D01*
X1872770Y513745D01*
X1875250Y513418D01*
X1877730Y513745D01*
X1880041Y514702D01*
X1882025Y516225D01*
X1883548Y518209D01*
X1884505Y520520D01*
X1884832Y523000D01*
X1884505Y525480D01*
X1883548Y527791D01*
X1882025Y529775D01*
X1880041Y531298D01*
X1877730Y532256D01*
X1875250Y532582D01*
X1872770Y532256D01*
X1870459Y531298D01*
X1868474Y529775D01*
X1866952Y527791D01*
X1865995Y525480D01*
X1865668Y523000D01*
X1865995Y520520D01*
X1866598Y519063D01*
X1863619Y516084D01*
X1857631D01*
X1843834Y529881D01*
Y568762D01*
X1844826Y569424D01*
X1846152Y571409D01*
X1846617Y573750D01*
X1846152Y576091D01*
X1844826Y578076D01*
X1842841Y579402D01*
X1840627Y579842D01*
X1840378Y580041D01*
X1839704Y581004D01*
X1840098Y582980D01*
X1839632Y585321D01*
X1838306Y587306D01*
X1836321Y588632D01*
X1833980Y589098D01*
D02*
G37*
G36*
X2035750Y503368D02*
X2033409Y502902D01*
X2031424Y501576D01*
X2030762Y500584D01*
X2017500D01*
X2016224Y500330D01*
X2015143Y499608D01*
X1965869Y450334D01*
X1942738D01*
X1942076Y451326D01*
X1940091Y452652D01*
X1937750Y453117D01*
X1935409Y452652D01*
X1933424Y451326D01*
X1932098Y449341D01*
X1931633Y447000D01*
X1932098Y444659D01*
X1933424Y442674D01*
X1935409Y441348D01*
X1937750Y440882D01*
X1940091Y441348D01*
X1942076Y442674D01*
X1942738Y443666D01*
X1967250D01*
X1968526Y443920D01*
X1969608Y444642D01*
X2018881Y493916D01*
X2030762D01*
X2031424Y492924D01*
X2033409Y491598D01*
X2035750Y491133D01*
X2038091Y491598D01*
X2040076Y492924D01*
X2041402Y494909D01*
X2041868Y497250D01*
X2041402Y499591D01*
X2040076Y501576D01*
X2038091Y502902D01*
X2035750Y503368D01*
D02*
G37*
G36*
X1950000Y430482D02*
X1947520Y430155D01*
X1945209Y429198D01*
X1943225Y427675D01*
X1941702Y425691D01*
X1940745Y423380D01*
X1940418Y420900D01*
X1940745Y418420D01*
X1941702Y416109D01*
X1943225Y414124D01*
X1945209Y412602D01*
X1947520Y411645D01*
X1950000Y411318D01*
X1952480Y411645D01*
X1954791Y412602D01*
X1956776Y414124D01*
X1958298Y416109D01*
X1959256Y418420D01*
X1959582Y420900D01*
X1959256Y423380D01*
X1958298Y425691D01*
X1956776Y427675D01*
X1954791Y429198D01*
X1952480Y430155D01*
X1950000Y430482D01*
D02*
G37*
G36*
X1992550Y385500D02*
X1988550D01*
Y380000D01*
X1992550D01*
Y385500D01*
D02*
G37*
G36*
X1986550D02*
X1982550D01*
Y380000D01*
X1986550D01*
Y385500D01*
D02*
G37*
G36*
X1992550Y378000D02*
X1988550D01*
Y372500D01*
X1992550D01*
Y378000D01*
D02*
G37*
G36*
X1986550D02*
X1982550D01*
Y372500D01*
X1986550D01*
Y378000D01*
D02*
G37*
G36*
X1959500Y405000D02*
X1940500D01*
Y386000D01*
X1945412D01*
Y382750D01*
X1945761Y380994D01*
X1946756Y379506D01*
X1950506Y375756D01*
X1951994Y374761D01*
X1953750Y374412D01*
X1966950D01*
Y372500D01*
X1976950D01*
Y385500D01*
X1966950D01*
Y383588D01*
X1955650D01*
X1954588Y384650D01*
Y386000D01*
X1959500D01*
Y405000D01*
D02*
G37*
%LPD*%
G36*
X1960250Y774750D02*
X1978750Y756250D01*
X1978750Y728050D01*
X1940000D01*
X1940000Y774750D01*
X1960250Y774750D01*
D02*
G37*
%LPC*%
G36*
X1972001Y966821D02*
Y955600D01*
X1979320D01*
Y958850D01*
X1979045Y960939D01*
X1978239Y962885D01*
X1976957Y964556D01*
X1975286Y965838D01*
X1973340Y966644D01*
X1972001Y966821D01*
D02*
G37*
G36*
X1885499D02*
Y955600D01*
X1892818D01*
Y958850D01*
X1892543Y960939D01*
X1891737Y962885D01*
X1890455Y964556D01*
X1888783Y965838D01*
X1886837Y966644D01*
X1885499Y966821D01*
D02*
G37*
G36*
X1970501Y966821D02*
X1969163Y966644D01*
X1967217Y965838D01*
X1965546Y964556D01*
X1964263Y962885D01*
X1963457Y960939D01*
X1963182Y958850D01*
Y955600D01*
X1970501D01*
Y966821D01*
D02*
G37*
G36*
X1883999D02*
X1882661Y966644D01*
X1880714Y965838D01*
X1879043Y964556D01*
X1877761Y962885D01*
X1876955Y960939D01*
X1876680Y958850D01*
Y955600D01*
X1883999D01*
Y966821D01*
D02*
G37*
G36*
X1979320Y954100D02*
X1972001D01*
Y942880D01*
X1973340Y943056D01*
X1975286Y943862D01*
X1976957Y945145D01*
X1978239Y946816D01*
X1979045Y948762D01*
X1979320Y950850D01*
Y954100D01*
D02*
G37*
G36*
X1892818D02*
X1885499D01*
Y942880D01*
X1886837Y943056D01*
X1888783Y943862D01*
X1890455Y945145D01*
X1891737Y946816D01*
X1892543Y948762D01*
X1892818Y950850D01*
Y954100D01*
D02*
G37*
G36*
X1970501D02*
X1963182D01*
Y950850D01*
X1963457Y948762D01*
X1964263Y946816D01*
X1965546Y945145D01*
X1967217Y943862D01*
X1969163Y943056D01*
X1970501Y942880D01*
Y954100D01*
D02*
G37*
G36*
X1883999D02*
X1876680D01*
Y950850D01*
X1876955Y948762D01*
X1877761Y946816D01*
X1879043Y945145D01*
X1880714Y943862D01*
X1882661Y943056D01*
X1883999Y942880D01*
Y954100D01*
D02*
G37*
G36*
X1972001Y936520D02*
Y921800D01*
X1979320D01*
Y928550D01*
X1979045Y930638D01*
X1978239Y932585D01*
X1976957Y934256D01*
X1975286Y935538D01*
X1973340Y936344D01*
X1972001Y936520D01*
D02*
G37*
G36*
X1883999Y936520D02*
X1882661Y936344D01*
X1880714Y935538D01*
X1879043Y934256D01*
X1877761Y932585D01*
X1876955Y930638D01*
X1876680Y928550D01*
Y921800D01*
X1883999D01*
Y936520D01*
D02*
G37*
G36*
Y920300D02*
X1876680D01*
Y913550D01*
X1876955Y911462D01*
X1877761Y909516D01*
X1879043Y907844D01*
X1880714Y906562D01*
X1882661Y905756D01*
X1883999Y905580D01*
Y920300D01*
D02*
G37*
G36*
X2106000Y897150D02*
X2087000D01*
Y878150D01*
X2106000D01*
Y897150D01*
D02*
G37*
G36*
X2077000D02*
X2058000D01*
Y878150D01*
X2077000D01*
Y897150D01*
D02*
G37*
G36*
X1931500Y878750D02*
X1918000D01*
Y873750D01*
X1931500D01*
Y878750D01*
D02*
G37*
G36*
X1916000D02*
X1902500D01*
Y873750D01*
X1916000D01*
Y878750D01*
D02*
G37*
G36*
X1931500Y871750D02*
X1918000D01*
Y866750D01*
X1931500D01*
Y871750D01*
D02*
G37*
G36*
X1916000D02*
X1902500D01*
Y866750D01*
X1916000D01*
Y871750D01*
D02*
G37*
G36*
X2096500Y871832D02*
X2094020Y871505D01*
X2091709Y870548D01*
X2089724Y869025D01*
X2088202Y867041D01*
X2087245Y864730D01*
X2086918Y862250D01*
X2087245Y859770D01*
X2088202Y857459D01*
X2089724Y855474D01*
X2091709Y853952D01*
X2094020Y852995D01*
X2096500Y852668D01*
X2098980Y852995D01*
X2101291Y853952D01*
X2103275Y855474D01*
X2104798Y857459D01*
X2105755Y859770D01*
X2106082Y862250D01*
X2105755Y864730D01*
X2104798Y867041D01*
X2103275Y869025D01*
X2101291Y870548D01*
X2098980Y871505D01*
X2096500Y871832D01*
D02*
G37*
G36*
X2067500D02*
X2065020Y871505D01*
X2062709Y870548D01*
X2060725Y869025D01*
X2059202Y867041D01*
X2058244Y864730D01*
X2057918Y862250D01*
X2058244Y859770D01*
X2059202Y857459D01*
X2060725Y855474D01*
X2062709Y853952D01*
X2065020Y852995D01*
X2067500Y852668D01*
X2069980Y852995D01*
X2072291Y853952D01*
X2074276Y855474D01*
X2075798Y857459D01*
X2076756Y859770D01*
X2077082Y862250D01*
X2076756Y864730D01*
X2075798Y867041D01*
X2074276Y869025D01*
X2072291Y870548D01*
X2069980Y871505D01*
X2067500Y871832D01*
D02*
G37*
G36*
X1697750Y551350D02*
X1692250D01*
Y547350D01*
X1697750D01*
Y551350D01*
D02*
G37*
G36*
X1690250D02*
X1684750D01*
Y547350D01*
X1690250D01*
Y551350D01*
D02*
G37*
G36*
X1697750Y545350D02*
X1692250D01*
Y541350D01*
X1697750D01*
Y545350D01*
D02*
G37*
G36*
X1690250D02*
X1684750D01*
Y541350D01*
X1690250D01*
Y545350D01*
D02*
G37*
G36*
X1751250Y782026D02*
Y768250D01*
X1765026D01*
X1764627Y771285D01*
X1763166Y774812D01*
X1760842Y777841D01*
X1757813Y780166D01*
X1754285Y781627D01*
X1751250Y782026D01*
D02*
G37*
G36*
X1749750Y782026D02*
X1746715Y781627D01*
X1743188Y780166D01*
X1740159Y777841D01*
X1737834Y774812D01*
X1736373Y771285D01*
X1735974Y768250D01*
X1749750D01*
Y782026D01*
D02*
G37*
G36*
X1765026Y766750D02*
X1751250D01*
Y752974D01*
X1754285Y753373D01*
X1757813Y754834D01*
X1760842Y757159D01*
X1763166Y760187D01*
X1764627Y763715D01*
X1765026Y766750D01*
D02*
G37*
G36*
X1749750D02*
X1735974D01*
X1736373Y763715D01*
X1737834Y760187D01*
X1740159Y757159D01*
X1743188Y754834D01*
X1746715Y753373D01*
X1749750Y752974D01*
Y766750D01*
D02*
G37*
G36*
X1660500Y782125D02*
X1656715Y781627D01*
X1653187Y780166D01*
X1650159Y777841D01*
X1647834Y774812D01*
X1646373Y771285D01*
X1645875Y767500D01*
X1646373Y763715D01*
X1647834Y760187D01*
X1650159Y757159D01*
X1653187Y754834D01*
X1656715Y753373D01*
X1657630Y753253D01*
X1708192Y702691D01*
X1710698Y700768D01*
X1713617Y699559D01*
X1716750Y699146D01*
X1740000D01*
X1740787Y699250D01*
X1751000D01*
Y706449D01*
X1751691Y708117D01*
X1752104Y711250D01*
X1751691Y714383D01*
X1751000Y716051D01*
Y723250D01*
X1740787D01*
X1740000Y723354D01*
X1721763D01*
X1674747Y770370D01*
X1674627Y771285D01*
X1673166Y774812D01*
X1670842Y777841D01*
X1667813Y780166D01*
X1664285Y781627D01*
X1660500Y782125D01*
D02*
G37*
G36*
X1714550Y521000D02*
X1710550D01*
Y515500D01*
X1714550D01*
Y521000D01*
D02*
G37*
G36*
Y513500D02*
X1710550D01*
Y508000D01*
X1714550D01*
Y513500D01*
D02*
G37*
G36*
Y502750D02*
X1710550D01*
Y497250D01*
X1714550D01*
Y502750D01*
D02*
G37*
G36*
X1708550D02*
X1704550D01*
Y497250D01*
X1708550D01*
Y502750D01*
D02*
G37*
G36*
X1714550Y495250D02*
X1710550D01*
Y489750D01*
X1714550D01*
Y495250D01*
D02*
G37*
G36*
X1708550D02*
X1704550D01*
Y489750D01*
X1708550D01*
Y495250D01*
D02*
G37*
G36*
X1683600Y485000D02*
X1680100D01*
Y482850D01*
X1683600D01*
Y485000D01*
D02*
G37*
G36*
Y493600D02*
X1674600D01*
Y491450D01*
Y490850D01*
X1674350D01*
Y486350D01*
Y481850D01*
X1676500D01*
Y482850D01*
X1678100D01*
Y486000D01*
X1679100D01*
Y487000D01*
X1683600D01*
Y489300D01*
X1679100D01*
Y491300D01*
X1683600D01*
Y493600D01*
D02*
G37*
G36*
X1672350Y490850D02*
X1670050D01*
Y486350D01*
Y481850D01*
X1672350D01*
Y486350D01*
Y490850D01*
D02*
G37*
G36*
X1668050D02*
X1665750D01*
Y486350D01*
Y481850D01*
X1668050D01*
Y486350D01*
Y490850D01*
D02*
G37*
G36*
X1663750D02*
X1661450D01*
Y486350D01*
Y481850D01*
X1663750D01*
Y486350D01*
Y490850D01*
D02*
G37*
G36*
X1680050Y453500D02*
X1670050D01*
Y440500D01*
X1680050D01*
Y443166D01*
X1801512D01*
X1802174Y442174D01*
X1804159Y440848D01*
X1806500Y440382D01*
X1808841Y440848D01*
X1810826Y442174D01*
X1812152Y444159D01*
X1812617Y446500D01*
X1812152Y448841D01*
X1810826Y450826D01*
X1808841Y452152D01*
X1806500Y452617D01*
X1804159Y452152D01*
X1802174Y450826D01*
X1801512Y449834D01*
X1680050D01*
Y453500D01*
D02*
G37*
G36*
X2107233Y654250D02*
X2098500D01*
Y645517D01*
X2100230Y645745D01*
X2102541Y646702D01*
X2104525Y648225D01*
X2106048Y650209D01*
X2107005Y652520D01*
X2107233Y654250D01*
D02*
G37*
G36*
X1612205Y405650D02*
X1600950D01*
Y394395D01*
X1603333Y394709D01*
X1606252Y395918D01*
X1608759Y397841D01*
X1610682Y400348D01*
X1611891Y403267D01*
X1612205Y405650D01*
D02*
G37*
G36*
X1889000Y367250D02*
X1877750D01*
Y356000D01*
X1889000D01*
Y367250D01*
D02*
G37*
G36*
X1876250D02*
X1865000D01*
Y356000D01*
X1876250D01*
Y367250D01*
D02*
G37*
G36*
X1889000Y354500D02*
X1877750D01*
Y343250D01*
X1889000D01*
Y354500D01*
D02*
G37*
G36*
X1876250D02*
X1865000D01*
Y343250D01*
X1876250D01*
Y354500D01*
D02*
G37*
%LPD*%
D10*
X1672313Y530565D02*
X1672600Y530700D01*
X1668875Y528950D02*
X1672313Y530565D01*
X1645750Y507500D02*
X1654700D01*
X1645750Y507500D02*
X1645750Y507500D01*
X1645800Y511800D02*
X1654700D01*
X1645750Y511750D02*
X1645800Y511800D01*
X1668875Y528825D02*
Y528950D01*
X1668150Y518000D02*
Y521696D01*
X1667650Y522196D02*
Y527600D01*
X1669050Y515750D02*
Y517100D01*
X1672250Y530700D02*
X1672600D01*
X1667650Y527600D02*
X1668875Y528825D01*
X1668150Y518000D02*
X1669050Y517100D01*
X1667650Y522196D02*
X1668150Y521696D01*
X1654525Y520500D02*
X1659128D01*
X1642750D02*
X1654525D01*
X1654700Y516100D02*
Y520325D01*
X1654525Y520500D02*
X1654700Y520325D01*
X1693250Y529250D02*
X1698000D01*
X1701750Y510000D02*
Y525500D01*
X1698000Y529250D02*
X1701750Y525500D01*
X1673350Y520350D02*
X1679750Y526750D01*
Y528750D01*
X1673350Y515750D02*
Y520350D01*
X1689500Y520732D02*
Y529000D01*
X1679100Y516100D02*
X1684868D01*
X1689500Y520732D01*
Y529000D02*
X1691250Y530750D01*
X1661000Y524250D02*
X1664750Y520500D01*
X1646270Y524250D02*
X1661000D01*
X1659128Y520500D02*
X1660300Y519328D01*
Y515900D02*
Y519328D01*
X1664750Y515750D02*
Y520500D01*
X1660300Y515900D02*
X1660450Y515750D01*
X1689175Y507500D02*
X1699250D01*
X1679100D02*
X1689175D01*
X1687450Y503200D02*
X1689175Y504925D01*
Y507500D01*
X1679100Y503200D02*
X1687450D01*
X1699250Y507500D02*
X1701750Y510000D01*
X1679100Y498900D02*
X1693850D01*
X1693950Y499000D01*
X1679100Y511800D02*
X1693250D01*
X1693950Y512500D01*
D12*
X1623500Y433500D02*
X1645000Y412000D01*
X1855000D01*
X1642000Y403750D02*
X1865000D01*
X1617000Y428750D02*
X1642000Y403750D01*
X1865000D02*
X1932250Y336500D01*
X1623500Y433500D02*
Y483000D01*
X1600200Y506300D02*
X1623500Y483000D01*
X1600200Y506300D02*
Y508000D01*
X1974000Y869500D02*
Y888250D01*
X1980250Y894500D01*
X1798889Y816077D02*
X1814750D01*
X2101750Y482250D02*
Y486540D01*
X2038750Y395250D02*
X2101750Y458250D01*
X2092000Y496290D02*
X2101750Y486540D01*
X2092000Y627250D02*
X2100000Y635250D01*
X2092000Y496290D02*
Y627250D01*
X2038750Y341250D02*
Y395250D01*
X2034000Y336500D02*
X2038750Y341250D01*
X1932250Y336500D02*
X2034000D01*
X1600200Y482600D02*
X1617000Y465800D01*
Y428750D02*
Y465800D01*
X1798312Y815500D02*
X1798889Y816077D01*
X1797500Y815500D02*
X1798312D01*
X1585250Y903750D02*
X1620750D01*
X1629750Y894750D01*
X1574800Y889000D02*
X1582300Y896500D01*
Y900800D01*
X1585250Y903750D01*
X1953750Y379000D02*
X1971950D01*
X1950000Y382750D02*
X1953750Y379000D01*
X1950000Y382750D02*
Y395500D01*
X1996500Y780250D02*
X2001500D01*
X2008700Y781250D02*
X2009000Y781550D01*
X2002500Y781250D02*
X2008700D01*
X1995500Y779250D02*
X1996500Y780250D01*
X2001500D02*
X2002500Y781250D01*
D14*
X1638750Y524500D02*
Y596450D01*
X1600200Y635000D02*
X1638750Y596450D01*
X1866750Y858750D02*
X1979500D01*
X1984000Y795500D02*
Y854250D01*
X1979500Y858750D02*
X1984000Y854250D01*
X1797794Y646000D02*
X1811544Y632250D01*
X1865471D01*
X1865721Y632500D01*
X1797250Y646000D02*
X1797794D01*
X1823000Y655000D02*
X1877750D01*
X1814750Y646750D02*
X1823000Y655000D01*
X1865721Y632500D02*
X1875750D01*
X1842245Y759495D02*
X1877750Y795000D01*
X1842245Y718245D02*
Y759495D01*
X1801000Y677000D02*
X1842245Y718245D01*
X1838455Y728455D02*
Y775705D01*
X1801000Y691000D02*
X1838455Y728455D01*
X1853000Y715500D02*
Y750250D01*
X1801750Y664250D02*
X1853000Y715500D01*
Y750250D02*
X1877750Y775000D01*
X1622500Y498750D02*
Y511100D01*
X1659450Y447000D02*
Y461800D01*
X1622500Y498750D02*
X1659450Y461800D01*
X1838455Y775705D02*
X1877750Y815000D01*
X1830550Y779827D02*
Y788027D01*
X1587320Y597080D02*
X1622670D01*
X1634960Y522930D02*
Y584790D01*
X1622670Y597080D02*
X1634960Y584790D01*
X1587320Y571680D02*
X1609820D01*
X1630500Y520750D02*
Y551000D01*
X1609820Y571680D02*
X1630500Y551000D01*
Y520750D02*
X1643750Y507500D01*
X1635000Y522500D02*
X1645750Y511750D01*
X1635000Y522500D02*
Y522890D01*
X1634960Y522930D02*
X1635000Y522890D01*
X1643750Y507500D02*
X1645750D01*
X1613447Y779304D02*
X1663249Y729501D01*
Y680585D02*
Y729501D01*
X1663241Y625250D02*
Y680576D01*
X1663249Y680585D01*
X1600446Y685554D02*
X1663205D01*
X1600200Y685800D02*
X1600446Y685554D01*
X1663197Y529753D02*
Y625250D01*
X1678250D01*
X1709500Y533250D02*
Y594000D01*
X1678250Y625250D02*
X1709500Y594000D01*
X1701750Y525500D02*
X1709500Y533250D01*
X1600200Y660400D02*
X1600200D01*
X1645270Y525250D02*
Y615330D01*
X1600200Y660400D02*
X1645270Y615330D01*
X1574800Y584200D02*
X1587320Y571680D01*
X1574800Y609600D02*
X1587320Y597080D01*
X1922250Y454750D02*
X2052000Y584500D01*
X1708750Y938750D02*
X1757250D01*
X1689500Y958000D02*
X1708750Y938750D01*
X1757250D02*
X1807750Y888250D01*
X1873650Y497600D02*
X1875250D01*
X1865000Y506250D02*
X1873650Y497600D01*
X1854750Y506250D02*
X1865000D01*
Y512750D02*
X1875250Y523000D01*
X1833980Y527020D02*
Y582980D01*
Y527020D02*
X1854750Y506250D01*
X1814750Y816500D02*
X1815173Y816077D01*
X1823512D01*
X1825000Y814589D01*
Y793577D02*
Y814589D01*
X1853350Y806600D02*
X1853750Y806200D01*
X1836150Y806600D02*
X1853350D01*
X1835750Y807000D02*
X1836150Y806600D01*
X1853750Y821800D02*
Y845750D01*
X1866750Y858750D01*
X1825000Y793577D02*
X1830550Y788027D01*
X1763221Y942750D02*
X1819250Y886721D01*
X1730150Y942750D02*
X1763221D01*
X1819250Y885750D02*
Y886721D01*
X1807750Y888250D02*
X1808500D01*
X1714900Y958000D02*
X1730150Y942750D01*
X1600200Y782675D02*
Y787400D01*
Y782675D02*
X1604625Y778250D01*
Y777375D02*
Y778250D01*
Y777375D02*
X1618750Y763250D01*
X1613447Y779304D02*
Y882000D01*
X1655250Y530700D02*
X1656750D01*
X1664000Y528950D02*
X1668875D01*
X1603541Y885659D02*
X1609787D01*
X1659680Y527770D02*
X1662820D01*
X1600200Y889000D02*
X1603541Y885659D01*
X1656750Y530700D02*
X1659680Y527770D01*
X1663197Y529753D02*
X1664000Y528950D01*
X1662820Y527770D02*
X1664000Y528950D01*
X1609787Y885659D02*
X1613447Y882000D01*
X1677800Y446500D02*
X1806500D01*
X1675550Y448750D02*
X1677800Y446500D01*
X1675050Y448250D02*
X1675550Y448750D01*
X1967250Y447000D02*
X2017500Y497250D01*
X1937750Y447000D02*
X1967250D01*
X2017500Y497250D02*
X2035750D01*
X1600200Y533400D02*
X1622500Y511100D01*
X1874750Y454750D02*
X1922250D01*
X1994428Y780322D02*
X1995500Y779250D01*
X1984000Y795500D02*
X1994428Y785072D01*
Y780322D02*
Y785072D01*
X1840500Y528500D02*
Y573750D01*
Y528500D02*
X1856250Y512750D01*
X1865000D01*
X1679750Y528750D02*
Y607000D01*
X1638750Y524500D02*
X1642750Y520500D01*
X1645270Y525250D02*
X1646270Y524250D01*
D39*
X2013000Y927250D02*
D03*
Y887250D02*
D03*
X1913250Y739750D02*
D03*
Y699750D02*
D03*
X1950000Y805800D02*
D03*
Y765800D02*
D03*
X1782000Y888500D02*
D03*
Y848500D02*
D03*
D40*
X1995500Y798250D02*
D03*
Y779250D02*
D03*
X1973500Y798250D02*
D03*
Y788750D02*
D03*
Y779250D02*
D03*
D41*
X1679100Y511800D02*
D03*
Y507500D02*
D03*
Y503200D02*
D03*
Y498900D02*
D03*
Y494600D02*
D03*
Y490300D02*
D03*
Y486000D02*
D03*
X1654700D02*
D03*
Y490300D02*
D03*
Y494600D02*
D03*
Y498900D02*
D03*
Y503200D02*
D03*
Y507500D02*
D03*
Y511800D02*
D03*
Y516100D02*
D03*
X1679100D02*
D03*
D42*
X1673350Y486350D02*
D03*
X1669050D02*
D03*
X1664750D02*
D03*
X1660450D02*
D03*
Y515750D02*
D03*
X1664750D02*
D03*
X1669050D02*
D03*
X1673350D02*
D03*
D43*
X1987550Y379000D02*
D03*
X1971950D02*
D03*
X1659450Y447000D02*
D03*
X1675050D02*
D03*
X1814950Y780250D02*
D03*
X1830550D02*
D03*
X1709550Y514500D02*
D03*
X1693950D02*
D03*
X1709550Y496250D02*
D03*
X1693950D02*
D03*
D44*
X1853750Y806200D02*
D03*
Y821800D02*
D03*
X2015500Y752350D02*
D03*
Y736750D02*
D03*
X1985250Y752350D02*
D03*
Y736750D02*
D03*
X2009000Y781550D02*
D03*
Y797150D02*
D03*
X2000375Y736750D02*
D03*
Y752350D02*
D03*
X2023500Y797150D02*
D03*
Y781550D02*
D03*
X1655250Y546300D02*
D03*
Y530700D02*
D03*
X1672250Y546300D02*
D03*
Y530700D02*
D03*
X1691250Y546350D02*
D03*
Y530750D02*
D03*
D45*
X1814750Y816500D02*
D03*
Y797500D02*
D03*
X1835750Y807000D02*
D03*
D46*
X2010750Y839800D02*
D03*
X1966750D02*
D03*
D47*
X1740000Y711250D02*
D03*
X1780000D02*
D03*
D48*
X1956000Y730300D02*
D03*
Y680550D02*
D03*
D49*
X1917000Y872750D02*
D03*
X1876500D02*
D03*
D50*
X1877000Y355250D02*
Y371000D01*
X1876500Y371500D02*
X1877000Y371000D01*
X2033492Y812650D02*
X2052750Y793392D01*
Y676250D02*
Y793392D01*
X2018000Y812650D02*
X2033492D01*
X2009125Y821525D02*
Y824025D01*
Y821525D02*
X2018000Y812650D01*
X1780500Y616250D02*
Y805284D01*
X2041000Y848250D02*
X2054250Y835000D01*
X2029284Y887250D02*
X2041000Y875534D01*
Y848250D02*
Y875534D01*
X2054250Y835000D02*
X2076250D01*
X2097750D01*
X2013000Y887250D02*
X2029284D01*
X2076250Y835000D02*
X2076250Y502500D01*
X1949250Y894500D02*
X1976534D01*
X2003750Y927250D02*
X2013000D01*
X1994250Y917750D02*
X2003750Y927250D01*
X1994250Y908500D02*
Y917750D01*
X1980250Y894500D02*
X1994250Y908500D01*
X1976534Y894500D02*
X1980250D01*
X1913250D02*
X1949250D01*
X1665100Y947400D02*
Y957000D01*
Y947400D02*
X1723500Y889000D01*
X1835750Y456750D02*
X1937250Y355250D01*
X1780500Y512000D02*
X1835750Y456750D01*
X1780500Y512000D02*
Y616250D01*
X1937250Y355250D02*
X2017000D01*
Y443250D02*
X2076250Y502500D01*
X2017000Y355250D02*
Y443250D01*
X1847250Y873250D02*
X1885750D01*
X1822500Y848500D02*
X1847250Y873250D01*
X1749750Y766750D02*
X1750500Y767500D01*
X1722500Y766750D02*
X1749750D01*
X1716750Y711250D02*
X1740000D01*
X1660500Y767500D02*
X1716750Y711250D01*
X1782000Y848500D02*
X1822500D01*
X1718750Y848500D02*
X1782000D01*
X1660500Y917500D02*
X1661457Y916543D01*
Y905793D02*
Y916543D01*
Y905793D02*
X1718750Y848500D01*
X1707500Y817000D02*
X1768784D01*
X1629750Y894750D02*
X1707500Y817000D01*
X1768784D02*
X1780500Y805284D01*
X1629750Y894750D02*
Y894750D01*
X1664100Y958000D02*
X1665100Y957000D01*
X1723500Y889000D02*
X1781500D01*
X1782000Y848500D02*
X1782000Y848500D01*
X1910000Y601784D02*
X1922466Y614250D01*
X1933350D01*
X1958750D02*
X1971284D01*
X1984000Y601534D01*
X1877000Y581250D02*
Y593250D01*
X1910000Y581250D02*
Y601784D01*
X1780500Y616250D02*
X1882750D01*
X1913250Y646750D02*
Y699750D01*
X1882750Y616250D02*
X1913250Y646750D01*
X1913500Y739500D02*
X1956500D01*
X2017000Y640500D02*
X2052750Y676250D01*
X2017000Y581250D02*
Y640500D01*
X1984000Y581250D02*
Y601534D01*
D51*
X1906750Y894000D02*
Y905650D01*
Y911251D01*
X1913250Y894500D02*
Y899151D01*
X1906750Y905650D02*
X1913250Y899151D01*
X1995250Y766250D02*
Y767630D01*
X1906750Y911251D02*
Y924749D01*
X1949250Y911251D02*
Y924749D01*
Y894500D02*
Y911251D01*
Y894500D02*
X1949750Y894000D01*
X1993480Y769399D02*
X1995250Y767630D01*
X1988351Y769399D02*
X1993480D01*
X1984250Y773500D02*
X1988351Y769399D01*
X1984250Y773500D02*
Y784650D01*
X1973500Y788750D02*
X1980150D01*
X1984250Y784650D01*
D52*
X1851200Y472200D02*
X1875250D01*
X1835750Y456750D02*
X1851200Y472200D01*
X1574800Y863600D02*
Y889000D01*
D53*
X1974989Y767511D02*
X1983750Y758750D01*
X1974989Y767511D02*
Y778750D01*
X1983750Y752350D02*
Y758750D01*
X1974939Y778800D02*
X1974989Y778750D01*
X1983750Y752350D02*
X2000375D01*
X2015500D01*
D54*
X2006490Y765650D02*
D03*
D55*
X1972500Y728175D02*
D03*
D56*
X2009125Y824025D02*
D03*
D57*
X1959125Y824425D02*
D03*
D58*
X2067500Y887650D02*
D03*
X2096500D02*
D03*
X1875250Y472200D02*
D03*
X1950000Y395500D02*
D03*
X1877750Y655000D02*
D03*
X2097750Y835000D02*
D03*
D59*
X2067500Y862250D02*
D03*
X2096500D02*
D03*
X1875250Y548400D02*
D03*
Y523000D02*
D03*
Y497600D02*
D03*
X1950000Y420900D02*
D03*
X1877750Y675000D02*
D03*
Y695000D02*
D03*
Y715000D02*
D03*
Y735000D02*
D03*
Y755000D02*
D03*
Y775000D02*
D03*
Y795000D02*
D03*
Y815000D02*
D03*
Y835000D02*
D03*
X2097750Y815000D02*
D03*
Y795000D02*
D03*
Y775000D02*
D03*
Y755000D02*
D03*
Y735000D02*
D03*
Y715000D02*
D03*
Y695000D02*
D03*
Y675000D02*
D03*
Y655000D02*
D03*
X1629750Y894750D02*
D03*
D60*
X1971251Y954850D02*
D03*
X1884749D02*
D03*
D61*
Y921050D02*
D03*
X1971251D02*
D03*
D62*
X1957751Y924749D02*
D03*
X1949250D02*
D03*
X1940751D02*
D03*
X1932249D02*
D03*
X1923751D02*
D03*
X1915249D02*
D03*
X1906750D02*
D03*
X1898249D02*
D03*
Y911251D02*
D03*
X1906750D02*
D03*
X1915249D02*
D03*
X1923751D02*
D03*
X1932249D02*
D03*
X1940751D02*
D03*
X1949250D02*
D03*
X1957751D02*
D03*
D63*
X1910000Y581250D02*
D03*
X1984000D02*
D03*
X2017000D02*
D03*
X1877000D02*
D03*
X2017000Y355250D02*
D03*
X1877000D02*
D03*
D64*
X1750500Y917500D02*
D03*
Y767500D02*
D03*
X1660500Y917500D02*
D03*
Y767500D02*
D03*
D65*
X1574800Y889000D02*
D03*
D66*
X1600200Y660400D02*
D03*
X1574800D02*
D03*
X1600200Y685800D02*
D03*
X1574800D02*
D03*
X1600200Y711200D02*
D03*
X1574800D02*
D03*
X1600200Y736600D02*
D03*
X1574800D02*
D03*
X1600200Y762000D02*
D03*
X1574800D02*
D03*
X1600200Y787400D02*
D03*
X1574800D02*
D03*
X1600200Y812800D02*
D03*
X1574800D02*
D03*
X1600200Y838200D02*
D03*
X1574800D02*
D03*
X1600200Y863600D02*
D03*
X1574800D02*
D03*
X1600200Y889000D02*
D03*
Y406400D02*
D03*
X1574800D02*
D03*
X1600200Y431800D02*
D03*
X1574800D02*
D03*
X1600200Y457200D02*
D03*
Y482600D02*
D03*
X1574800D02*
D03*
X1600200Y508000D02*
D03*
X1574800D02*
D03*
X1600200Y533400D02*
D03*
X1574800D02*
D03*
X1600200Y558800D02*
D03*
X1574800D02*
D03*
X1600200Y584200D02*
D03*
X1574800D02*
D03*
X1600200Y609600D02*
D03*
X1574800D02*
D03*
X1600200Y635000D02*
D03*
X1574800D02*
D03*
Y457200D02*
D03*
D67*
X1740300Y958000D02*
D03*
X1714900D02*
D03*
X1689500D02*
D03*
X1933350Y614250D02*
D03*
D68*
X1664100Y958000D02*
D03*
X1958750Y614250D02*
D03*
D69*
X2077500Y937500D02*
D03*
X2077500Y357500D02*
D03*
X1587500D02*
D03*
X1817500D02*
D03*
Y937500D02*
D03*
X1587500D02*
D03*
D70*
X1784145Y828632D02*
D03*
X1721367Y751647D02*
D03*
X1677000Y722500D02*
D03*
X1957500Y658250D02*
D03*
X1624750Y872250D02*
D03*
X1619217Y674026D02*
D03*
X1818416Y734362D02*
D03*
X1853500Y673250D02*
D03*
X1814000Y664500D02*
D03*
X1855000Y412000D02*
D03*
X1797250Y646000D02*
D03*
X1814750Y646750D02*
D03*
X1875750Y632500D02*
D03*
X1974000Y869500D02*
D03*
X1801000Y677000D02*
D03*
Y691000D02*
D03*
X1801750Y664250D02*
D03*
X2101750Y482250D02*
D03*
Y458250D02*
D03*
X1626750Y565500D02*
D03*
X2048000Y447000D02*
D03*
X2100000Y635250D02*
D03*
X1785500Y868250D02*
D03*
X1943750Y872000D02*
D03*
X1927500Y951500D02*
D03*
X1856750Y911500D02*
D03*
X2032250Y909250D02*
D03*
X2101250Y425250D02*
D03*
X1797500Y815500D02*
D03*
X1808500Y888250D02*
D03*
X1819250Y885750D02*
D03*
X1762750Y748750D02*
D03*
X1834500Y505500D02*
D03*
X1688750Y682750D02*
D03*
X1701250Y617250D02*
D03*
X1672250Y583500D02*
D03*
X1561500Y908000D02*
D03*
X1631250Y948750D02*
D03*
X1760935Y522226D02*
D03*
X1619750Y698750D02*
D03*
X1806500Y446500D02*
D03*
X1937750Y447000D02*
D03*
X2035750Y497250D02*
D03*
X2105250Y591500D02*
D03*
X2106750Y501750D02*
D03*
X2044000Y560500D02*
D03*
X1950750Y784000D02*
D03*
X1956895Y515765D02*
D03*
X2052250Y584000D02*
D03*
X1874750Y454750D02*
D03*
X1999000Y717250D02*
D03*
X1955750Y703250D02*
D03*
X1982750Y670750D02*
D03*
X1994250Y766500D02*
D03*
X2033250Y751750D02*
D03*
X1996250Y700750D02*
D03*
X1932000Y670500D02*
D03*
X2037000Y611750D02*
D03*
Y633250D02*
D03*
X2055250Y646750D02*
D03*
X1686250Y465500D02*
D03*
X1702500Y367500D02*
D03*
X1975750Y402250D02*
D03*
X2003000Y509750D02*
D03*
X1747500Y801750D02*
D03*
X1654750Y722500D02*
D03*
Y631750D02*
D03*
Y586500D02*
D03*
X1833980Y582980D02*
D03*
X1840500Y573750D02*
D03*
X1679750Y607000D02*
D03*
M02*
