G04*
G04 #@! TF.GenerationSoftware,Altium Limited,Altium Designer,20.0.13 (296)*
G04*
G04 Layer_Color=65535*
%FSLAX44Y44*%
%MOMM*%
G71*
G01*
G75*
%ADD10C,0.2000*%
%ADD11C,0.1000*%
%ADD12C,0.5000*%
%ADD13C,0.3000*%
%ADD14C,0.2540*%
%ADD15R,0.5000X6.5000*%
G36*
X1689500Y822500D02*
X1705500Y792500D01*
X1721500Y822500D01*
X1689500Y822500D01*
D02*
G37*
D10*
X1680100Y523050D02*
G03*
X1680100Y523050I-1000J0D01*
G01*
X1862550Y459500D02*
X1887950D01*
X1862550D02*
Y561100D01*
X1887950Y459500D02*
Y561100D01*
X1862550D02*
X1887950D01*
X2001000Y875250D02*
X2025250D01*
X1937300Y433600D02*
X1962700D01*
Y382800D02*
Y433600D01*
X1937300Y382800D02*
X1962700D01*
X1937300D02*
Y433600D01*
X1901250Y687750D02*
X1925500D01*
X1792000Y699250D02*
Y723500D01*
X1938000Y753800D02*
X1962250D01*
X1770000Y836500D02*
X1794250D01*
X1651400Y945300D02*
Y970700D01*
X1753000D01*
X1651400Y945300D02*
X1753000D01*
Y970700D01*
X1861334Y964498D02*
X1858002D01*
X1859668D01*
Y956168D01*
X1858002Y954502D01*
X1856335D01*
X1854669Y956168D01*
X1871331Y954502D02*
X1864666D01*
X1871331Y961166D01*
Y962832D01*
X1869664Y964498D01*
X1866332D01*
X1864666Y962832D01*
X2003169Y950498D02*
Y940502D01*
X2008168D01*
X2009834Y942168D01*
Y948832D01*
X2008168Y950498D01*
X2003169D01*
X2013166Y942168D02*
X2014832Y940502D01*
X2018165D01*
X2019831Y942168D01*
Y948832D01*
X2018165Y950498D01*
X2014832D01*
X2013166Y948832D01*
Y947166D01*
X2014832Y945500D01*
X2019831D01*
X1849500Y885332D02*
X1847834Y886998D01*
X1844502D01*
X1842836Y885332D01*
Y878668D01*
X1844502Y877002D01*
X1847834D01*
X1849500Y878668D01*
X1852832Y877002D02*
X1856165D01*
X1854498D01*
Y886998D01*
X1852832Y885332D01*
X1948589Y444332D02*
X1946923Y445998D01*
X1943590D01*
X1941924Y444332D01*
Y442666D01*
X1943590Y441000D01*
X1946923D01*
X1948589Y439334D01*
Y437668D01*
X1946923Y436002D01*
X1943590D01*
X1941924Y437668D01*
X1953587Y436002D02*
X1956919D01*
X1958586Y437668D01*
Y441000D01*
X1956919Y442666D01*
X1953587D01*
X1951921Y441000D01*
Y437668D01*
X1953587Y436002D01*
X1961918Y442666D02*
Y437668D01*
X1963584Y436002D01*
X1968582D01*
Y442666D01*
X1971915Y436002D02*
Y442666D01*
X1976913D01*
X1978579Y441000D01*
Y436002D01*
X1988576Y445998D02*
Y436002D01*
X1983577D01*
X1981911Y437668D01*
Y441000D01*
X1983577Y442666D01*
X1988576D01*
X1969170Y386752D02*
Y396748D01*
X1974169D01*
X1975835Y395082D01*
Y391750D01*
X1974169Y390084D01*
X1969170D01*
X1972502D02*
X1975835Y386752D01*
X1979167D02*
X1982499D01*
X1980833D01*
Y396748D01*
X1979167Y395082D01*
X1987498Y386752D02*
X1990830D01*
X1989164D01*
Y396748D01*
X1987498Y395082D01*
X1683504Y442002D02*
Y451998D01*
X1688502D01*
X1690169Y450332D01*
Y447000D01*
X1688502Y445334D01*
X1683504D01*
X1686836D02*
X1690169Y442002D01*
X1693501D02*
X1696833D01*
X1695167D01*
Y451998D01*
X1693501Y450332D01*
X1701832D02*
X1703498Y451998D01*
X1706830D01*
X1708496Y450332D01*
Y443668D01*
X1706830Y442002D01*
X1703498D01*
X1701832Y443668D01*
Y450332D01*
X1836419Y775002D02*
Y784998D01*
X1841418D01*
X1843084Y783332D01*
Y780000D01*
X1841418Y778334D01*
X1836419D01*
X1839752D02*
X1843084Y775002D01*
X1853081Y784998D02*
X1846416D01*
Y780000D01*
X1849748Y781666D01*
X1851414D01*
X1853081Y780000D01*
Y776668D01*
X1851414Y775002D01*
X1848082D01*
X1846416Y776668D01*
X1841169Y827752D02*
Y837748D01*
X1846168D01*
X1847834Y836082D01*
Y832750D01*
X1846168Y831084D01*
X1841169D01*
X1844502D02*
X1847834Y827752D01*
X1856165D02*
Y837748D01*
X1851166Y832750D01*
X1857831D01*
X1823000Y826668D02*
Y833332D01*
X1821334Y834998D01*
X1818002D01*
X1816335Y833332D01*
Y826668D01*
X1818002Y825002D01*
X1821334D01*
X1819668Y828334D02*
X1823000Y825002D01*
X1821334D02*
X1823000Y826668D01*
X1826332Y825002D02*
X1829664D01*
X1827998D01*
Y834998D01*
X1826332Y833332D01*
X1899666Y766409D02*
Y756412D01*
X1904664D01*
X1906331Y758078D01*
Y764743D01*
X1904664Y766409D01*
X1899666D01*
X1914661Y756412D02*
Y766409D01*
X1909663Y761410D01*
X1916327D01*
X1973502Y754419D02*
X1981832D01*
X1983498Y756086D01*
Y759418D01*
X1981832Y761084D01*
X1973502D01*
X1983498Y769415D02*
X1973502D01*
X1978500Y764416D01*
Y771081D01*
X2020748Y715219D02*
X2010752D01*
Y720218D01*
X2012418Y721884D01*
X2015750D01*
X2017416Y720218D01*
Y715219D01*
Y718552D02*
X2020748Y721884D01*
X2012418Y725216D02*
X2010752Y726882D01*
Y730214D01*
X2012418Y731881D01*
X2014084D01*
X2015750Y730214D01*
Y728548D01*
Y730214D01*
X2017416Y731881D01*
X2019082D01*
X2020748Y730214D01*
Y726882D01*
X2019082Y725216D01*
X1989498Y714219D02*
X1979502D01*
Y719218D01*
X1981168Y720884D01*
X1984500D01*
X1986166Y719218D01*
Y714219D01*
Y717552D02*
X1989498Y720884D01*
Y730881D02*
Y724216D01*
X1982834Y730881D01*
X1981168D01*
X1979502Y729214D01*
Y725882D01*
X1981168Y724216D01*
X2012748Y762385D02*
X2002752D01*
Y767384D01*
X2004418Y769050D01*
X2007750D01*
X2009416Y767384D01*
Y762385D01*
Y765718D02*
X2012748Y769050D01*
Y772382D02*
Y775714D01*
Y774048D01*
X2002752D01*
X2004418Y772382D01*
X1983502Y835386D02*
X1993498D01*
Y842050D01*
Y845382D02*
Y848715D01*
Y847048D01*
X1983502D01*
X1985168Y845382D01*
X1870134Y579193D02*
X1866802D01*
X1868468D01*
Y570862D01*
X1866802Y569196D01*
X1865136D01*
X1863470Y570862D01*
X1873467Y579193D02*
X1880131D01*
Y577527D01*
X1873467Y570862D01*
Y569196D01*
X1943502Y777219D02*
X1953498D01*
Y782218D01*
X1951832Y783884D01*
X1945168D01*
X1943502Y782218D01*
Y777219D01*
X1953498Y793881D02*
Y787216D01*
X1946834Y793881D01*
X1945168D01*
X1943502Y792215D01*
Y788882D01*
X1945168Y787216D01*
X1997293Y712969D02*
X1995627Y711302D01*
Y707970D01*
X1997293Y706304D01*
X2003957D01*
X2005623Y707970D01*
Y711302D01*
X2003957Y712969D01*
X2005623Y716301D02*
Y719633D01*
Y717967D01*
X1995627D01*
X1997293Y716301D01*
Y724632D02*
X1995627Y726298D01*
Y729630D01*
X1997293Y731296D01*
X2003957D01*
X2005623Y729630D01*
Y726298D01*
X2003957Y724632D01*
X1997293D01*
X1951418Y703134D02*
X1949752Y701468D01*
Y698136D01*
X1951418Y696469D01*
X1958082D01*
X1959748Y698136D01*
Y701468D01*
X1958082Y703134D01*
Y706466D02*
X1959748Y708132D01*
Y711464D01*
X1958082Y713131D01*
X1951418D01*
X1949752Y711464D01*
Y708132D01*
X1951418Y706466D01*
X1953084D01*
X1954750Y708132D01*
Y713131D01*
X2021418Y766884D02*
X2019752Y765218D01*
Y761886D01*
X2021418Y760219D01*
X2028082D01*
X2029748Y761886D01*
Y765218D01*
X2028082Y766884D01*
X2021418Y770216D02*
X2019752Y771882D01*
Y775214D01*
X2021418Y776881D01*
X2023084D01*
X2024750Y775214D01*
X2026416Y776881D01*
X2028082D01*
X2029748Y775214D01*
Y771882D01*
X2028082Y770216D01*
X2026416D01*
X2024750Y771882D01*
X2023084Y770216D01*
X2021418D01*
X2024750Y771882D02*
Y775214D01*
X1659419Y477998D02*
Y469668D01*
X1661086Y468002D01*
X1664418D01*
X1666084Y469668D01*
Y477998D01*
X1676081Y468002D02*
X1669416D01*
X1676081Y474666D01*
Y476332D01*
X1674415Y477998D01*
X1671082D01*
X1669416Y476332D01*
X1699084Y530582D02*
X1697418Y532248D01*
X1694086D01*
X1692419Y530582D01*
Y523918D01*
X1694086Y522252D01*
X1697418D01*
X1699084Y523918D01*
X1702416Y532248D02*
X1709081D01*
Y530582D01*
X1702416Y523918D01*
Y522252D01*
X1699084Y486582D02*
X1697418Y488248D01*
X1694086D01*
X1692419Y486582D01*
Y479918D01*
X1694086Y478252D01*
X1697418D01*
X1699084Y479918D01*
X1709081Y488248D02*
X1705748Y486582D01*
X1702416Y483250D01*
Y479918D01*
X1704082Y478252D01*
X1707415D01*
X1709081Y479918D01*
Y481584D01*
X1707415Y483250D01*
X1702416D01*
X1651668Y558334D02*
X1650002Y556668D01*
Y553335D01*
X1651668Y551669D01*
X1658332D01*
X1659998Y553335D01*
Y556668D01*
X1658332Y558334D01*
X1650002Y568331D02*
Y561666D01*
X1655000D01*
X1653334Y564998D01*
Y566665D01*
X1655000Y568331D01*
X1658332D01*
X1659998Y566665D01*
Y563332D01*
X1658332Y561666D01*
X1668918Y558284D02*
X1667252Y556618D01*
Y553286D01*
X1668918Y551619D01*
X1675582D01*
X1677248Y553286D01*
Y556618D01*
X1675582Y558284D01*
X1677248Y566615D02*
X1667252D01*
X1672250Y561616D01*
Y568281D01*
X1687668Y558134D02*
X1686002Y556468D01*
Y553135D01*
X1687668Y551469D01*
X1694332D01*
X1695998Y553135D01*
Y556468D01*
X1694332Y558134D01*
X1687668Y561466D02*
X1686002Y563132D01*
Y566465D01*
X1687668Y568131D01*
X1689334D01*
X1691000Y566465D01*
Y564798D01*
Y566465D01*
X1692666Y568131D01*
X1694332D01*
X1695998Y566465D01*
Y563132D01*
X1694332Y561466D01*
D11*
X1883250Y968750D02*
Y972250D01*
X1972750D01*
Y968749D02*
Y972250D01*
X1883250Y905650D02*
X1972750D01*
X2024750Y931750D02*
X2028000D01*
X1998000D02*
X2001000D01*
X1998000Y883000D02*
X2001250D01*
X2024750D02*
X2028000D01*
X1998000D02*
Y931750D01*
X2028000Y883000D02*
Y931750D01*
X1976500Y772750D02*
X1992750D01*
X1976500Y804750D02*
X1992750D01*
Y803250D02*
Y804750D01*
Y784000D02*
Y793500D01*
Y772750D02*
Y774500D01*
X1976500Y772750D02*
Y774500D01*
Y803250D02*
Y804750D01*
X1666900Y496050D02*
Y506050D01*
X1661900Y501050D02*
X1671900D01*
X1676400Y482550D02*
X1682150D01*
X1651650D02*
X1657400D01*
X1651650Y519550D02*
X1657400D01*
X1676250D02*
X1682150D01*
X1714750Y934250D02*
X1766000D01*
Y750500D02*
Y934250D01*
X1645500Y750500D02*
X1766000D01*
X1645500D02*
Y934250D01*
X1714750D01*
X1976250Y383500D02*
X1983250D01*
X1976250Y374500D02*
X1983250D01*
X1663750Y442500D02*
X1670750D01*
X1663750Y451500D02*
X1670750D01*
X1819250Y775750D02*
X1826250D01*
X1819250Y784750D02*
X1826250D01*
X1858250Y810500D02*
Y817500D01*
X1849250Y810500D02*
Y817500D01*
X2011000Y741050D02*
Y748050D01*
X2020000Y741050D02*
Y748050D01*
X1980750Y741050D02*
Y748050D01*
X1989750Y741050D02*
Y748050D01*
X2013500Y785850D02*
Y792850D01*
X2004500Y785850D02*
Y792850D01*
X1821250Y820500D02*
X1833000D01*
X1821250Y793500D02*
X1833000D01*
Y801750D01*
Y812250D02*
Y820500D01*
X2014500Y855300D02*
Y865800D01*
X1963000D02*
X2014500D01*
X1963000Y855300D02*
Y865800D01*
X2014500Y813800D02*
Y824300D01*
X1963000Y813800D02*
X2014500D01*
X1963000D02*
Y824300D01*
X1561200Y393000D02*
X1613700D01*
Y902500D01*
X1561200Y393000D02*
Y899750D01*
X1563950Y902500D01*
X1613700D01*
X1925000Y744250D02*
X1928250D01*
X1898250D02*
X1901250D01*
X1898250Y695500D02*
X1901500D01*
X1925000D02*
X1928250D01*
X1898250D02*
Y744250D01*
X1928250Y695500D02*
Y744250D01*
X1735500Y723000D02*
Y726250D01*
Y696250D02*
Y699250D01*
X1784250Y696250D02*
Y699500D01*
Y723000D02*
Y726250D01*
X1735500Y696250D02*
X1784250D01*
X1735500Y726250D02*
X1784250D01*
X1961750Y810300D02*
X1965000D01*
X1935000D02*
X1938000D01*
X1935000Y761550D02*
X1938250D01*
X1961750D02*
X1965000D01*
X1935000D02*
Y810300D01*
X1965000Y761550D02*
Y810300D01*
X1793750Y893000D02*
X1797000D01*
X1767000D02*
X1770000D01*
X1767000Y844250D02*
X1770250D01*
X1793750D02*
X1797000D01*
X1767000D02*
Y893000D01*
X1797000Y844250D02*
Y893000D01*
X1995875Y741050D02*
Y748050D01*
X2004875Y741050D02*
Y748050D01*
X1937250Y673800D02*
Y738800D01*
X1952000Y745800D02*
X1960000D01*
X1956000Y741800D02*
Y749800D01*
X1975000Y673800D02*
Y738800D01*
X2028000Y785850D02*
Y792850D01*
X2019000Y785850D02*
Y792850D01*
X1698250Y510000D02*
X1705250D01*
X1698250Y519000D02*
X1705250D01*
X1698250Y491750D02*
X1705250D01*
X1698250Y500750D02*
X1705250D01*
X1659750Y535000D02*
Y542000D01*
X1650750Y535000D02*
Y542000D01*
X1676750Y535000D02*
Y542000D01*
X1667750Y535000D02*
Y542000D01*
X1695750Y535050D02*
Y542050D01*
X1686750Y535050D02*
Y542050D01*
X1868994Y866400D02*
X1869000D01*
Y858000D02*
Y866400D01*
X1868994Y879100D02*
X1869000D01*
Y887500D01*
X1924000Y845250D02*
Y866400D01*
Y879100D02*
Y900250D01*
X1869000Y858000D02*
X1881750Y845250D01*
X1924000D01*
X1869000Y887500D02*
X1881750Y900250D01*
X1924000D01*
D12*
X1907079Y562411D02*
X1903747Y565743D01*
X1897082D01*
X1893750Y562411D01*
Y549082D01*
X1897082Y545750D01*
X1903747D01*
X1907079Y549082D01*
Y555747D01*
X1900414D01*
X1913743Y545750D02*
Y565743D01*
X1927073Y545750D01*
Y565743D01*
X1933737D02*
Y545750D01*
X1943734D01*
X1947066Y549082D01*
Y562411D01*
X1943734Y565743D01*
X1933737D01*
X1907329Y472494D02*
X1894000D01*
Y462497D01*
X1900665Y465829D01*
X1903997D01*
X1907329Y462497D01*
Y455832D01*
X1903997Y452500D01*
X1897332D01*
X1894000Y455832D01*
X1913994Y472494D02*
Y459165D01*
X1920658Y452500D01*
X1927323Y459165D01*
Y472494D01*
X1893750Y535244D02*
Y515250D01*
X1903747D01*
X1907079Y518582D01*
Y531911D01*
X1903747Y535244D01*
X1893750D01*
X1913743Y525247D02*
X1927073D01*
X1920408Y531911D02*
Y518582D01*
X1893750Y502494D02*
Y482500D01*
X1903747D01*
X1907079Y485832D01*
Y499161D01*
X1903747Y502494D01*
X1893750D01*
X1913743Y492497D02*
X1927073D01*
D13*
X1750498Y820000D02*
Y813335D01*
X1755497Y805005D02*
Y808337D01*
X1753831Y810003D01*
X1747166D01*
X1745500Y808337D01*
Y805005D01*
X1747166Y803339D01*
X1753831D01*
X1755497Y805005D01*
Y800006D02*
X1747166D01*
X1745500Y798340D01*
Y795008D01*
X1747166Y793342D01*
X1755497D01*
Y790010D02*
Y783345D01*
Y786677D01*
X1745500D01*
X1660498Y820000D02*
Y813335D01*
X1663831Y816668D02*
X1657166D01*
X1665497Y805005D02*
Y808337D01*
X1663831Y810003D01*
X1657166D01*
X1655500Y808337D01*
Y805005D01*
X1657166Y803339D01*
X1663831D01*
X1665497Y805005D01*
Y800006D02*
X1657166D01*
X1655500Y798340D01*
Y795008D01*
X1657166Y793342D01*
X1665497D01*
Y790010D02*
Y783345D01*
Y786677D01*
X1655500D01*
X1660498Y900000D02*
Y893335D01*
X1663831Y896668D02*
X1657166D01*
X1665497Y890003D02*
Y886671D01*
Y888337D01*
X1655500D01*
Y890003D01*
Y886671D01*
Y881673D02*
X1665497D01*
X1655500Y875008D01*
X1665497D01*
X1750498Y900000D02*
Y893335D01*
X1755497Y890003D02*
Y886671D01*
Y888337D01*
X1745500D01*
Y890003D01*
Y886671D01*
Y881673D02*
X1755497D01*
X1745500Y875008D01*
X1755497D01*
D14*
X1733162Y749647D02*
Y734412D01*
X1740780D01*
X1743319Y736951D01*
Y747108D01*
X1740780Y749647D01*
X1733162D01*
X1748397Y747108D02*
X1750936Y749647D01*
X1756015D01*
X1758554Y747108D01*
Y744569D01*
X1756015Y742030D01*
X1753475D01*
X1756015D01*
X1758554Y739490D01*
Y736951D01*
X1756015Y734412D01*
X1750936D01*
X1748397Y736951D01*
X1768928Y920899D02*
Y905664D01*
X1776546D01*
X1779085Y908203D01*
Y918360D01*
X1776546Y920899D01*
X1768928D01*
X1784163Y905664D02*
X1789241D01*
X1786702D01*
Y920899D01*
X1784163Y918360D01*
D15*
X1705500Y855000D02*
D03*
M02*
