G04*
G04 #@! TF.GenerationSoftware,Altium Limited,Altium Designer,20.0.13 (296)*
G04*
G04 Layer_Color=32896*
%FSLAX44Y44*%
%MOMM*%
G71*
G01*
G75*
%ADD10C,0.2000*%
%ADD11C,0.1000*%
%ADD12C,0.5000*%
%ADD14C,0.2540*%
%ADD52C,1.0000*%
D10*
X2054800Y849550D02*
X2080200D01*
Y900350D01*
X2054800D02*
X2080200D01*
X2054800Y849550D02*
Y900350D01*
X2083800Y849550D02*
X2109200D01*
Y900350D01*
X2083800D02*
X2109200D01*
X2083800Y849550D02*
Y900350D01*
X1920650Y601550D02*
Y626950D01*
Y601550D02*
X1971450D01*
Y626950D01*
X1920650D02*
X1971450D01*
X2060996Y464752D02*
Y474748D01*
X2055998D01*
X2054332Y473082D01*
Y469750D01*
X2055998Y468084D01*
X2060996D01*
X2057664D02*
X2054332Y464752D01*
X2050999D02*
X2047667D01*
X2049333D01*
Y474748D01*
X2050999Y473082D01*
X2042668D02*
X2041002Y474748D01*
X2037670D01*
X2036004Y473082D01*
Y471416D01*
X2037670Y469750D01*
X2039336D01*
X2037670D01*
X2036004Y468084D01*
Y466418D01*
X2037670Y464752D01*
X2041002D01*
X2042668Y466418D01*
X2097002Y489831D02*
X2106998D01*
Y484832D01*
X2105332Y483166D01*
X2098668D01*
X2097002Y484832D01*
Y489831D01*
X2098668Y479834D02*
X2097002Y478168D01*
Y474835D01*
X2098668Y473169D01*
X2100334D01*
X2102000Y474835D01*
X2103666Y473169D01*
X2105332D01*
X2106998Y474835D01*
Y478168D01*
X2105332Y479834D01*
X2103666D01*
X2102000Y478168D01*
X2100334Y479834D01*
X2098668D01*
X2102000Y478168D02*
Y474835D01*
X2059746Y442252D02*
Y452248D01*
X2054748D01*
X2053082Y450582D01*
Y447250D01*
X2054748Y445584D01*
X2059746D01*
X2056414D02*
X2053082Y442252D01*
X2049749D02*
X2046417D01*
X2048083D01*
Y452248D01*
X2049749Y450582D01*
X2034754Y442252D02*
X2041418D01*
X2034754Y448916D01*
Y450582D01*
X2036420Y452248D01*
X2039752D01*
X2041418Y450582D01*
X2097502Y466414D02*
X2107498D01*
Y461416D01*
X2105832Y459749D01*
X2099168D01*
X2097502Y461416D01*
Y466414D01*
Y456417D02*
Y449753D01*
X2099168D01*
X2105832Y456417D01*
X2107498D01*
X2056331Y420002D02*
Y429998D01*
X2051332D01*
X2049666Y428332D01*
Y425000D01*
X2051332Y423334D01*
X2056331D01*
X2052998D02*
X2049666Y420002D01*
X2046334Y421668D02*
X2044668Y420002D01*
X2041335D01*
X2039669Y421668D01*
Y428332D01*
X2041335Y429998D01*
X2044668D01*
X2046334Y428332D01*
Y426666D01*
X2044668Y425000D01*
X2039669D01*
X2061752Y517669D02*
X2071748D01*
Y522668D01*
X2070082Y524334D01*
X2066750D01*
X2065084Y522668D01*
Y517669D01*
Y521002D02*
X2061752Y524334D01*
X2070082Y527666D02*
X2071748Y529332D01*
Y532664D01*
X2070082Y534331D01*
X2068416D01*
X2066750Y532664D01*
X2065084Y534331D01*
X2063418D01*
X2061752Y532664D01*
Y529332D01*
X2063418Y527666D01*
X2065084D01*
X2066750Y529332D01*
X2068416Y527666D01*
X2070082D01*
X2066750Y529332D02*
Y532664D01*
X2056331Y395752D02*
Y405748D01*
X2051332D01*
X2049666Y404082D01*
Y400750D01*
X2051332Y399084D01*
X2056331D01*
X2052998D02*
X2049666Y395752D01*
X2046334Y405748D02*
X2039669D01*
Y404082D01*
X2046334Y397418D01*
Y395752D01*
X2076502Y517919D02*
X2086498D01*
Y522918D01*
X2084832Y524584D01*
X2081500D01*
X2079834Y522918D01*
Y517919D01*
Y521252D02*
X2076502Y524584D01*
X2086498Y534581D02*
X2084832Y531248D01*
X2081500Y527916D01*
X2078168D01*
X2076502Y529582D01*
Y532915D01*
X2078168Y534581D01*
X2079834D01*
X2081500Y532915D01*
Y527916D01*
X2097752Y444372D02*
X2107748D01*
Y439374D01*
X2106082Y437708D01*
X2099418D01*
X2097752Y439374D01*
Y444372D01*
Y427711D02*
X2099418Y431043D01*
X2102750Y434376D01*
X2106082D01*
X2107748Y432709D01*
Y429377D01*
X2106082Y427711D01*
X2104416D01*
X2102750Y429377D01*
Y434376D01*
X2098752Y421081D02*
X2108748D01*
Y416082D01*
X2107082Y414416D01*
X2100418D01*
X2098752Y416082D01*
Y421081D01*
Y404419D02*
Y411084D01*
X2103750D01*
X2102084Y407752D01*
Y406086D01*
X2103750Y404419D01*
X2107082D01*
X2108748Y406086D01*
Y409418D01*
X2107082Y411084D01*
X2078415Y644582D02*
X2080081Y646248D01*
X2083414D01*
X2085080Y644582D01*
Y637918D01*
X2083414Y636252D01*
X2080081D01*
X2078415Y637918D01*
X2075083Y636252D02*
X2071751D01*
X2073417D01*
Y646248D01*
X2075083Y644582D01*
X2066752Y636252D02*
X2063420D01*
X2065086D01*
Y646248D01*
X2066752Y644582D01*
X2080914Y573498D02*
Y563502D01*
X2075916D01*
X2074250Y565168D01*
Y566834D01*
X2075916Y568500D01*
X2080914D01*
X2075916D01*
X2074250Y570166D01*
Y571832D01*
X2075916Y573498D01*
X2080914D01*
X2070918Y563502D02*
X2067585D01*
X2069252D01*
Y573498D01*
X2070918Y571832D01*
X1970532Y644997D02*
Y635000D01*
X1963867D01*
X1960535D02*
X1957203D01*
X1958869D01*
Y641665D01*
X1960535D01*
X1952205Y639998D02*
X1945540D01*
X1942208Y635000D02*
Y644997D01*
X1937209D01*
X1935543Y643331D01*
Y639998D01*
X1937209Y638332D01*
X1942208D01*
X1930545Y635000D02*
X1927213D01*
X1925547Y636666D01*
Y639998D01*
X1927213Y641665D01*
X1930545D01*
X1932211Y639998D01*
Y636666D01*
X1930545Y635000D01*
D11*
X2044500Y475750D02*
X2051500D01*
X2044500Y484750D02*
X2051500D01*
X2063250Y477750D02*
Y486750D01*
Y477750D02*
X2065000Y476000D01*
X2063250Y486750D02*
X2065000Y488500D01*
X2076500D02*
X2084500D01*
X2076500Y476000D02*
X2084500D01*
X2063250Y455083D02*
Y464083D01*
Y455083D02*
X2065000Y453333D01*
X2063250Y464083D02*
X2065000Y465833D01*
X2076500D02*
X2084500D01*
X2076500Y453333D02*
X2084500D01*
X2044300Y454000D02*
X2051300D01*
X2044300Y463000D02*
X2051300D01*
X1860250Y595500D02*
X2033750D01*
Y331750D02*
Y595500D01*
X1860250Y331750D02*
X2033750D01*
X1860250D02*
Y595500D01*
X2044300Y431625D02*
X2051300D01*
X2044300Y440625D02*
X2051300D01*
X2054750Y507000D02*
X2061750D01*
X2054750Y516000D02*
X2061750D01*
X2044300Y409250D02*
X2051300D01*
X2044300Y418250D02*
X2051300D01*
X2086750Y516250D02*
X2093750D01*
X2086750Y507250D02*
X2093750D01*
X1867250Y644500D02*
Y845500D01*
X1888250D01*
Y644500D02*
Y845500D01*
X1867250Y644500D02*
X1888250D01*
X2108250D02*
Y845500D01*
X2087250Y644500D02*
X2108250D01*
X2087250D02*
Y845500D01*
X2108250D01*
X2063250Y432417D02*
Y441417D01*
Y432417D02*
X2065000Y430667D01*
X2063250Y441417D02*
X2065000Y443167D01*
X2076500D02*
X2084500D01*
X2076500Y430667D02*
X2084500D01*
X2064250Y409750D02*
Y418750D01*
Y409750D02*
X2066000Y408000D01*
X2064250Y418750D02*
X2066000Y420500D01*
X2077500D02*
X2085500D01*
X2077500Y408000D02*
X2085500D01*
X2070250Y623750D02*
X2077250D01*
X2070250Y632750D02*
X2077250D01*
X2044000Y540750D02*
Y602750D01*
X2105250D01*
Y540750D02*
Y602750D01*
X2044000Y540750D02*
X2105250D01*
D12*
X1677206Y940300D02*
X1697200D01*
Y930303D01*
X1693868Y926971D01*
X1680539D01*
X1677206Y930303D01*
Y940300D01*
X1687203Y920306D02*
Y906977D01*
X1706256Y940500D02*
X1726250D01*
Y930503D01*
X1722918Y927171D01*
X1709589D01*
X1706256Y930503D01*
Y940500D01*
X1716253Y920506D02*
Y907177D01*
X1709589Y913842D02*
X1722918D01*
X1645250Y967000D02*
Y960335D01*
Y963668D01*
X1625256D01*
X1628589Y967000D01*
X1645250Y937010D02*
Y950339D01*
X1631921Y937010D01*
X1628589D01*
X1625256Y940342D01*
Y947007D01*
X1628589Y950339D01*
X1625256Y930345D02*
X1638586D01*
X1645250Y923681D01*
X1638586Y917016D01*
X1625256D01*
X1767089Y953671D02*
X1763756Y957003D01*
Y963668D01*
X1767089Y967000D01*
X1780418D01*
X1783750Y963668D01*
Y957003D01*
X1780418Y953671D01*
X1773753D01*
Y960335D01*
X1783750Y947006D02*
X1763756D01*
X1783750Y933677D01*
X1763756D01*
Y927013D02*
X1783750D01*
Y917016D01*
X1780418Y913684D01*
X1767089D01*
X1763756Y917016D01*
Y927013D01*
X1681258Y852005D02*
X1671261D01*
X1666263Y857003D01*
Y876997D01*
X1671261Y881995D01*
X1681258D01*
X1686257Y876997D01*
Y857003D01*
X1681258Y852005D01*
X1696253D02*
Y881995D01*
X1711248D01*
X1716247Y876997D01*
Y871998D01*
X1711248Y867000D01*
X1696253D01*
X1711248D01*
X1716247Y862002D01*
Y857003D01*
X1711248Y852005D01*
X1696253D01*
X1726243D02*
Y881995D01*
X1741239D01*
X1746237Y876997D01*
Y857003D01*
X1741239Y852005D01*
X1726243D01*
D14*
X2058367Y846696D02*
X2043132D01*
Y839078D01*
X2045672Y836539D01*
X2050750D01*
X2053289Y839078D01*
Y846696D01*
Y841618D02*
X2058367Y836539D01*
X2043132Y831461D02*
X2058367Y821304D01*
X2043132D02*
X2058367Y831461D01*
X2070132Y847696D02*
Y837539D01*
Y842617D01*
X2085367D01*
X2070132Y832461D02*
X2085367Y822304D01*
X2070132D02*
X2085367Y832461D01*
D52*
X1878558Y614593D02*
X1911881D01*
X1979750Y615839D02*
X2013073D01*
X1996411Y599178D02*
Y632500D01*
M02*
