G04*
G04 #@! TF.GenerationSoftware,Altium Limited,Altium Designer,20.0.13 (296)*
G04*
G04 Layer_Physical_Order=2*
G04 Layer_Color=16711680*
%FSLAX44Y44*%
%MOMM*%
G71*
G01*
G75*
%ADD12C,0.5000*%
%ADD14C,0.2540*%
%ADD43R,0.6000X0.9000*%
%ADD50C,2.0000*%
%ADD58R,1.5000X1.5000*%
%ADD59C,1.5000*%
%ADD60O,1.2000X2.0000*%
%ADD61O,1.2000X2.7000*%
%ADD62C,0.7100*%
%ADD63R,2.0000X2.0000*%
%ADD64C,2.5000*%
%ADD65R,2.0000X2.0000*%
%ADD66C,2.0000*%
%ADD67C,2.2000*%
%ADD68R,2.2000X2.2000*%
%ADD69C,6.0000*%
%ADD70C,0.8000*%
%ADD71R,0.9000X1.3000*%
%ADD72R,1.2000X1.4000*%
%ADD73C,2.3000*%
G36*
X1651100Y969702D02*
Y945000D01*
X1677100D01*
Y950809D01*
X1678370Y951150D01*
X1680228Y948728D01*
X1682944Y946645D01*
X1686106Y945335D01*
X1689500Y944888D01*
X1692894Y945335D01*
X1696056Y946645D01*
X1698772Y948728D01*
X1700856Y951444D01*
X1701513Y953031D01*
X1702887D01*
X1703544Y951444D01*
X1705628Y948728D01*
X1708344Y946645D01*
X1711506Y945335D01*
X1714900Y944888D01*
X1718294Y945335D01*
X1721456Y946645D01*
X1724172Y948728D01*
X1726255Y951444D01*
X1726913Y953031D01*
X1728287D01*
X1728945Y951444D01*
X1731028Y948728D01*
X1733744Y946645D01*
X1736906Y945335D01*
X1739550Y944987D01*
Y958000D01*
X1740300D01*
Y958750D01*
X1753313D01*
X1752965Y961394D01*
X1751655Y964556D01*
X1749572Y967272D01*
X1748060Y968432D01*
X1748491Y969702D01*
X1809112Y969702D01*
X1809262Y968432D01*
X1807581Y968028D01*
X1802927Y966100D01*
X1798633Y963469D01*
X1794803Y960197D01*
X1791531Y956367D01*
X1788900Y952073D01*
X1786972Y947419D01*
X1785796Y942521D01*
X1785401Y937500D01*
X1785796Y932479D01*
X1786972Y927581D01*
X1788900Y922927D01*
X1791531Y918633D01*
X1794803Y914803D01*
X1798633Y911531D01*
X1802927Y908900D01*
X1807581Y906972D01*
X1812479Y905796D01*
X1817500Y905401D01*
X1822521Y905796D01*
X1827419Y906972D01*
X1832073Y908900D01*
X1836367Y911531D01*
X1840197Y914803D01*
X1843469Y918633D01*
X1846100Y922927D01*
X1848028Y927581D01*
X1849204Y932479D01*
X1849599Y937500D01*
X1849204Y942521D01*
X1848028Y947419D01*
X1846100Y952073D01*
X1843469Y956367D01*
X1840197Y960197D01*
X1836367Y963469D01*
X1832073Y966100D01*
X1827419Y968028D01*
X1825738Y968432D01*
X1825888Y969702D01*
X2069110Y969701D01*
X2069260Y968431D01*
X2067581Y968028D01*
X2062927Y966100D01*
X2058633Y963469D01*
X2054803Y960197D01*
X2051531Y956367D01*
X2048900Y952073D01*
X2046972Y947419D01*
X2045796Y942521D01*
X2045401Y937500D01*
X2045796Y932479D01*
X2046972Y927581D01*
X2048900Y922927D01*
X2051531Y918633D01*
X2054803Y914803D01*
X2058633Y911531D01*
X2062927Y908900D01*
X2067581Y906972D01*
X2072479Y905796D01*
X2077500Y905401D01*
X2082521Y905796D01*
X2087419Y906972D01*
X2092073Y908900D01*
X2096367Y911531D01*
X2100197Y914803D01*
X2103469Y918633D01*
X2106100Y922927D01*
X2108028Y927581D01*
X2108432Y929264D01*
X2109702Y929114D01*
X2109702Y855423D01*
X2108529Y854937D01*
X2105152Y858313D01*
X2105755Y859770D01*
X2106082Y862250D01*
X2105755Y864730D01*
X2104798Y867041D01*
X2103275Y869025D01*
X2101291Y870548D01*
X2098980Y871505D01*
X2096500Y871832D01*
X2094020Y871505D01*
X2091709Y870548D01*
X2089724Y869025D01*
X2088202Y867041D01*
X2087245Y864730D01*
X2086918Y862250D01*
X2087245Y859770D01*
X2088202Y857459D01*
X2089724Y855474D01*
X2091709Y853952D01*
X2094020Y852995D01*
X2096500Y852668D01*
X2098980Y852995D01*
X2100437Y853598D01*
X2104916Y849119D01*
Y844500D01*
X2088250D01*
Y830874D01*
X2087077Y830388D01*
X2070834Y846631D01*
Y853348D01*
X2072291Y853952D01*
X2074276Y855474D01*
X2075798Y857459D01*
X2076756Y859770D01*
X2077082Y862250D01*
X2076756Y864730D01*
X2075798Y867041D01*
X2074276Y869025D01*
X2072291Y870548D01*
X2069980Y871505D01*
X2067500Y871832D01*
X2065020Y871505D01*
X2062709Y870548D01*
X2060725Y869025D01*
X2059202Y867041D01*
X2058244Y864730D01*
X2057918Y862250D01*
X2058244Y859770D01*
X2059202Y857459D01*
X2060725Y855474D01*
X2062709Y853952D01*
X2064166Y853348D01*
Y845250D01*
X2064420Y843974D01*
X2065143Y842893D01*
X2089098Y818937D01*
X2088495Y817480D01*
X2088168Y815000D01*
X2088495Y812520D01*
X2089452Y810209D01*
X2090975Y808224D01*
X2092959Y806702D01*
X2095270Y805744D01*
X2096060Y805640D01*
Y804360D01*
X2095270Y804256D01*
X2092959Y803298D01*
X2090975Y801776D01*
X2089452Y799791D01*
X2088495Y797480D01*
X2088168Y795000D01*
X2088495Y792520D01*
X2089452Y790209D01*
X2090975Y788225D01*
X2092959Y786702D01*
X2095270Y785745D01*
X2096060Y785640D01*
Y784360D01*
X2095270Y784256D01*
X2092959Y783298D01*
X2090975Y781775D01*
X2089452Y779791D01*
X2088848Y778334D01*
X2071881D01*
X2001084Y849131D01*
Y875000D01*
X2000830Y876276D01*
X2000108Y877357D01*
X1991358Y886107D01*
X1990276Y886830D01*
X1989000Y887084D01*
X1937250D01*
X1935974Y886830D01*
X1934892Y886107D01*
X1898893Y850107D01*
X1898170Y849026D01*
X1897916Y847750D01*
Y659381D01*
X1888423Y649888D01*
X1887250Y650374D01*
Y664500D01*
X1880421D01*
X1880230Y665745D01*
X1882541Y666702D01*
X1884525Y668225D01*
X1886048Y670209D01*
X1887005Y672520D01*
X1887332Y675000D01*
X1887005Y677480D01*
X1886048Y679791D01*
X1884525Y681776D01*
X1882541Y683298D01*
X1880230Y684256D01*
X1879440Y684360D01*
Y685640D01*
X1880230Y685745D01*
X1882541Y686702D01*
X1884525Y688225D01*
X1886048Y690209D01*
X1887005Y692520D01*
X1887332Y695000D01*
X1887005Y697480D01*
X1886048Y699791D01*
X1884525Y701776D01*
X1882541Y703298D01*
X1880230Y704256D01*
X1879440Y704360D01*
Y705640D01*
X1880230Y705745D01*
X1882541Y706702D01*
X1884525Y708225D01*
X1886048Y710209D01*
X1887005Y712520D01*
X1887332Y715000D01*
X1887005Y717480D01*
X1886048Y719791D01*
X1884525Y721776D01*
X1882541Y723298D01*
X1880230Y724256D01*
X1879440Y724360D01*
Y725640D01*
X1880230Y725744D01*
X1882541Y726702D01*
X1884525Y728225D01*
X1886048Y730209D01*
X1887005Y732520D01*
X1887332Y735000D01*
X1887005Y737480D01*
X1886048Y739791D01*
X1884525Y741776D01*
X1882541Y743298D01*
X1880230Y744256D01*
X1879440Y744360D01*
Y745640D01*
X1880230Y745745D01*
X1882541Y746702D01*
X1884525Y748225D01*
X1886048Y750209D01*
X1887005Y752520D01*
X1887332Y755000D01*
X1887005Y757480D01*
X1886048Y759791D01*
X1884525Y761776D01*
X1882541Y763298D01*
X1880230Y764256D01*
X1879440Y764360D01*
Y765640D01*
X1880230Y765744D01*
X1882541Y766702D01*
X1884525Y768224D01*
X1886048Y770209D01*
X1887005Y772520D01*
X1887332Y775000D01*
X1887005Y777480D01*
X1886048Y779791D01*
X1884525Y781775D01*
X1882541Y783298D01*
X1880230Y784256D01*
X1879440Y784360D01*
Y785640D01*
X1880230Y785745D01*
X1882541Y786702D01*
X1884525Y788225D01*
X1886048Y790209D01*
X1887005Y792520D01*
X1887332Y795000D01*
X1887005Y797480D01*
X1886048Y799791D01*
X1884525Y801776D01*
X1882541Y803298D01*
X1880230Y804256D01*
X1879440Y804360D01*
Y805640D01*
X1880230Y805745D01*
X1882541Y806702D01*
X1884525Y808225D01*
X1886048Y810209D01*
X1887005Y812520D01*
X1887332Y815000D01*
X1887005Y817480D01*
X1886048Y819791D01*
X1884525Y821776D01*
X1882541Y823298D01*
X1880230Y824256D01*
X1879440Y824360D01*
Y825640D01*
X1880230Y825745D01*
X1882541Y826702D01*
X1884525Y828225D01*
X1886048Y830209D01*
X1887005Y832520D01*
X1887332Y835000D01*
X1887005Y837480D01*
X1886048Y839791D01*
X1884525Y841776D01*
X1882541Y843298D01*
X1880230Y844256D01*
X1877750Y844582D01*
X1875270Y844256D01*
X1872959Y843298D01*
X1870975Y841776D01*
X1869452Y839791D01*
X1868495Y837480D01*
X1868168Y835000D01*
X1868495Y832520D01*
X1869452Y830209D01*
X1870975Y828225D01*
X1872959Y826702D01*
X1875270Y825745D01*
X1876060Y825640D01*
Y824360D01*
X1875270Y824256D01*
X1872959Y823298D01*
X1870975Y821776D01*
X1869452Y819791D01*
X1868495Y817480D01*
X1868168Y815000D01*
X1868495Y812520D01*
X1869452Y810209D01*
X1870975Y808225D01*
X1872959Y806702D01*
X1875270Y805745D01*
X1876060Y805640D01*
Y804360D01*
X1875270Y804256D01*
X1872959Y803298D01*
X1870975Y801776D01*
X1869452Y799791D01*
X1868495Y797480D01*
X1868168Y795000D01*
X1868495Y792520D01*
X1869452Y790209D01*
X1870975Y788225D01*
X1872959Y786702D01*
X1875270Y785745D01*
X1876060Y785640D01*
Y784360D01*
X1875270Y784256D01*
X1872959Y783298D01*
X1870975Y781775D01*
X1869452Y779791D01*
X1868495Y777480D01*
X1868168Y775000D01*
X1868495Y772520D01*
X1869452Y770209D01*
X1870975Y768224D01*
X1872959Y766702D01*
X1875270Y765744D01*
X1876060Y765640D01*
Y764360D01*
X1875270Y764256D01*
X1872959Y763298D01*
X1870975Y761776D01*
X1869452Y759791D01*
X1868495Y757480D01*
X1868168Y755000D01*
X1868495Y752520D01*
X1869452Y750209D01*
X1870975Y748225D01*
X1872959Y746702D01*
X1875270Y745745D01*
X1876060Y745640D01*
Y744360D01*
X1875270Y744256D01*
X1872959Y743298D01*
X1870975Y741776D01*
X1869452Y739791D01*
X1868495Y737480D01*
X1868168Y735000D01*
X1868495Y732520D01*
X1869452Y730209D01*
X1870975Y728225D01*
X1872959Y726702D01*
X1875270Y725744D01*
X1876060Y725640D01*
Y724360D01*
X1875270Y724256D01*
X1872959Y723298D01*
X1870975Y721776D01*
X1869452Y719791D01*
X1868495Y717480D01*
X1868168Y715000D01*
X1868495Y712520D01*
X1869452Y710209D01*
X1870975Y708225D01*
X1872959Y706702D01*
X1875270Y705745D01*
X1876060Y705640D01*
Y704360D01*
X1875270Y704256D01*
X1872959Y703298D01*
X1870975Y701776D01*
X1869452Y699791D01*
X1868495Y697480D01*
X1868168Y695000D01*
X1868495Y692520D01*
X1869452Y690209D01*
X1870975Y688225D01*
X1872959Y686702D01*
X1875270Y685745D01*
X1876060Y685640D01*
Y684360D01*
X1875270Y684256D01*
X1872959Y683298D01*
X1870975Y681776D01*
X1869452Y679791D01*
X1868495Y677480D01*
X1868168Y675000D01*
X1868495Y672520D01*
X1869452Y670209D01*
X1870975Y668225D01*
X1872959Y666702D01*
X1875270Y665745D01*
X1875079Y664500D01*
X1868250D01*
Y645500D01*
X1882376D01*
X1882862Y644327D01*
X1876920Y638385D01*
X1875750Y638618D01*
X1873409Y638152D01*
X1871424Y636826D01*
X1870098Y634841D01*
X1869633Y632500D01*
X1870098Y630159D01*
X1871424Y628174D01*
X1873409Y626848D01*
X1875750Y626382D01*
X1878091Y626848D01*
X1880076Y628174D01*
X1881402Y630159D01*
X1881868Y632500D01*
X1881635Y633670D01*
X1903607Y655642D01*
X1904330Y656724D01*
X1904584Y658000D01*
Y846369D01*
X1938631Y880416D01*
X1987619D01*
X1994416Y873619D01*
Y847750D01*
X1994670Y846474D01*
X1995392Y845393D01*
X2068143Y772643D01*
X2069224Y771920D01*
X2070500Y771666D01*
X2088848D01*
X2089452Y770209D01*
X2090975Y768224D01*
X2092959Y766702D01*
X2095270Y765744D01*
X2096060Y765640D01*
Y764360D01*
X2095270Y764256D01*
X2092959Y763298D01*
X2090975Y761776D01*
X2089452Y759791D01*
X2088495Y757480D01*
X2088168Y755000D01*
X2088495Y752520D01*
X2089452Y750209D01*
X2090975Y748225D01*
X2092959Y746702D01*
X2095270Y745745D01*
X2096060Y745640D01*
Y744360D01*
X2095270Y744256D01*
X2092959Y743298D01*
X2090975Y741776D01*
X2089452Y739791D01*
X2088495Y737480D01*
X2088168Y735000D01*
X2088495Y732520D01*
X2089452Y730209D01*
X2090975Y728225D01*
X2092959Y726702D01*
X2095270Y725744D01*
X2096060Y725640D01*
Y724360D01*
X2095270Y724256D01*
X2092959Y723298D01*
X2090975Y721776D01*
X2089452Y719791D01*
X2088495Y717480D01*
X2088168Y715000D01*
X2088495Y712520D01*
X2089452Y710209D01*
X2090975Y708225D01*
X2092959Y706702D01*
X2095270Y705745D01*
X2096060Y705640D01*
Y704360D01*
X2095270Y704256D01*
X2092959Y703298D01*
X2090975Y701776D01*
X2089452Y699791D01*
X2088495Y697480D01*
X2088168Y695000D01*
X2088495Y692520D01*
X2089452Y690209D01*
X2090975Y688225D01*
X2092959Y686702D01*
X2095270Y685745D01*
X2096060Y685640D01*
Y684360D01*
X2095270Y684256D01*
X2092959Y683298D01*
X2090975Y681775D01*
X2089452Y679791D01*
X2088495Y677480D01*
X2088168Y675000D01*
X2088495Y672520D01*
X2089452Y670209D01*
X2090975Y668224D01*
X2092959Y666702D01*
X2095270Y665744D01*
X2096060Y665640D01*
Y664360D01*
X2095270Y664256D01*
X2092959Y663298D01*
X2090975Y661776D01*
X2089452Y659791D01*
X2088495Y657480D01*
X2088211Y655324D01*
X2087032Y654707D01*
X1978588Y763150D01*
Y865567D01*
X1979652Y867159D01*
X1980117Y869500D01*
X1979652Y871841D01*
X1978326Y873826D01*
X1976341Y875152D01*
X1974000Y875618D01*
X1971659Y875152D01*
X1969674Y873826D01*
X1968348Y871841D01*
X1967882Y869500D01*
X1968348Y867159D01*
X1969412Y865567D01*
Y761250D01*
X1969761Y759494D01*
X1970756Y758006D01*
X2093975Y634787D01*
X2094348Y632909D01*
X2095156Y631699D01*
X2094170Y630890D01*
X2093565Y631494D01*
X2092077Y632489D01*
X2090321Y632838D01*
X2086550D01*
Y634750D01*
X2076550D01*
Y621750D01*
X2086550D01*
Y623662D01*
X2088421D01*
X2088662Y623421D01*
Y614750D01*
X2088750Y614307D01*
Y602250D01*
X2092162D01*
Y541250D01*
X2088750D01*
Y523250D01*
X2092962D01*
Y511750D01*
X2093050Y511307D01*
Y510825D01*
X2091877Y510339D01*
X2091338Y510877D01*
X2090256Y511600D01*
X2088980Y511854D01*
X2087450D01*
Y518250D01*
X2077450D01*
Y505250D01*
X2083858D01*
X2084180Y505186D01*
X2087599D01*
X2103463Y489322D01*
X2102838Y488151D01*
X2101750Y488368D01*
X2099409Y487902D01*
X2098020Y486974D01*
X2096750Y487653D01*
Y490750D01*
X2085088D01*
Y491821D01*
X2084739Y493577D01*
X2083744Y495065D01*
X2080815Y497994D01*
X2079327Y498989D01*
X2077571Y499338D01*
X2041452D01*
X2041402Y499591D01*
X2040076Y501576D01*
X2039338Y502069D01*
Y596250D01*
X2038989Y598006D01*
X2037994Y599494D01*
X2017838Y619650D01*
Y703000D01*
X2017489Y704756D01*
X2016494Y706244D01*
X2005025Y717713D01*
X2004652Y719591D01*
X2003326Y721576D01*
X2001341Y722902D01*
X1999000Y723367D01*
X1996659Y722902D01*
X1994674Y721576D01*
X1993348Y719591D01*
X1992883Y717250D01*
X1993348Y714909D01*
X1994674Y712924D01*
X1996659Y711598D01*
X1998537Y711225D01*
X2008662Y701099D01*
Y617750D01*
X2009011Y615994D01*
X2010006Y614506D01*
X2029784Y594728D01*
X2029486Y593359D01*
X2029000Y593250D01*
X2028892Y593250D01*
X2005000D01*
Y569250D01*
X2028892D01*
X2029000Y569250D01*
X2030162Y568989D01*
Y499687D01*
X2030098Y499591D01*
X2029633Y497250D01*
X2030098Y494909D01*
X2031424Y492924D01*
X2033409Y491598D01*
X2035750Y491133D01*
X2036232Y491228D01*
X2037306Y490511D01*
X2039062Y490162D01*
X2064250D01*
Y484963D01*
X2060800D01*
Y486750D01*
X2050800D01*
Y473750D01*
X2060800D01*
Y475787D01*
X2064250D01*
Y473750D01*
X2075912D01*
Y468083D01*
X2064250D01*
Y463338D01*
X2060600D01*
Y465000D01*
X2050600D01*
Y452000D01*
X2060600D01*
Y454162D01*
X2064250D01*
Y451083D01*
X2075912D01*
Y445417D01*
X2064250D01*
Y440963D01*
X2060600D01*
Y442625D01*
X2050600D01*
Y429625D01*
X2060600D01*
Y431787D01*
X2064250D01*
Y428417D01*
X2077250D01*
Y438811D01*
X2078520Y439337D01*
X2080185Y437672D01*
X2081673Y436678D01*
X2083429Y436329D01*
X2083750D01*
Y428417D01*
X2096750D01*
Y445417D01*
X2088693D01*
X2088250Y445505D01*
X2085330D01*
X2085088Y445746D01*
Y451083D01*
X2096750D01*
Y453147D01*
X2098020Y453526D01*
X2099409Y452598D01*
X2101750Y452132D01*
X2103876Y452555D01*
X2105146Y451892D01*
Y410158D01*
X2097858Y402870D01*
X2096588Y403396D01*
Y405750D01*
X2097750D01*
Y422750D01*
X2084750D01*
Y405750D01*
X2085614D01*
X2086179Y404480D01*
X2086051Y404338D01*
X2047401D01*
X2045540Y406198D01*
X2045000Y407250D01*
X2045000D01*
X2045000Y407250D01*
Y412750D01*
X2040000D01*
Y413750D01*
X2039000D01*
Y420250D01*
X2035000D01*
Y414095D01*
X2033827Y413609D01*
X1921088Y526347D01*
Y550500D01*
X1920739Y552256D01*
X1919744Y553744D01*
X1906244Y567244D01*
X1905143Y567980D01*
X1905529Y569250D01*
X1922000D01*
Y593250D01*
X1898000D01*
Y569858D01*
X1898000Y569250D01*
X1897004Y568588D01*
X1889996D01*
X1889000Y569250D01*
X1889000Y569858D01*
Y580500D01*
X1865000D01*
Y569858D01*
X1865000Y569250D01*
X1864004Y568588D01*
X1845686D01*
X1845116Y569858D01*
X1846152Y571409D01*
X1846617Y573750D01*
X1846152Y576091D01*
X1844826Y578076D01*
X1843834Y578738D01*
Y863500D01*
X1843580Y864776D01*
X1842858Y865858D01*
X1824969Y883746D01*
X1825367Y885750D01*
X1824902Y888091D01*
X1823576Y890076D01*
X1822318Y890916D01*
X1822704Y892186D01*
X2045599D01*
X2052493Y885293D01*
X2053574Y884570D01*
X2054850Y884316D01*
X2058000D01*
Y878150D01*
X2077000D01*
Y895976D01*
X2087000D01*
Y878150D01*
X2106000D01*
Y897150D01*
X2097565D01*
X2093047Y901668D01*
X2091966Y902390D01*
X2090690Y902644D01*
X1755844D01*
X1755591Y903914D01*
X1757813Y904834D01*
X1760842Y907159D01*
X1763166Y910187D01*
X1764627Y913715D01*
X1765026Y916750D01*
X1750500D01*
Y917500D01*
D01*
Y916750D01*
X1735974D01*
X1736373Y913715D01*
X1737834Y910187D01*
X1740159Y907159D01*
X1743188Y904834D01*
X1745409Y903914D01*
X1745156Y902644D01*
X1706560D01*
X1705284Y902390D01*
X1704203Y901668D01*
X1631549Y829014D01*
X1609878D01*
X1609252Y830284D01*
X1610682Y832148D01*
X1611891Y835067D01*
X1612304Y838200D01*
X1611891Y841333D01*
X1610682Y844252D01*
X1608759Y846758D01*
X1606252Y848682D01*
X1603333Y849891D01*
X1600535Y850259D01*
Y851541D01*
X1603333Y851909D01*
X1606252Y853118D01*
X1608759Y855042D01*
X1610682Y857548D01*
X1611891Y860467D01*
X1612304Y863600D01*
X1611891Y866733D01*
X1610682Y869652D01*
X1608759Y872159D01*
X1606252Y874082D01*
X1603333Y875291D01*
X1601104Y875584D01*
X1600535Y875660D01*
Y876940D01*
X1601104Y877016D01*
X1603333Y877309D01*
X1606252Y878518D01*
X1608759Y880442D01*
X1610682Y882948D01*
X1611891Y885867D01*
X1612304Y889000D01*
X1611891Y892133D01*
X1610682Y895052D01*
X1608759Y897559D01*
X1606252Y899482D01*
X1603333Y900691D01*
X1600200Y901104D01*
X1597067Y900691D01*
X1594148Y899482D01*
X1591642Y897559D01*
X1589718Y895052D01*
X1588509Y892133D01*
X1588096Y889000D01*
X1588509Y885867D01*
X1589718Y882948D01*
X1591642Y880442D01*
X1594148Y878518D01*
X1597067Y877309D01*
X1599296Y877016D01*
X1599866Y876940D01*
Y875660D01*
X1599296Y875584D01*
X1597067Y875291D01*
X1594148Y874082D01*
X1591642Y872159D01*
X1589718Y869652D01*
X1588509Y866733D01*
X1588141Y863934D01*
X1586859D01*
X1586491Y866733D01*
X1585282Y869652D01*
X1583358Y872159D01*
X1580852Y874082D01*
X1577933Y875291D01*
X1574800Y875704D01*
X1571667Y875291D01*
X1568748Y874082D01*
X1566241Y872159D01*
X1564318Y869652D01*
X1563109Y866733D01*
X1562696Y863600D01*
X1563109Y860467D01*
X1564318Y857548D01*
X1566241Y855042D01*
X1568748Y853118D01*
X1571667Y851909D01*
X1574465Y851541D01*
Y850259D01*
X1571667Y849891D01*
X1568748Y848682D01*
X1566241Y846758D01*
X1564318Y844252D01*
X1563109Y841333D01*
X1562795Y838950D01*
X1574800D01*
Y837450D01*
X1562795D01*
X1563109Y835067D01*
X1564318Y832148D01*
X1566241Y829641D01*
X1568748Y827718D01*
X1571667Y826509D01*
X1574465Y826141D01*
Y824859D01*
X1571667Y824491D01*
X1568748Y823282D01*
X1566241Y821358D01*
X1564318Y818852D01*
X1563109Y815933D01*
X1562696Y812800D01*
X1563109Y809667D01*
X1564318Y806748D01*
X1566241Y804241D01*
X1568748Y802318D01*
X1571667Y801109D01*
X1574465Y800741D01*
Y799460D01*
X1571667Y799091D01*
X1568748Y797882D01*
X1566241Y795958D01*
X1564318Y793452D01*
X1563109Y790533D01*
X1562696Y787400D01*
X1563109Y784267D01*
X1564318Y781348D01*
X1566241Y778841D01*
X1568748Y776918D01*
X1571667Y775709D01*
X1574465Y775340D01*
Y774060D01*
X1571667Y773691D01*
X1568748Y772482D01*
X1566241Y770558D01*
X1564318Y768052D01*
X1563109Y765133D01*
X1562696Y762000D01*
X1563109Y758867D01*
X1564318Y755948D01*
X1566241Y753441D01*
X1568748Y751518D01*
X1571667Y750309D01*
X1574465Y749940D01*
Y748660D01*
X1571667Y748291D01*
X1568748Y747082D01*
X1566241Y745158D01*
X1564318Y742652D01*
X1563109Y739733D01*
X1562795Y737350D01*
X1574800D01*
Y735850D01*
X1562795D01*
X1563109Y733467D01*
X1564318Y730548D01*
X1566241Y728042D01*
X1568748Y726118D01*
X1571667Y724909D01*
X1574465Y724540D01*
Y723260D01*
X1571667Y722891D01*
X1568748Y721682D01*
X1566241Y719759D01*
X1564318Y717252D01*
X1563109Y714333D01*
X1562696Y711200D01*
X1563109Y708067D01*
X1564318Y705148D01*
X1566241Y702642D01*
X1568748Y700718D01*
X1571667Y699509D01*
X1574465Y699140D01*
Y697859D01*
X1571667Y697491D01*
X1568748Y696282D01*
X1566241Y694359D01*
X1564318Y691852D01*
X1563109Y688933D01*
X1562696Y685800D01*
X1563109Y682667D01*
X1564318Y679748D01*
X1566241Y677242D01*
X1568748Y675318D01*
X1571667Y674109D01*
X1574465Y673740D01*
Y672459D01*
X1571667Y672091D01*
X1568748Y670882D01*
X1566241Y668959D01*
X1564318Y666452D01*
X1563109Y663533D01*
X1562795Y661150D01*
X1574800D01*
Y659650D01*
X1562795D01*
X1563109Y657267D01*
X1564318Y654348D01*
X1566241Y651842D01*
X1568748Y649918D01*
X1571667Y648709D01*
X1574465Y648341D01*
Y647059D01*
X1571667Y646691D01*
X1568748Y645482D01*
X1566241Y643559D01*
X1564318Y641052D01*
X1563109Y638133D01*
X1562696Y635000D01*
X1563109Y631867D01*
X1564318Y628948D01*
X1566241Y626441D01*
X1568748Y624518D01*
X1571667Y623309D01*
X1574465Y622940D01*
Y621660D01*
X1571667Y621291D01*
X1568748Y620082D01*
X1566241Y618158D01*
X1564318Y615652D01*
X1563109Y612733D01*
X1562696Y609600D01*
X1563109Y606467D01*
X1564318Y603548D01*
X1566241Y601041D01*
X1568748Y599118D01*
X1571667Y597909D01*
X1574465Y597541D01*
Y596259D01*
X1571667Y595891D01*
X1568748Y594682D01*
X1566241Y592758D01*
X1564318Y590252D01*
X1563109Y587333D01*
X1562696Y584200D01*
X1563109Y581067D01*
X1564318Y578148D01*
X1566241Y575642D01*
X1568748Y573718D01*
X1571667Y572509D01*
X1574465Y572141D01*
Y570859D01*
X1571667Y570491D01*
X1568748Y569282D01*
X1566241Y567359D01*
X1564318Y564852D01*
X1563109Y561933D01*
X1562696Y558800D01*
X1563109Y555667D01*
X1564318Y552748D01*
X1566241Y550242D01*
X1568748Y548318D01*
X1571667Y547109D01*
X1574465Y546740D01*
Y545460D01*
X1571667Y545091D01*
X1568748Y543882D01*
X1566241Y541959D01*
X1564318Y539452D01*
X1563109Y536533D01*
X1562795Y534150D01*
X1574800D01*
Y532650D01*
X1562795D01*
X1563109Y530267D01*
X1564318Y527348D01*
X1566241Y524841D01*
X1568748Y522918D01*
X1571667Y521709D01*
X1574465Y521340D01*
Y520060D01*
X1571667Y519691D01*
X1568748Y518482D01*
X1566241Y516558D01*
X1564318Y514052D01*
X1563109Y511133D01*
X1562696Y508000D01*
X1563109Y504867D01*
X1564318Y501948D01*
X1566241Y499441D01*
X1567006Y498855D01*
X1567021Y497242D01*
X1559922Y490144D01*
X1559200Y489062D01*
X1558946Y487786D01*
Y418920D01*
X1559200Y417644D01*
X1559922Y416562D01*
X1564235Y412250D01*
X1563109Y409533D01*
X1562696Y406400D01*
X1563109Y403267D01*
X1564318Y400348D01*
X1566241Y397841D01*
X1568748Y395918D01*
X1571667Y394709D01*
X1574800Y394296D01*
X1577933Y394709D01*
X1580852Y395918D01*
X1583358Y397841D01*
X1585282Y400348D01*
X1586491Y403267D01*
X1586859Y406065D01*
X1588141D01*
X1588509Y403267D01*
X1589718Y400348D01*
X1591642Y397841D01*
X1594148Y395918D01*
X1597067Y394709D01*
X1599450Y394395D01*
Y406400D01*
X1600200D01*
Y407150D01*
X1612205D01*
X1611891Y409533D01*
X1610682Y412452D01*
X1608759Y414958D01*
X1606252Y416882D01*
X1603333Y418091D01*
X1600535Y418460D01*
Y419740D01*
X1603333Y420109D01*
X1606252Y421318D01*
X1608759Y423242D01*
X1610682Y425748D01*
X1611891Y428667D01*
X1612304Y431800D01*
X1611891Y434933D01*
X1610682Y437852D01*
X1608820Y440278D01*
X1608878Y440844D01*
X1609101Y441697D01*
X1610038Y442323D01*
X1810165Y642450D01*
X1810424Y642424D01*
X1812409Y641098D01*
X1814750Y640632D01*
X1816606Y641002D01*
X1817876Y640211D01*
Y507676D01*
X1818130Y506400D01*
X1818852Y505319D01*
X1868763Y455408D01*
X1868633Y454750D01*
X1869098Y452409D01*
X1869803Y451354D01*
X1869124Y450084D01*
X1811321D01*
X1810826Y450826D01*
X1808841Y452152D01*
X1806500Y452617D01*
X1804159Y452152D01*
X1802174Y450826D01*
X1800848Y448841D01*
X1800383Y446500D01*
X1800848Y444159D01*
X1802174Y442174D01*
X1804159Y440848D01*
X1806500Y440382D01*
X1808841Y440848D01*
X1810826Y442174D01*
X1811655Y443416D01*
X1932929D01*
X1933424Y442674D01*
X1935409Y441348D01*
X1937750Y440882D01*
X1940091Y441348D01*
X1942076Y442674D01*
X1943402Y444659D01*
X1943867Y447000D01*
X1943402Y449341D01*
X1942076Y451326D01*
X1940091Y452652D01*
X1937750Y453117D01*
X1935409Y452652D01*
X1933424Y451326D01*
X1932595Y450084D01*
X1880376D01*
X1879697Y451354D01*
X1880402Y452409D01*
X1880867Y454750D01*
X1880402Y457091D01*
X1879076Y459076D01*
X1877091Y460402D01*
X1874750Y460868D01*
X1873068Y460533D01*
X1872074Y461527D01*
X1872561Y462700D01*
X1884750D01*
Y481700D01*
X1865750D01*
Y469511D01*
X1864577Y469025D01*
X1824544Y509057D01*
Y570598D01*
X1825717Y571084D01*
X1836046Y560756D01*
X1837534Y559761D01*
X1839290Y559412D01*
X1901100D01*
X1911912Y548600D01*
Y524447D01*
X1912261Y522691D01*
X1913256Y521202D01*
X2032202Y402256D01*
X2033691Y401261D01*
X2035447Y400912D01*
X2037850D01*
X2040976Y397785D01*
X2040484Y396481D01*
X2039724Y396330D01*
X2038642Y395607D01*
X2014642Y371608D01*
X2013920Y370526D01*
X2013666Y369250D01*
Y367250D01*
X2005000D01*
Y343250D01*
X2029000D01*
Y367250D01*
X2021511D01*
X2020985Y368520D01*
X2042381Y389916D01*
X2070005D01*
X2070155Y388646D01*
X2067581Y388028D01*
X2062927Y386100D01*
X2058633Y383469D01*
X2054803Y380197D01*
X2051531Y376367D01*
X2048900Y372073D01*
X2046972Y367419D01*
X2045796Y362521D01*
X2045401Y357500D01*
X2045796Y352479D01*
X2046972Y347581D01*
X2048900Y342927D01*
X2051531Y338633D01*
X2054803Y334803D01*
X2058633Y331531D01*
X2062927Y328900D01*
X2067581Y326972D01*
X2069264Y326568D01*
X2069114Y325298D01*
X1825888Y325298D01*
X1825738Y326568D01*
X1827419Y326972D01*
X1832073Y328900D01*
X1836367Y331531D01*
X1840197Y334803D01*
X1843469Y338633D01*
X1846100Y342927D01*
X1848028Y347581D01*
X1849204Y352479D01*
X1849599Y357500D01*
X1849204Y362521D01*
X1848028Y367419D01*
X1846100Y372073D01*
X1843469Y376367D01*
X1840197Y380197D01*
X1836367Y383469D01*
X1832073Y386100D01*
X1827419Y388028D01*
X1822521Y389204D01*
X1817500Y389599D01*
X1812479Y389204D01*
X1807581Y388028D01*
X1802927Y386100D01*
X1798633Y383469D01*
X1794803Y380197D01*
X1791531Y376367D01*
X1788900Y372073D01*
X1786972Y367419D01*
X1785796Y362521D01*
X1785401Y357500D01*
X1785796Y352479D01*
X1786972Y347581D01*
X1788900Y342927D01*
X1791531Y338633D01*
X1794803Y334803D01*
X1798633Y331531D01*
X1802927Y328900D01*
X1807581Y326972D01*
X1809262Y326568D01*
X1809112Y325298D01*
X1595889Y325299D01*
X1595739Y326569D01*
X1597419Y326972D01*
X1602073Y328900D01*
X1606367Y331531D01*
X1610197Y334803D01*
X1613469Y338633D01*
X1616100Y342927D01*
X1618028Y347581D01*
X1619204Y352479D01*
X1619599Y357500D01*
X1619204Y362521D01*
X1618028Y367419D01*
X1616100Y372073D01*
X1613469Y376367D01*
X1610197Y380197D01*
X1606367Y383469D01*
X1602073Y386100D01*
X1597419Y388028D01*
X1592521Y389204D01*
X1587500Y389599D01*
X1582479Y389204D01*
X1577581Y388028D01*
X1572927Y386100D01*
X1568633Y383469D01*
X1564803Y380197D01*
X1561531Y376367D01*
X1558900Y372073D01*
X1556972Y367419D01*
X1556568Y365736D01*
X1555298Y365886D01*
X1555299Y929111D01*
X1556569Y929261D01*
X1556972Y927581D01*
X1558900Y922927D01*
X1561531Y918633D01*
X1564803Y914803D01*
X1568633Y911531D01*
X1572927Y908900D01*
X1577581Y906972D01*
X1582479Y905796D01*
X1587500Y905401D01*
X1592521Y905796D01*
X1597419Y906972D01*
X1602073Y908900D01*
X1606367Y911531D01*
X1610197Y914803D01*
X1613469Y918633D01*
X1616100Y922927D01*
X1618028Y927581D01*
X1619204Y932479D01*
X1619599Y937500D01*
X1619204Y942521D01*
X1618028Y947419D01*
X1616100Y952073D01*
X1613469Y956367D01*
X1610197Y960197D01*
X1606367Y963469D01*
X1602073Y966100D01*
X1597419Y968028D01*
X1595736Y968432D01*
X1595886Y969702D01*
X1651100Y969702D01*
D02*
G37*
G36*
X1803165Y891066D02*
X1802848Y890591D01*
X1802383Y888250D01*
X1802848Y885909D01*
X1804174Y883924D01*
X1806159Y882598D01*
X1808500Y882132D01*
X1809044Y882241D01*
X1809928Y881357D01*
X1810372Y880692D01*
X1814192Y876872D01*
X1814857Y876428D01*
X1830646Y860639D01*
Y712760D01*
X1830020Y712409D01*
X1829376Y712296D01*
X1802338Y739333D01*
Y811941D01*
X1803152Y813159D01*
X1803618Y815500D01*
X1803152Y817841D01*
X1801826Y819826D01*
X1799841Y821152D01*
X1797500Y821618D01*
X1795159Y821152D01*
X1793174Y819826D01*
X1791848Y817841D01*
X1791382Y815500D01*
X1791848Y813159D01*
X1793162Y811193D01*
Y742338D01*
X1692151D01*
X1673498Y760990D01*
X1674627Y763715D01*
X1675125Y767500D01*
X1674627Y771285D01*
X1673166Y774812D01*
X1670842Y777841D01*
X1667813Y780166D01*
X1664285Y781627D01*
X1660500Y782125D01*
X1656715Y781627D01*
X1653187Y780166D01*
X1650159Y777841D01*
X1647834Y774812D01*
X1646373Y771285D01*
X1645875Y767500D01*
X1646373Y763715D01*
X1647834Y760187D01*
X1650159Y757159D01*
X1653187Y754834D01*
X1656715Y753373D01*
X1660500Y752875D01*
X1664285Y753373D01*
X1667010Y754502D01*
X1687006Y734506D01*
X1688494Y733511D01*
X1690250Y733162D01*
X1795532D01*
X1821702Y706992D01*
Y697673D01*
X1820529Y697187D01*
X1804158Y713558D01*
X1803076Y714280D01*
X1801800Y714534D01*
X1611808D01*
X1610682Y717252D01*
X1608759Y719759D01*
X1606252Y721682D01*
X1603333Y722891D01*
X1600535Y723260D01*
Y724540D01*
X1603333Y724909D01*
X1606252Y726118D01*
X1608759Y728042D01*
X1610682Y730548D01*
X1611891Y733467D01*
X1612304Y736600D01*
X1611891Y739733D01*
X1610682Y742652D01*
X1608759Y745158D01*
X1606252Y747082D01*
X1603333Y748291D01*
X1600535Y748660D01*
Y749940D01*
X1603333Y750309D01*
X1606252Y751518D01*
X1608759Y753441D01*
X1610682Y755948D01*
X1611891Y758867D01*
X1612304Y762000D01*
X1611891Y765133D01*
X1610682Y768052D01*
X1608759Y770558D01*
X1606252Y772482D01*
X1603333Y773691D01*
X1600535Y774060D01*
Y775340D01*
X1603333Y775709D01*
X1606252Y776918D01*
X1608759Y778841D01*
X1610682Y781348D01*
X1611891Y784267D01*
X1612205Y786650D01*
X1600200D01*
Y788150D01*
X1612205D01*
X1611891Y790533D01*
X1610682Y793452D01*
X1608975Y795676D01*
X1609395Y796946D01*
X1613530D01*
X1614806Y797200D01*
X1615887Y797923D01*
X1710151Y892186D01*
X1802567D01*
X1803165Y891066D01*
D02*
G37*
G36*
X1817936Y690349D02*
Y653249D01*
X1816666Y652486D01*
X1814750Y652868D01*
X1812409Y652402D01*
X1810424Y651076D01*
X1809762Y650084D01*
X1809750D01*
X1808474Y649830D01*
X1807392Y649108D01*
X1804600Y646315D01*
X1803222Y646733D01*
X1802902Y648341D01*
X1801576Y650326D01*
X1799591Y651652D01*
X1797250Y652117D01*
X1795850Y651839D01*
X1795225Y653010D01*
X1800580Y658365D01*
X1801750Y658132D01*
X1804091Y658598D01*
X1806076Y659924D01*
X1807402Y661909D01*
X1807867Y664250D01*
X1807402Y666591D01*
X1806076Y668576D01*
X1804091Y669902D01*
X1803336Y670052D01*
Y671347D01*
X1803341Y671348D01*
X1805326Y672674D01*
X1806652Y674659D01*
X1807117Y677000D01*
X1806652Y679341D01*
X1805326Y681326D01*
X1803341Y682652D01*
X1801000Y683118D01*
X1799288Y682777D01*
X1798663Y683948D01*
X1799830Y685115D01*
X1801000Y684883D01*
X1803341Y685348D01*
X1805326Y686674D01*
X1806652Y688659D01*
X1807117Y691000D01*
X1806652Y693341D01*
X1805326Y695326D01*
X1803341Y696652D01*
X1801000Y697117D01*
X1798659Y696652D01*
X1796674Y695326D01*
X1795348Y693341D01*
X1794883Y691000D01*
X1795115Y689830D01*
X1629499Y524214D01*
X1609878D01*
X1609252Y525484D01*
X1610682Y527348D01*
X1611891Y530267D01*
X1612304Y533400D01*
X1611891Y536533D01*
X1610682Y539452D01*
X1608759Y541959D01*
X1606252Y543882D01*
X1603333Y545091D01*
X1600535Y545460D01*
Y546740D01*
X1603333Y547109D01*
X1606252Y548318D01*
X1608759Y550242D01*
X1610682Y552748D01*
X1611891Y555667D01*
X1612304Y558800D01*
X1611891Y561933D01*
X1610682Y564852D01*
X1608759Y567359D01*
X1606252Y569282D01*
X1603333Y570491D01*
X1600535Y570859D01*
Y572141D01*
X1603333Y572509D01*
X1606252Y573718D01*
X1608759Y575642D01*
X1610682Y578148D01*
X1611891Y581067D01*
X1612205Y583450D01*
X1600200D01*
Y584950D01*
X1612205D01*
X1611891Y587333D01*
X1610682Y590252D01*
X1608759Y592758D01*
X1606252Y594682D01*
X1603333Y595891D01*
X1600535Y596259D01*
Y597541D01*
X1603333Y597909D01*
X1606252Y599118D01*
X1608759Y601041D01*
X1610682Y603548D01*
X1610731Y603666D01*
X1674762D01*
X1675424Y602674D01*
X1677409Y601348D01*
X1679750Y600882D01*
X1682091Y601348D01*
X1684076Y602674D01*
X1685402Y604659D01*
X1685867Y607000D01*
X1685402Y609341D01*
X1684076Y611326D01*
X1682091Y612652D01*
X1679750Y613117D01*
X1677409Y612652D01*
X1675424Y611326D01*
X1674762Y610334D01*
X1612207D01*
X1611891Y612733D01*
X1610682Y615652D01*
X1608759Y618158D01*
X1606252Y620082D01*
X1603333Y621291D01*
X1600535Y621660D01*
Y622940D01*
X1603333Y623309D01*
X1606252Y624518D01*
X1608759Y626441D01*
X1610682Y628948D01*
X1611891Y631867D01*
X1612304Y635000D01*
X1611891Y638133D01*
X1610682Y641052D01*
X1608759Y643559D01*
X1606252Y645482D01*
X1603333Y646691D01*
X1600535Y647059D01*
Y648341D01*
X1603333Y648709D01*
X1606252Y649918D01*
X1608759Y651842D01*
X1610682Y654348D01*
X1611891Y657267D01*
X1612304Y660400D01*
X1611891Y663533D01*
X1610682Y666452D01*
X1608759Y668959D01*
X1606252Y670882D01*
X1603333Y672091D01*
X1600535Y672459D01*
Y673740D01*
X1603333Y674109D01*
X1606252Y675318D01*
X1608759Y677242D01*
X1610682Y679748D01*
X1611891Y682667D01*
X1612304Y685800D01*
X1611891Y688933D01*
X1610682Y691852D01*
X1608759Y694359D01*
X1606252Y696282D01*
X1603333Y697491D01*
X1600535Y697859D01*
Y699140D01*
X1603333Y699509D01*
X1606252Y700718D01*
X1608759Y702642D01*
X1610682Y705148D01*
X1611808Y707866D01*
X1800419D01*
X1817936Y690349D01*
D02*
G37*
G36*
X2109702Y796410D02*
X2109701Y494173D01*
X2108528Y493687D01*
X2098138Y504077D01*
X2098625Y505250D01*
X2103050D01*
Y518250D01*
X2102138D01*
Y523250D01*
X2104750D01*
Y541250D01*
X2101338D01*
Y602250D01*
X2104750D01*
Y620250D01*
X2097838D01*
Y625321D01*
X2097489Y627077D01*
X2096494Y628565D01*
X2095640Y629420D01*
X2096449Y630406D01*
X2097659Y629598D01*
X2100000Y629132D01*
X2102341Y629598D01*
X2104326Y630924D01*
X2105652Y632909D01*
X2106118Y635250D01*
X2105652Y637591D01*
X2104326Y639576D01*
X2102341Y640902D01*
X2100463Y641275D01*
X2097457Y644282D01*
X2098074Y645461D01*
X2100230Y645745D01*
X2102541Y646702D01*
X2104525Y648225D01*
X2106048Y650209D01*
X2107005Y652520D01*
X2107233Y654250D01*
X2097750D01*
Y655750D01*
X2107233D01*
X2107005Y657480D01*
X2106048Y659791D01*
X2104525Y661776D01*
X2102541Y663298D01*
X2100230Y664256D01*
X2099440Y664360D01*
Y665640D01*
X2100230Y665744D01*
X2102541Y666702D01*
X2104525Y668224D01*
X2106048Y670209D01*
X2107005Y672520D01*
X2107332Y675000D01*
X2107005Y677480D01*
X2106048Y679791D01*
X2104525Y681775D01*
X2102541Y683298D01*
X2100230Y684256D01*
X2099440Y684360D01*
Y685640D01*
X2100230Y685745D01*
X2102541Y686702D01*
X2104525Y688225D01*
X2106048Y690209D01*
X2107005Y692520D01*
X2107332Y695000D01*
X2107005Y697480D01*
X2106048Y699791D01*
X2104525Y701776D01*
X2102541Y703298D01*
X2100230Y704256D01*
X2099440Y704360D01*
Y705640D01*
X2100230Y705745D01*
X2102541Y706702D01*
X2104525Y708225D01*
X2106048Y710209D01*
X2107005Y712520D01*
X2107332Y715000D01*
X2107005Y717480D01*
X2106048Y719791D01*
X2104525Y721776D01*
X2102541Y723298D01*
X2100230Y724256D01*
X2099440Y724360D01*
Y725640D01*
X2100230Y725744D01*
X2102541Y726702D01*
X2104525Y728225D01*
X2106048Y730209D01*
X2107005Y732520D01*
X2107332Y735000D01*
X2107005Y737480D01*
X2106048Y739791D01*
X2104525Y741776D01*
X2102541Y743298D01*
X2100230Y744256D01*
X2099440Y744360D01*
Y745640D01*
X2100230Y745745D01*
X2102541Y746702D01*
X2104525Y748225D01*
X2106048Y750209D01*
X2107005Y752520D01*
X2107332Y755000D01*
X2107005Y757480D01*
X2106048Y759791D01*
X2104525Y761776D01*
X2102541Y763298D01*
X2100230Y764256D01*
X2099440Y764360D01*
Y765640D01*
X2100230Y765744D01*
X2102541Y766702D01*
X2104525Y768224D01*
X2106048Y770209D01*
X2107005Y772520D01*
X2107332Y775000D01*
X2107005Y777480D01*
X2106048Y779791D01*
X2104525Y781775D01*
X2102541Y783298D01*
X2100230Y784256D01*
X2099440Y784360D01*
Y785640D01*
X2100230Y785745D01*
X2102541Y786702D01*
X2104525Y788225D01*
X2106048Y790209D01*
X2107005Y792520D01*
X2107332Y795000D01*
X2107158Y796321D01*
X2108253Y797417D01*
X2108432Y797452D01*
X2109702Y796410D01*
D02*
G37*
%LPC*%
G36*
X1972001Y966821D02*
Y955600D01*
X1979320D01*
Y958850D01*
X1979045Y960939D01*
X1978239Y962885D01*
X1976957Y964556D01*
X1975286Y965838D01*
X1973340Y966644D01*
X1972001Y966821D01*
D02*
G37*
G36*
X1885499D02*
Y955600D01*
X1892818D01*
Y958850D01*
X1892543Y960939D01*
X1891737Y962885D01*
X1890455Y964556D01*
X1888783Y965838D01*
X1886837Y966644D01*
X1885499Y966821D01*
D02*
G37*
G36*
X1970501Y966821D02*
X1969163Y966644D01*
X1967217Y965838D01*
X1965546Y964556D01*
X1964263Y962885D01*
X1963457Y960939D01*
X1963182Y958850D01*
Y955600D01*
X1970501D01*
Y966821D01*
D02*
G37*
G36*
X1883999D02*
X1882661Y966644D01*
X1880714Y965838D01*
X1879043Y964556D01*
X1877761Y962885D01*
X1876955Y960939D01*
X1876680Y958850D01*
Y955600D01*
X1883999D01*
Y966821D01*
D02*
G37*
G36*
X1753313Y957250D02*
X1741050D01*
Y944987D01*
X1743694Y945335D01*
X1746856Y946645D01*
X1749572Y948728D01*
X1751655Y951444D01*
X1752965Y954606D01*
X1753313Y957250D01*
D02*
G37*
G36*
X1979320Y954100D02*
X1972001D01*
Y942880D01*
X1973340Y943056D01*
X1975286Y943862D01*
X1976957Y945145D01*
X1978239Y946816D01*
X1979045Y948762D01*
X1979320Y950850D01*
Y954100D01*
D02*
G37*
G36*
X1892818D02*
X1885499D01*
Y942880D01*
X1886837Y943056D01*
X1888783Y943862D01*
X1890455Y945145D01*
X1891737Y946816D01*
X1892543Y948762D01*
X1892818Y950850D01*
Y954100D01*
D02*
G37*
G36*
X1970501D02*
X1963182D01*
Y950850D01*
X1963457Y948762D01*
X1964263Y946816D01*
X1965546Y945145D01*
X1967217Y943862D01*
X1969163Y943056D01*
X1970501Y942880D01*
Y954100D01*
D02*
G37*
G36*
X1883999D02*
X1876680D01*
Y950850D01*
X1876955Y948762D01*
X1877761Y946816D01*
X1879043Y945145D01*
X1880714Y943862D01*
X1882661Y943056D01*
X1883999Y942880D01*
Y954100D01*
D02*
G37*
G36*
X1949250Y930407D02*
X1947084Y929977D01*
X1945961Y929226D01*
X1945000Y928848D01*
X1944039Y929226D01*
X1942916Y929977D01*
X1940751Y930407D01*
X1938585Y929977D01*
X1936750Y928750D01*
X1936251D01*
X1934415Y929977D01*
X1932249Y930407D01*
X1930084Y929977D01*
X1928961Y929226D01*
X1928000Y928848D01*
X1927039Y929226D01*
X1925916Y929977D01*
X1923751Y930407D01*
X1921585Y929977D01*
X1919749Y928750D01*
X1919250D01*
X1917415Y929977D01*
X1915249Y930407D01*
X1913084Y929977D01*
X1911961Y929226D01*
X1911000Y928848D01*
X1910039Y929226D01*
X1908916Y929977D01*
X1906750Y930407D01*
X1904585Y929977D01*
X1902749Y928750D01*
X1902250D01*
X1900414Y929977D01*
X1898999Y930258D01*
Y924749D01*
Y919239D01*
X1900414Y919521D01*
X1902250Y920747D01*
X1902749D01*
X1904585Y919521D01*
X1906750Y919090D01*
X1908916Y919521D01*
X1910039Y920271D01*
X1911000Y920650D01*
X1911961Y920271D01*
X1913084Y919521D01*
X1915249Y919090D01*
X1917415Y919521D01*
X1919250Y920747D01*
X1919749D01*
X1921585Y919521D01*
X1923751Y919090D01*
X1925916Y919521D01*
X1927039Y920271D01*
X1928000Y920650D01*
X1928961Y920271D01*
X1930084Y919521D01*
X1932249Y919090D01*
X1934415Y919521D01*
X1936251Y920747D01*
X1936750D01*
X1938585Y919521D01*
X1940751Y919090D01*
X1942916Y919521D01*
X1944039Y920271D01*
X1945000Y920650D01*
X1945961Y920271D01*
X1947084Y919521D01*
X1949250Y919090D01*
X1951415Y919521D01*
X1953251Y920747D01*
X1953750D01*
X1955585Y919521D01*
X1957001Y919239D01*
Y924749D01*
Y930258D01*
X1955585Y929977D01*
X1953750Y928750D01*
X1953251D01*
X1951415Y929977D01*
X1949250Y930407D01*
D02*
G37*
G36*
X1970501Y936520D02*
X1969163Y936344D01*
X1967217Y935538D01*
X1965546Y934256D01*
X1964263Y932585D01*
X1963457Y930638D01*
X1963220Y928839D01*
X1962463Y928528D01*
X1961912Y928511D01*
X1961752Y928750D01*
X1959917Y929977D01*
X1958501Y930258D01*
Y924749D01*
Y919239D01*
X1959917Y919521D01*
X1961752Y920747D01*
X1961912Y920986D01*
X1963182Y920601D01*
Y915399D01*
X1961912Y915013D01*
X1961752Y915253D01*
X1959917Y916479D01*
X1958501Y916761D01*
Y911251D01*
Y905742D01*
X1959917Y906023D01*
X1961752Y907250D01*
X1962979Y909086D01*
X1963007Y909228D01*
X1963921Y909437D01*
X1964340Y909416D01*
X1965546Y907844D01*
X1967217Y906562D01*
X1969163Y905756D01*
X1970501Y905580D01*
Y921050D01*
Y936520D01*
D02*
G37*
G36*
X1972001Y936520D02*
Y921800D01*
X1979320D01*
Y928550D01*
X1979045Y930638D01*
X1978239Y932585D01*
X1976957Y934256D01*
X1975286Y935538D01*
X1973340Y936344D01*
X1972001Y936520D01*
D02*
G37*
G36*
X1883999Y936520D02*
X1882661Y936344D01*
X1880714Y935538D01*
X1879043Y934256D01*
X1877761Y932585D01*
X1876955Y930638D01*
X1876680Y928550D01*
Y921800D01*
X1883999D01*
Y936520D01*
D02*
G37*
G36*
X1885499Y936520D02*
Y921050D01*
Y905580D01*
X1886837Y905756D01*
X1888783Y906562D01*
X1890455Y907844D01*
X1891660Y909416D01*
X1892079Y909437D01*
X1892993Y909228D01*
X1893021Y909086D01*
X1894248Y907250D01*
X1896084Y906023D01*
X1897499Y905742D01*
Y911251D01*
Y916761D01*
X1896084Y916479D01*
X1894248Y915253D01*
X1894088Y915013D01*
X1892818Y915399D01*
Y920601D01*
X1894088Y920986D01*
X1894248Y920747D01*
X1896084Y919521D01*
X1897499Y919239D01*
Y924749D01*
Y930258D01*
X1896084Y929977D01*
X1894248Y928750D01*
X1894088Y928511D01*
X1893537Y928528D01*
X1892780Y928839D01*
X1892543Y930638D01*
X1891737Y932585D01*
X1890455Y934256D01*
X1888783Y935538D01*
X1886837Y936344D01*
X1885499Y936520D01*
D02*
G37*
G36*
X1751250Y932026D02*
Y918250D01*
X1765026D01*
X1764627Y921285D01*
X1763166Y924813D01*
X1760842Y927841D01*
X1757813Y930166D01*
X1754285Y931627D01*
X1751250Y932026D01*
D02*
G37*
G36*
X1749750Y932026D02*
X1746715Y931627D01*
X1743188Y930166D01*
X1740159Y927841D01*
X1737834Y924813D01*
X1736373Y921285D01*
X1735974Y918250D01*
X1749750D01*
Y932026D01*
D02*
G37*
G36*
X1949250Y916910D02*
X1947084Y916479D01*
X1945961Y915729D01*
X1945000Y915350D01*
X1944039Y915729D01*
X1942916Y916479D01*
X1940751Y916910D01*
X1938585Y916479D01*
X1936750Y915253D01*
X1936251D01*
X1934415Y916479D01*
X1932249Y916910D01*
X1930084Y916479D01*
X1928961Y915729D01*
X1928000Y915350D01*
X1927039Y915729D01*
X1925916Y916479D01*
X1923751Y916910D01*
X1921585Y916479D01*
X1919749Y915253D01*
X1919250D01*
X1917415Y916479D01*
X1915249Y916910D01*
X1913084Y916479D01*
X1911961Y915729D01*
X1911000Y915350D01*
X1910039Y915729D01*
X1908916Y916479D01*
X1906750Y916910D01*
X1904585Y916479D01*
X1902749Y915253D01*
X1902250D01*
X1900414Y916479D01*
X1898999Y916761D01*
Y911251D01*
Y905742D01*
X1900414Y906023D01*
X1902250Y907250D01*
X1902749D01*
X1904585Y906023D01*
X1906750Y905592D01*
X1908916Y906023D01*
X1910039Y906773D01*
X1911000Y907152D01*
X1911961Y906773D01*
X1913084Y906023D01*
X1915249Y905592D01*
X1917415Y906023D01*
X1919250Y907250D01*
X1919749D01*
X1921585Y906023D01*
X1923751Y905592D01*
X1925916Y906023D01*
X1927039Y906773D01*
X1928000Y907152D01*
X1928961Y906773D01*
X1930084Y906023D01*
X1932249Y905592D01*
X1934415Y906023D01*
X1936251Y907250D01*
X1936750D01*
X1938585Y906023D01*
X1940751Y905592D01*
X1942916Y906023D01*
X1944039Y906773D01*
X1945000Y907152D01*
X1945961Y906773D01*
X1947084Y906023D01*
X1949250Y905592D01*
X1951415Y906023D01*
X1953251Y907250D01*
X1953750D01*
X1955585Y906023D01*
X1957001Y905742D01*
Y911251D01*
Y916761D01*
X1955585Y916479D01*
X1953750Y915253D01*
X1953251D01*
X1951415Y916479D01*
X1949250Y916910D01*
D02*
G37*
G36*
X1883999Y920300D02*
X1876680D01*
Y913550D01*
X1876955Y911462D01*
X1877761Y909516D01*
X1879043Y907844D01*
X1880714Y906562D01*
X1882661Y905756D01*
X1883999Y905580D01*
Y920300D01*
D02*
G37*
G36*
X1979320D02*
X1972001D01*
Y905580D01*
X1973340Y905756D01*
X1975286Y906562D01*
X1976957Y907844D01*
X1978239Y909516D01*
X1979045Y911462D01*
X1979320Y913550D01*
Y920300D01*
D02*
G37*
G36*
X1660500Y932125D02*
X1656715Y931627D01*
X1653187Y930166D01*
X1650159Y927841D01*
X1647834Y924813D01*
X1646373Y921285D01*
X1645875Y917500D01*
X1646373Y913715D01*
X1647834Y910187D01*
X1650159Y907159D01*
X1653187Y904834D01*
X1656715Y903373D01*
X1660500Y902875D01*
X1664285Y903373D01*
X1667813Y904834D01*
X1670842Y907159D01*
X1673166Y910187D01*
X1674627Y913715D01*
X1675125Y917500D01*
X1674627Y921285D01*
X1673166Y924813D01*
X1670842Y927841D01*
X1667813Y930166D01*
X1664285Y931627D01*
X1660500Y932125D01*
D02*
G37*
G36*
X1629750Y904332D02*
X1627270Y904005D01*
X1624959Y903048D01*
X1622975Y901525D01*
X1621452Y899541D01*
X1620495Y897230D01*
X1620168Y894750D01*
X1620495Y892270D01*
X1621452Y889959D01*
X1622975Y887974D01*
X1624959Y886452D01*
X1627270Y885495D01*
X1629750Y885168D01*
X1632230Y885495D01*
X1634541Y886452D01*
X1636526Y887974D01*
X1638048Y889959D01*
X1639005Y892270D01*
X1639332Y894750D01*
X1639005Y897230D01*
X1638048Y899541D01*
X1636526Y901525D01*
X1634541Y903048D01*
X1632230Y904005D01*
X1629750Y904332D01*
D02*
G37*
G36*
X1586800Y901000D02*
X1562800D01*
Y877000D01*
X1586800D01*
Y901000D01*
D02*
G37*
G36*
X2070950Y634750D02*
X2060950D01*
Y632838D01*
X2057679D01*
X2055923Y632489D01*
X2054435Y631494D01*
X2051506Y628565D01*
X2050511Y627077D01*
X2050162Y625321D01*
Y620250D01*
X2043750D01*
Y602250D01*
X2048916D01*
Y588988D01*
X2047924Y588326D01*
X2046598Y586341D01*
X2046133Y584000D01*
X2046598Y581659D01*
X2047924Y579674D01*
X2048916Y579012D01*
Y541250D01*
X2043750D01*
Y523250D01*
X2046162D01*
Y518000D01*
X2045450D01*
Y505000D01*
X2055450D01*
Y511557D01*
X2055538Y512000D01*
X2055450Y512443D01*
Y518000D01*
X2055338D01*
Y523250D01*
X2059750D01*
Y541250D01*
X2055584D01*
Y579012D01*
X2056576Y579674D01*
X2057902Y581659D01*
X2058367Y584000D01*
X2057902Y586341D01*
X2056576Y588326D01*
X2055584Y588988D01*
Y602250D01*
X2059750D01*
Y620250D01*
X2059338D01*
Y623421D01*
X2059579Y623662D01*
X2060950D01*
Y621750D01*
X2070950D01*
Y634750D01*
D02*
G37*
G36*
X1933350Y627362D02*
X1929956Y626915D01*
X1926794Y625606D01*
X1924078Y623522D01*
X1921994Y620806D01*
X1920685Y617644D01*
X1920238Y614250D01*
X1920685Y610856D01*
X1921994Y607694D01*
X1924078Y604978D01*
X1926794Y602895D01*
X1929956Y601585D01*
X1933350Y601138D01*
X1936744Y601585D01*
X1939906Y602895D01*
X1942622Y604978D01*
X1944480Y607400D01*
X1945750Y607059D01*
Y601250D01*
X1971750D01*
Y627250D01*
X1945750D01*
Y621441D01*
X1944480Y621100D01*
X1942622Y623522D01*
X1939906Y625606D01*
X1936744Y626915D01*
X1933350Y627362D01*
D02*
G37*
G36*
X1889000Y593250D02*
X1877750D01*
Y582000D01*
X1889000D01*
Y593250D01*
D02*
G37*
G36*
X1876250D02*
X1865000D01*
Y582000D01*
X1876250D01*
Y593250D01*
D02*
G37*
G36*
X1996000D02*
X1972000D01*
Y569250D01*
X1996000D01*
Y593250D01*
D02*
G37*
G36*
X1876000Y557883D02*
Y549150D01*
X1884733D01*
X1884505Y550880D01*
X1883548Y553191D01*
X1882025Y555175D01*
X1880041Y556698D01*
X1877730Y557655D01*
X1876000Y557883D01*
D02*
G37*
G36*
X1874500Y557883D02*
X1872770Y557655D01*
X1870459Y556698D01*
X1868474Y555175D01*
X1866952Y553191D01*
X1865995Y550880D01*
X1865767Y549150D01*
X1874500D01*
Y557883D01*
D02*
G37*
G36*
Y547650D02*
X1865767D01*
X1865995Y545920D01*
X1866952Y543609D01*
X1868474Y541624D01*
X1870459Y540102D01*
X1872770Y539145D01*
X1874500Y538917D01*
Y547650D01*
D02*
G37*
G36*
X1884733D02*
X1876000D01*
Y538917D01*
X1877730Y539145D01*
X1880041Y540102D01*
X1882025Y541624D01*
X1883548Y543609D01*
X1884505Y545920D01*
X1884733Y547650D01*
D02*
G37*
G36*
X1875250Y532582D02*
X1872770Y532256D01*
X1870459Y531298D01*
X1868474Y529775D01*
X1866952Y527791D01*
X1865995Y525480D01*
X1865668Y523000D01*
X1865995Y520520D01*
X1866952Y518209D01*
X1868474Y516225D01*
X1870459Y514702D01*
X1872770Y513745D01*
X1875250Y513418D01*
X1877730Y513745D01*
X1880041Y514702D01*
X1882025Y516225D01*
X1883548Y518209D01*
X1884505Y520520D01*
X1884832Y523000D01*
X1884505Y525480D01*
X1883548Y527791D01*
X1882025Y529775D01*
X1880041Y531298D01*
X1877730Y532256D01*
X1875250Y532582D01*
D02*
G37*
G36*
X2071050Y518000D02*
X2067050D01*
Y512500D01*
X2071050D01*
Y518000D01*
D02*
G37*
G36*
X2065050D02*
X2061050D01*
Y512500D01*
X2065050D01*
Y518000D01*
D02*
G37*
G36*
X2071050Y510500D02*
X2067050D01*
Y505000D01*
X2071050D01*
Y510500D01*
D02*
G37*
G36*
X2065050D02*
X2061050D01*
Y505000D01*
X2065050D01*
Y510500D01*
D02*
G37*
G36*
X1875250Y507182D02*
X1872770Y506856D01*
X1870459Y505898D01*
X1868474Y504375D01*
X1866952Y502391D01*
X1865995Y500080D01*
X1865668Y497600D01*
X1865995Y495120D01*
X1866952Y492809D01*
X1868474Y490825D01*
X1870459Y489302D01*
X1872770Y488344D01*
X1875250Y488018D01*
X1877730Y488344D01*
X1880041Y489302D01*
X1882025Y490825D01*
X1883548Y492809D01*
X1884505Y495120D01*
X1884832Y497600D01*
X1884505Y500080D01*
X1883548Y502391D01*
X1882025Y504375D01*
X1880041Y505898D01*
X1877730Y506856D01*
X1875250Y507182D01*
D02*
G37*
G36*
X2045200Y486750D02*
X2041200D01*
Y481250D01*
X2045200D01*
Y486750D01*
D02*
G37*
G36*
X2039200D02*
X2035200D01*
Y481250D01*
X2039200D01*
Y486750D01*
D02*
G37*
G36*
X2045200Y479250D02*
X2041200D01*
Y473750D01*
X2045200D01*
Y479250D01*
D02*
G37*
G36*
X2039200D02*
X2035200D01*
Y473750D01*
X2039200D01*
Y479250D01*
D02*
G37*
G36*
X2045000Y465000D02*
X2041000D01*
Y459500D01*
X2045000D01*
Y465000D01*
D02*
G37*
G36*
X2039000D02*
X2035000D01*
Y459500D01*
X2039000D01*
Y465000D01*
D02*
G37*
G36*
X2045000Y457500D02*
X2041000D01*
Y452000D01*
X2045000D01*
Y457500D01*
D02*
G37*
G36*
X2039000D02*
X2035000D01*
Y452000D01*
X2039000D01*
Y457500D01*
D02*
G37*
G36*
X2045000Y442625D02*
X2041000D01*
Y437125D01*
X2045000D01*
Y442625D01*
D02*
G37*
G36*
X2039000D02*
X2035000D01*
Y437125D01*
X2039000D01*
Y442625D01*
D02*
G37*
G36*
X2045000Y435125D02*
X2041000D01*
Y429625D01*
X2045000D01*
Y435125D01*
D02*
G37*
G36*
X2039000D02*
X2035000D01*
Y429625D01*
X2039000D01*
Y435125D01*
D02*
G37*
G36*
X2078250Y422750D02*
X2065250D01*
Y418588D01*
X2060600D01*
Y420250D01*
X2050600D01*
Y407250D01*
X2060600D01*
Y409412D01*
X2065250D01*
Y405750D01*
X2078250D01*
Y422750D01*
D02*
G37*
G36*
X2045000Y420250D02*
X2041000D01*
Y414750D01*
X2045000D01*
Y420250D01*
D02*
G37*
G36*
X1950000Y430482D02*
X1947520Y430155D01*
X1945209Y429198D01*
X1943225Y427675D01*
X1942668Y426950D01*
X1865361D01*
X1863606Y426600D01*
X1862117Y425606D01*
X1854537Y418025D01*
X1852659Y417652D01*
X1850674Y416326D01*
X1849348Y414341D01*
X1848882Y412000D01*
X1849348Y409659D01*
X1850674Y407674D01*
X1852659Y406348D01*
X1855000Y405882D01*
X1857341Y406348D01*
X1859326Y407674D01*
X1860652Y409659D01*
X1861025Y411537D01*
X1867262Y417773D01*
X1941013D01*
X1941702Y416109D01*
X1943225Y414124D01*
X1945209Y412602D01*
X1947520Y411645D01*
X1950000Y411318D01*
X1952480Y411645D01*
X1954791Y412602D01*
X1956776Y414124D01*
X1958298Y416109D01*
X1959256Y418420D01*
X1959582Y420900D01*
X1959256Y423380D01*
X1958298Y425691D01*
X1956776Y427675D01*
X1954791Y429198D01*
X1952480Y430155D01*
X1950000Y430482D01*
D02*
G37*
G36*
X1612205Y405650D02*
X1600950D01*
Y394395D01*
X1603333Y394709D01*
X1606252Y395918D01*
X1608759Y397841D01*
X1610682Y400348D01*
X1611891Y403267D01*
X1612205Y405650D01*
D02*
G37*
G36*
X1959500Y405000D02*
X1940500D01*
Y386000D01*
X1959500D01*
Y405000D01*
D02*
G37*
G36*
X1889000Y367250D02*
X1877750D01*
Y356000D01*
X1889000D01*
Y367250D01*
D02*
G37*
G36*
X1876250D02*
X1865000D01*
Y356000D01*
X1876250D01*
Y367250D01*
D02*
G37*
G36*
X1889000Y354500D02*
X1877750D01*
Y343250D01*
X1889000D01*
Y354500D01*
D02*
G37*
G36*
X1876250D02*
X1865000D01*
Y343250D01*
X1876250D01*
Y354500D01*
D02*
G37*
G36*
X1751250Y782026D02*
Y768250D01*
X1765026D01*
X1764627Y771285D01*
X1763166Y774812D01*
X1760842Y777841D01*
X1757813Y780166D01*
X1754285Y781627D01*
X1751250Y782026D01*
D02*
G37*
G36*
X1749750Y782026D02*
X1746715Y781627D01*
X1743188Y780166D01*
X1740159Y777841D01*
X1737834Y774812D01*
X1736373Y771285D01*
X1735974Y768250D01*
X1749750D01*
Y782026D01*
D02*
G37*
G36*
X1765026Y766750D02*
X1751250D01*
Y752974D01*
X1754285Y753373D01*
X1757813Y754834D01*
X1760842Y757159D01*
X1763166Y760187D01*
X1764627Y763715D01*
X1765026Y766750D01*
D02*
G37*
G36*
X1749750D02*
X1735974D01*
X1736373Y763715D01*
X1737834Y760187D01*
X1740159Y757159D01*
X1743188Y754834D01*
X1746715Y753373D01*
X1749750Y752974D01*
Y766750D01*
D02*
G37*
%LPD*%
D12*
X1865361Y422361D02*
X1948539D01*
X1855000Y412000D02*
X1865361Y422361D01*
X1855000Y412000D02*
X1855000D01*
X1797433Y737750D02*
X1826290Y708893D01*
Y641970D02*
Y708893D01*
X1826230Y641910D02*
X1826290Y641970D01*
X1826230Y577060D02*
Y641910D01*
Y577060D02*
X1839290Y564000D01*
X1974000Y761250D02*
X2100000Y635250D01*
X1974000Y761250D02*
Y869500D01*
X1948539Y422361D02*
X1950000Y420900D01*
X1839290Y564000D02*
X1903000D01*
X1690250Y737750D02*
X1797433D01*
X1797750Y738067D01*
Y815250D01*
X2092000Y402679D02*
Y414250D01*
X2080500Y443846D02*
X2083429Y440917D01*
X2080500Y443846D02*
Y491821D01*
X2083429Y440917D02*
X2088250D01*
X2091250Y436625D02*
Y437917D01*
X2088250Y440917D02*
X2091250Y437917D01*
X2077571Y494750D02*
X2080500Y491821D01*
X2039062Y494750D02*
X2077571D01*
X2099074Y479574D02*
X2101750Y482250D01*
X2092000Y458250D02*
X2101750D01*
X2091500Y481574D02*
Y482250D01*
X2093500Y479574D02*
X2099074D01*
X2091500Y481574D02*
X2093500Y479574D01*
X2071875Y480375D02*
X2072000Y480500D01*
X2055925Y480375D02*
X2071875D01*
X2055800Y480250D02*
X2055925Y480375D01*
X2034750Y497250D02*
X2036562D01*
X2039062Y494750D01*
X2050750Y512200D02*
X2050950Y512000D01*
X2050750Y512200D02*
Y531250D01*
X2097550Y511750D02*
Y531450D01*
X1916500Y524447D02*
Y550500D01*
X1903000Y564000D02*
X1916500Y550500D01*
Y524447D02*
X2035447Y405500D01*
X2045500Y399750D02*
X2089071D01*
X2039750Y405500D02*
X2045500Y399750D01*
X2035447Y405500D02*
X2039750D01*
X2071500Y414000D02*
X2071750Y414250D01*
X2055850Y414000D02*
X2071500D01*
X2055600Y413750D02*
X2055850Y414000D01*
X2071500Y436375D02*
X2071750Y436625D01*
X2055850Y436375D02*
X2071500D01*
X2055600Y436125D02*
X2055850Y436375D01*
X2071500Y458750D02*
X2071750Y459000D01*
X2055850Y458750D02*
X2071500D01*
X2055600Y458500D02*
X2055850Y458750D01*
X2091250Y459000D02*
X2092000Y458250D01*
X2034750Y497250D02*
Y596250D01*
X1660500Y767500D02*
X1690250Y737750D01*
X1797500Y815500D02*
X1797750Y815250D01*
X2096750Y532250D02*
Y611250D01*
X2089071Y399750D02*
X2092000Y402679D01*
X2013250Y617750D02*
Y703000D01*
X1999000Y717250D02*
X2013250Y703000D01*
Y617750D02*
X2034750Y596250D01*
X2090321Y628250D02*
X2093250Y625321D01*
X2082550Y628250D02*
X2090321D01*
X2093250Y614750D02*
Y625321D01*
Y614750D02*
X2096750Y611250D01*
X2054750Y614250D02*
Y625321D01*
X2057679Y628250D02*
X2065700D01*
X2054750Y625321D02*
X2057679Y628250D01*
X2051750Y611250D02*
X2054750Y614250D01*
X2097800Y512250D02*
X2098300Y511750D01*
X2096750Y532250D02*
X2097550Y531450D01*
D14*
X1901250Y658000D02*
Y847750D01*
X1937250Y883750D01*
X1875750Y632500D02*
X1901250Y658000D01*
X1997750Y847750D02*
X2070500Y775000D01*
X1997750Y847750D02*
Y875000D01*
X2070500Y775000D02*
X2097750D01*
X1797250Y646000D02*
X1797250D01*
X1600200Y457200D02*
X1603300Y460300D01*
X1611550D01*
X1797250Y646000D01*
X1607680Y444680D02*
X1809750Y646750D01*
X1814750D01*
X1587680Y444680D02*
X1607680D01*
X1801800Y711200D02*
X1821270Y691730D01*
Y644049D02*
Y691730D01*
X1821210Y643989D02*
X1821270Y644049D01*
X1821210Y507676D02*
Y643989D01*
Y507676D02*
X1874136Y454750D01*
X1937250Y883750D02*
X1989000D01*
X1997750Y875000D01*
X1574800Y431800D02*
X1587680Y444680D01*
X1574800Y457200D02*
X1587680Y470080D01*
X1607580D01*
X1801750Y664250D01*
X1562280Y418920D02*
X1574800Y406400D01*
X1562280Y418920D02*
Y487786D01*
X1619480Y495480D02*
X1801000Y677000D01*
X1569974Y495480D02*
X1619480D01*
X1562280Y487786D02*
X1569974Y495480D01*
X1600200Y711200D02*
X1801800D01*
X1630880Y520880D02*
X1801000Y691000D01*
X1587680Y520880D02*
X1630880D01*
X1574800Y508000D02*
X1587680Y520880D01*
X1874136Y454750D02*
X1874750D01*
X2067500Y845250D02*
X2097750Y815000D01*
X2067500Y845250D02*
Y862250D01*
X2097750Y795000D02*
X2101122D01*
X2106872Y800750D01*
X2108250D01*
X2096500Y862250D02*
X2108250Y850500D01*
Y800750D02*
Y850500D01*
X2054850Y887650D02*
X2067500D01*
X2096500D02*
Y893500D01*
X2090690Y899310D02*
X2096500Y893500D01*
X2046980Y895520D02*
X2054850Y887650D01*
X2108480Y408777D02*
Y489020D01*
X2092953Y393250D02*
X2108480Y408777D01*
X2088980Y508520D02*
X2108480Y489020D01*
X2084180Y508520D02*
X2088980D01*
X2083407Y509293D02*
Y510593D01*
Y509293D02*
X2084180Y508520D01*
X1708770Y895520D02*
X2046980D01*
X1706560Y899310D02*
X2090690D01*
X1816770Y879230D02*
X1833980Y862020D01*
Y582980D02*
Y862020D01*
X1808500Y887500D02*
Y888250D01*
Y887500D02*
X1812730Y883270D01*
Y883049D02*
X1816549Y879230D01*
X1812730Y883049D02*
Y883270D01*
X1816549Y879230D02*
X1816770D01*
X1840500Y573750D02*
Y863500D01*
X1819250Y884750D02*
Y885750D01*
Y884750D02*
X1840500Y863500D01*
X1806750Y446750D02*
X1937500D01*
X1806500Y446500D02*
X1806750Y446750D01*
X1937500D02*
X1937750Y447000D01*
X2051750Y532250D02*
X2052250Y532750D01*
X2050750Y531250D02*
X2051750Y532250D01*
X2052250Y532750D02*
Y584000D01*
X2017000Y369250D02*
X2041000Y393250D01*
X2092953D01*
X2017000Y355250D02*
Y369250D01*
X2051750Y611250D02*
X2052250Y610750D01*
Y584000D02*
Y610750D01*
X1632930Y825680D02*
X1706560Y899310D01*
X1613530Y800280D02*
X1708770Y895520D01*
X1587680Y800280D02*
X1613530D01*
X1587680Y825680D02*
X1632930D01*
X1574800Y812800D02*
X1587680Y825680D01*
X1574800Y787400D02*
X1587680Y800280D01*
X1602800Y607000D02*
X1679750D01*
X1600200Y609600D02*
X1602800Y607000D01*
D43*
X2055800Y480250D02*
D03*
X2040200D02*
D03*
X2055600Y458500D02*
D03*
X2040000D02*
D03*
X2055600Y436125D02*
D03*
X2040000D02*
D03*
X2066050Y511500D02*
D03*
X2050450D02*
D03*
X2055600Y413750D02*
D03*
X2040000D02*
D03*
X2082450Y511750D02*
D03*
X2098050D02*
D03*
X2065950Y628250D02*
D03*
X2081550D02*
D03*
D50*
X1877000Y377750D02*
X1877750Y378500D01*
X1877000Y355250D02*
Y377750D01*
X1740300Y958000D02*
X1740550Y957750D01*
X1728250Y767250D02*
X1750250D01*
X1750500Y767500D01*
X1732397Y918603D02*
X1732543Y918457D01*
X1749543D01*
X1750500Y917500D01*
X1877000Y605500D02*
X1878500Y607000D01*
X1877000Y581250D02*
Y605500D01*
D58*
X2067500Y887650D02*
D03*
X2096500D02*
D03*
X1875250Y472200D02*
D03*
X1950000Y395500D02*
D03*
X1877750Y655000D02*
D03*
X2097750Y835000D02*
D03*
D59*
X2067500Y862250D02*
D03*
X2096500D02*
D03*
X1875250Y548400D02*
D03*
Y523000D02*
D03*
Y497600D02*
D03*
X1950000Y420900D02*
D03*
X1877750Y675000D02*
D03*
Y695000D02*
D03*
Y715000D02*
D03*
Y735000D02*
D03*
Y755000D02*
D03*
Y775000D02*
D03*
Y795000D02*
D03*
Y815000D02*
D03*
Y835000D02*
D03*
X2097750Y815000D02*
D03*
Y795000D02*
D03*
Y775000D02*
D03*
Y755000D02*
D03*
Y735000D02*
D03*
Y715000D02*
D03*
Y695000D02*
D03*
Y675000D02*
D03*
Y655000D02*
D03*
X1629750Y894750D02*
D03*
D60*
X1971251Y954850D02*
D03*
X1884749D02*
D03*
D61*
Y921050D02*
D03*
X1971251D02*
D03*
D62*
X1957751Y924749D02*
D03*
X1949250D02*
D03*
X1940751D02*
D03*
X1932249D02*
D03*
X1923751D02*
D03*
X1915249D02*
D03*
X1906750D02*
D03*
X1898249D02*
D03*
Y911251D02*
D03*
X1906750D02*
D03*
X1915249D02*
D03*
X1923751D02*
D03*
X1932249D02*
D03*
X1940751D02*
D03*
X1949250D02*
D03*
X1957751D02*
D03*
D63*
X1910000Y581250D02*
D03*
X1984000D02*
D03*
X2017000D02*
D03*
X1877000D02*
D03*
X2017000Y355250D02*
D03*
X1877000D02*
D03*
D64*
X1750500Y917500D02*
D03*
Y767500D02*
D03*
X1660500Y917500D02*
D03*
Y767500D02*
D03*
D65*
X1574800Y889000D02*
D03*
D66*
X1600200Y660400D02*
D03*
X1574800D02*
D03*
X1600200Y685800D02*
D03*
X1574800D02*
D03*
X1600200Y711200D02*
D03*
X1574800D02*
D03*
X1600200Y736600D02*
D03*
X1574800D02*
D03*
X1600200Y762000D02*
D03*
X1574800D02*
D03*
X1600200Y787400D02*
D03*
X1574800D02*
D03*
X1600200Y812800D02*
D03*
X1574800D02*
D03*
X1600200Y838200D02*
D03*
X1574800D02*
D03*
X1600200Y863600D02*
D03*
X1574800D02*
D03*
X1600200Y889000D02*
D03*
Y406400D02*
D03*
X1574800D02*
D03*
X1600200Y431800D02*
D03*
X1574800D02*
D03*
X1600200Y457200D02*
D03*
Y482600D02*
D03*
X1574800D02*
D03*
X1600200Y508000D02*
D03*
X1574800D02*
D03*
X1600200Y533400D02*
D03*
X1574800D02*
D03*
X1600200Y558800D02*
D03*
X1574800D02*
D03*
X1600200Y584200D02*
D03*
X1574800D02*
D03*
X1600200Y609600D02*
D03*
X1574800D02*
D03*
X1600200Y635000D02*
D03*
X1574800D02*
D03*
Y457200D02*
D03*
D67*
X1740300Y958000D02*
D03*
X1714900D02*
D03*
X1689500D02*
D03*
X1933350Y614250D02*
D03*
D68*
X1664100Y958000D02*
D03*
X1958750Y614250D02*
D03*
D69*
X2077500Y937500D02*
D03*
X2077500Y357500D02*
D03*
X1587500D02*
D03*
X1817500D02*
D03*
Y937500D02*
D03*
X1587500D02*
D03*
D70*
X1784145Y828632D02*
D03*
X1721367Y751647D02*
D03*
X1677000Y722500D02*
D03*
X1957500Y658250D02*
D03*
X1624750Y872250D02*
D03*
X1619217Y674026D02*
D03*
X1818416Y734362D02*
D03*
X1853500Y673250D02*
D03*
X1814000Y664500D02*
D03*
X1855000Y412000D02*
D03*
X1797250Y646000D02*
D03*
X1814750Y646750D02*
D03*
X1875750Y632500D02*
D03*
X1974000Y869500D02*
D03*
X1801000Y677000D02*
D03*
Y691000D02*
D03*
X1801750Y664250D02*
D03*
X2101750Y482250D02*
D03*
Y458250D02*
D03*
X1626750Y565500D02*
D03*
X2048000Y447000D02*
D03*
X2100000Y635250D02*
D03*
X1785500Y868250D02*
D03*
X1943750Y872000D02*
D03*
X1927500Y951500D02*
D03*
X1856750Y911500D02*
D03*
X2032250Y909250D02*
D03*
X2101250Y425250D02*
D03*
X1797500Y815500D02*
D03*
X1808500Y888250D02*
D03*
X1819250Y885750D02*
D03*
X1762750Y748750D02*
D03*
X1834500Y505500D02*
D03*
X1688750Y682750D02*
D03*
X1701250Y617250D02*
D03*
X1672250Y583500D02*
D03*
X1561500Y908000D02*
D03*
X1631250Y948750D02*
D03*
X1760935Y522226D02*
D03*
X1619750Y698750D02*
D03*
X1806500Y446500D02*
D03*
X1937750Y447000D02*
D03*
X2035750Y497250D02*
D03*
X2105250Y591500D02*
D03*
X2106750Y501750D02*
D03*
X2044000Y560500D02*
D03*
X1950750Y784000D02*
D03*
X1956895Y515765D02*
D03*
X2052250Y584000D02*
D03*
X1874750Y454750D02*
D03*
X1999000Y717250D02*
D03*
X1955750Y703250D02*
D03*
X1982750Y670750D02*
D03*
X1994250Y766500D02*
D03*
X2033250Y751750D02*
D03*
X1996250Y700750D02*
D03*
X1932000Y670500D02*
D03*
X2037000Y611750D02*
D03*
Y633250D02*
D03*
X2055250Y646750D02*
D03*
X1686250Y465500D02*
D03*
X1702500Y367500D02*
D03*
X1975750Y402250D02*
D03*
X2003000Y509750D02*
D03*
X1747500Y801750D02*
D03*
X1654750Y722500D02*
D03*
Y631750D02*
D03*
Y586500D02*
D03*
X1833980Y582980D02*
D03*
X1840500Y573750D02*
D03*
X1679750Y607000D02*
D03*
D71*
X2070750Y482250D02*
D03*
X2090250D02*
D03*
X2070750Y459583D02*
D03*
X2090250D02*
D03*
X2070750Y436917D02*
D03*
X2090250D02*
D03*
X2071750Y414250D02*
D03*
X2091250D02*
D03*
D72*
X2051750Y532250D02*
D03*
Y611250D02*
D03*
X2096750D02*
D03*
Y532250D02*
D03*
D73*
X1740550Y957750D02*
X1763250D01*
M02*
