M48
;Layer_Color=9474304
;FILE_FORMAT=4:4
METRIC,LZ
;TYPE=PLATED
T1F00S00C0.4000
T2F00S00C0.4001
T4F00S00C0.8000
T5F00S00C0.9000
T6F00S00C1.0000
T7F00S00C1.2000
T8F00S00C1.3000
T9F00S00C1.5000
T10F00S00C3.2000
%
T01
X017025Y003675
X02048Y00447
X0203575Y0049725
X02003Y0050975
X02044Y005605
X0205225Y00584
X02037Y0061175
Y0063325
X0205525Y0064675
X021Y0063525
X0210525Y005915
X0210675Y0050175
X0210175Y0048225
Y0045825
X0210125Y0042525
X0199625Y0070075
X01999Y0071725
X0199425Y007665
X0203325Y0075175
X0195075Y00784
X0195575Y0070325
X019575Y0065825
X0198275Y0067075
X01932Y006705
X018535Y0067325
X01814Y006645
X0180175Y0066425
X01801Y00677
Y00691
X0179725Y00646
X0181475Y0064675
X0187575Y006325
X0183398Y0058298
X018405Y0057375
X018345Y005055
X018065Y004465
X0187475Y0045475
X01855Y00412
X0193775Y00447
X0197575Y0040225
X01956895Y00515765
X01760935Y00522226
X0168625Y004655
X0167225Y005835
X0165475Y005865
Y0063175
X0167975Y00607
X0170125Y0061725
X0168875Y0068275
X01677Y007225
X0165475
X0161975Y0069875
X01619217Y00674026
X0162675Y005655
X01721367Y00751647
X0176275Y0074875
X01818416Y00734362
X015615Y00908
X0162475Y0087225
X0163125Y0094875
X017855Y0086825
X01784145Y00828632
X017975Y008155
X017475Y0080175
X018085Y0088825
X0181925Y0088575
X0185675Y009115
X019275Y009515
X0194375Y00872
X01974Y008695
X0203225Y0090925
T02
X01898249Y00911251
X0190675
X01915249
X01923751
X01932249
X01940751
X0194925
X01957751
Y00924749
X0194925
X01940751
X01932249
X01923751
X01915249
X0190675
X01898249
T04
X0209775Y00655
Y00675
Y00695
Y00715
Y00735
Y00755
Y00775
X0187775
Y00755
Y00735
Y00715
Y00695
Y00675
Y00655
Y00795
Y00815
Y00835
X0162975Y0089475
X0209775Y00835
Y00815
Y00795
T05
X0195Y003955
Y004209
X0187525Y004722
Y004976
Y00523
Y005484
X016002Y005588
Y005334
Y00508
Y004826
Y004572
Y004318
Y004064
Y005842
Y006096
Y00635
Y006604
Y006858
Y007112
Y007366
Y00762
Y007874
X015748
Y00762
Y007366
Y007112
Y006858
Y006604
Y00635
Y006096
Y005842
Y005588
Y005334
Y00508
Y004826
Y004572
Y004318
Y004064
Y008128
Y008382
Y008636
Y00889
X016002
Y008636
Y008382
Y008128
X020675Y0086225
Y0088765
X020965
Y0086225
T06
X01877Y0035525
X02017
Y0058125
X01984
X0191
X01877
T07
X016641Y00958
X016895
X017149
X017403
T08
X0193335Y0061425
X0195875
T09
X016605Y007675
X017505
Y009175
X016605
T10
X015875Y003575
X018175
X020775
X018175Y009375
X015875
X020775
M30
